<svg width="350" height="144" viewBox="0 0 350 144" fill="none" xmlns="http://www.w3.org/2000/svg">
<g clip-path="url(#clip0_572_6298)">
<g clip-path="url(#clip1_572_6298)">
<rect y="12" width="350" height="132" rx="12" fill="#EA3A60"/>
<circle cx="287.5" cy="96.5" r="105.5" fill="white" fill-opacity="0.05"/>
<circle cx="287.5" cy="96.5" r="105.5" fill="white" fill-opacity="0.05"/>
<circle cx="287.5" cy="96.5" r="69.5518" fill="white" fill-opacity="0.05"/>
<circle cx="287.5" cy="96.5" r="69.5518" fill="white" fill-opacity="0.05"/>
<path d="M21.3 53L20.46 50.48H14.88L14.04 53H11.06L15.96 39H19.38L24.3 53H21.3ZM15.76 47.9H19.6L17.68 42.18L15.76 47.9ZM28.1194 44.72C28.3594 44.08 28.7527 43.6 29.2994 43.28C29.8594 42.96 30.4794 42.8 31.1594 42.8V45.68C30.3727 45.5867 29.666 45.7467 29.0394 46.16C28.426 46.5733 28.1194 47.26 28.1194 48.22V53H25.5394V43H28.1194V44.72ZM34.4772 49.06C34.8239 50.3133 35.7639 50.94 37.2972 50.94C38.2839 50.94 39.0305 50.6067 39.5372 49.94L41.6172 51.14C40.6305 52.5667 39.1772 53.28 37.2572 53.28C35.6039 53.28 34.2772 52.78 33.2772 51.78C32.2772 50.78 31.7772 49.52 31.7772 48C31.7772 46.4933 32.2705 45.24 33.2572 44.24C34.2439 43.2267 35.5105 42.72 37.0572 42.72C38.5239 42.72 39.7305 43.2267 40.6772 44.24C41.6372 45.2533 42.1172 46.5067 42.1172 48C42.1172 48.3333 42.0839 48.6867 42.0172 49.06H34.4772ZM34.4372 47.06H39.5372C39.3905 46.38 39.0839 45.8733 38.6172 45.54C38.1639 45.2067 37.6439 45.04 37.0572 45.04C36.3639 45.04 35.7905 45.22 35.3372 45.58C34.8839 45.9267 34.5839 46.42 34.4372 47.06ZM60.1183 39L55.3183 47.54V53H52.5783V47.54L47.7983 39H50.9183L53.9583 44.84L56.9983 39H60.1183ZM67.868 51.76C66.8413 52.7733 65.588 53.28 64.108 53.28C62.628 53.28 61.3746 52.7733 60.348 51.76C59.3346 50.7333 58.828 49.48 58.828 48C58.828 46.52 59.3346 45.2733 60.348 44.26C61.3746 43.2333 62.628 42.72 64.108 42.72C65.588 42.72 66.8413 43.2333 67.868 44.26C68.8946 45.2733 69.408 46.52 69.408 48C69.408 49.48 68.8946 50.7333 67.868 51.76ZM62.168 49.98C62.688 50.5 63.3346 50.76 64.108 50.76C64.8813 50.76 65.528 50.5 66.048 49.98C66.568 49.46 66.828 48.8 66.828 48C66.828 47.2 66.568 46.54 66.048 46.02C65.528 45.5 64.8813 45.24 64.108 45.24C63.3346 45.24 62.688 45.5 62.168 46.02C61.6613 46.54 61.408 47.2 61.408 48C61.408 48.8 61.6613 49.46 62.168 49.98ZM77.823 43H80.403V53H77.823V51.88C77.1963 52.8133 76.203 53.28 74.843 53.28C73.7496 53.28 72.843 52.9133 72.123 52.18C71.4163 51.4467 71.063 50.4333 71.063 49.14V43H73.643V48.82C73.643 49.4867 73.823 50 74.183 50.36C74.543 50.7067 75.023 50.88 75.623 50.88C76.2896 50.88 76.823 50.6733 77.223 50.26C77.623 49.8467 77.823 49.2267 77.823 48.4V43ZM101.786 46C101.786 47.8133 101.213 49.3867 100.066 50.72L101.506 52.22L99.5459 53.96L98.0259 52.38C96.9459 52.98 95.7726 53.28 94.5059 53.28C92.4926 53.28 90.7793 52.58 89.3659 51.18C87.9526 49.7667 87.2459 48.04 87.2459 46C87.2459 43.96 87.9526 42.24 89.3659 40.84C90.7793 39.4267 92.4926 38.72 94.5059 38.72C96.5193 38.72 98.2326 39.4267 99.6459 40.84C101.073 42.24 101.786 43.96 101.786 46ZM94.5059 50.58C95.0259 50.58 95.5459 50.4933 96.0659 50.32L93.7659 47.92L95.7259 46.18L98.1859 48.74C98.7459 47.94 99.0259 47.0267 99.0259 46C99.0259 44.6667 98.5926 43.5667 97.7259 42.7C96.8593 41.8333 95.7859 41.4 94.5059 41.4C93.2259 41.4 92.1526 41.8333 91.2859 42.7C90.4193 43.5667 89.9859 44.6667 89.9859 46C89.9859 47.32 90.4193 48.4133 91.2859 49.28C92.1526 50.1467 93.2259 50.58 94.5059 50.58ZM110.401 43H112.981V53H110.401V51.88C109.774 52.8133 108.781 53.28 107.421 53.28C106.328 53.28 105.421 52.9133 104.701 52.18C103.994 51.4467 103.641 50.4333 103.641 49.14V43H106.221V48.82C106.221 49.4867 106.401 50 106.761 50.36C107.121 50.7067 107.601 50.88 108.201 50.88C108.868 50.88 109.401 50.6733 109.801 50.26C110.201 49.8467 110.401 49.2267 110.401 48.4V43ZM122.944 43H125.524V53H122.944V51.82C122.171 52.7933 121.084 53.28 119.684 53.28C118.351 53.28 117.204 52.7733 116.244 51.76C115.297 50.7333 114.824 49.48 114.824 48C114.824 46.52 115.297 45.2733 116.244 44.26C117.204 43.2333 118.351 42.72 119.684 42.72C121.084 42.72 122.171 43.2067 122.944 44.18V43ZM118.184 50.04C118.704 50.56 119.364 50.82 120.164 50.82C120.964 50.82 121.624 50.56 122.144 50.04C122.677 49.5067 122.944 48.8267 122.944 48C122.944 47.1733 122.677 46.5 122.144 45.98C121.624 45.4467 120.964 45.18 120.164 45.18C119.364 45.18 118.704 45.4467 118.184 45.98C117.664 46.5 117.404 47.1733 117.404 48C117.404 48.8267 117.664 49.5067 118.184 50.04ZM127.864 53V38.4H130.444V53H127.864ZM134.085 41.8C133.658 41.8 133.285 41.6467 132.965 41.34C132.658 41.02 132.505 40.6467 132.505 40.22C132.505 39.7933 132.658 39.42 132.965 39.1C133.285 38.78 133.658 38.62 134.085 38.62C134.525 38.62 134.898 38.78 135.205 39.1C135.525 39.42 135.685 39.7933 135.685 40.22C135.685 40.6467 135.525 41.02 135.205 41.34C134.898 41.6467 134.525 41.8 134.085 41.8ZM132.805 53V43H135.385V53H132.805ZM146.526 43V53H143.946V45.48H141.006V53H138.426V45.48H136.986V43H138.426V42.9C138.426 40.1133 139.993 38.72 143.126 38.72C143.833 38.72 144.613 38.8133 145.466 39V41.36C144.573 41.2533 143.793 41.2 143.126 41.2C142.406 41.2 141.873 41.3267 141.526 41.58C141.18 41.82 141.006 42.26 141.006 42.9V43H146.526ZM151.059 49.06C151.406 50.3133 152.346 50.94 153.879 50.94C154.866 50.94 155.613 50.6067 156.119 49.94L158.199 51.14C157.213 52.5667 155.759 53.28 153.839 53.28C152.186 53.28 150.859 52.78 149.859 51.78C148.859 50.78 148.359 49.52 148.359 48C148.359 46.4933 148.853 45.24 149.839 44.24C150.826 43.2267 152.093 42.72 153.639 42.72C155.106 42.72 156.313 43.2267 157.259 44.24C158.219 45.2533 158.699 46.5067 158.699 48C158.699 48.3333 158.666 48.6867 158.599 49.06H151.059ZM151.019 47.06H156.119C155.973 46.38 155.666 45.8733 155.199 45.54C154.746 45.2067 154.226 45.04 153.639 45.04C152.946 45.04 152.373 45.22 151.919 45.58C151.466 45.9267 151.166 46.42 151.019 47.06ZM168.002 39H170.582V53H168.002V51.82C167.242 52.7933 166.162 53.28 164.762 53.28C163.416 53.28 162.262 52.7733 161.302 51.76C160.356 50.7333 159.882 49.48 159.882 48C159.882 46.52 160.356 45.2733 161.302 44.26C162.262 43.2333 163.416 42.72 164.762 42.72C166.162 42.72 167.242 43.2067 168.002 44.18V39ZM163.242 50.04C163.776 50.56 164.442 50.82 165.242 50.82C166.042 50.82 166.702 50.56 167.222 50.04C167.742 49.5067 168.002 48.8267 168.002 48C168.002 47.1733 167.742 46.5 167.222 45.98C166.702 45.4467 166.042 45.18 165.242 45.18C164.442 45.18 163.776 45.4467 163.242 45.98C162.722 46.5 162.462 47.1733 162.462 48C162.462 48.8267 162.722 49.5067 163.242 50.04ZM183.662 45.48H181.402V49.64C181.402 49.9867 181.488 50.24 181.662 50.4C181.835 50.56 182.088 50.6533 182.422 50.68C182.755 50.6933 183.168 50.6867 183.662 50.66V53C181.888 53.2 180.635 53.0333 179.902 52.5C179.182 51.9667 178.822 51.0133 178.822 49.64V45.48H177.082V43H178.822V40.98L181.402 40.2V43H183.662V45.48ZM193.688 51.76C192.662 52.7733 191.408 53.28 189.928 53.28C188.448 53.28 187.195 52.7733 186.168 51.76C185.155 50.7333 184.648 49.48 184.648 48C184.648 46.52 185.155 45.2733 186.168 44.26C187.195 43.2333 188.448 42.72 189.928 42.72C191.408 42.72 192.662 43.2333 193.688 44.26C194.715 45.2733 195.228 46.52 195.228 48C195.228 49.48 194.715 50.7333 193.688 51.76ZM187.988 49.98C188.508 50.5 189.155 50.76 189.928 50.76C190.702 50.76 191.348 50.5 191.868 49.98C192.388 49.46 192.648 48.8 192.648 48C192.648 47.2 192.388 46.54 191.868 46.02C191.348 45.5 190.702 45.24 189.928 45.24C189.155 45.24 188.508 45.5 187.988 46.02C187.482 46.54 187.228 47.2 187.228 48C187.228 48.8 187.482 49.46 187.988 49.98ZM17.86 63C19.78 63 21.38 63.6733 22.66 65.02C23.9533 66.3667 24.6 68.0267 24.6 70C24.6 71.9733 23.9533 73.6333 22.66 74.98C21.38 76.3267 19.78 77 17.86 77H12.3V63H17.86ZM17.86 74.36C19.0733 74.36 20.06 73.96 20.82 73.16C21.58 72.3467 21.96 71.2933 21.96 70C21.96 68.7067 21.58 67.66 20.82 66.86C20.06 66.0467 19.0733 65.64 17.86 65.64H15.06V74.36H17.86ZM34.9578 75.76C33.9311 76.7733 32.6778 77.28 31.1978 77.28C29.7178 77.28 28.4645 76.7733 27.4378 75.76C26.4245 74.7333 25.9178 73.48 25.9178 72C25.9178 70.52 26.4245 69.2733 27.4378 68.26C28.4645 67.2333 29.7178 66.72 31.1978 66.72C32.6778 66.72 33.9311 67.2333 34.9578 68.26C35.9845 69.2733 36.4978 70.52 36.4978 72C36.4978 73.48 35.9845 74.7333 34.9578 75.76ZM29.2578 73.98C29.7778 74.5 30.4245 74.76 31.1978 74.76C31.9711 74.76 32.6178 74.5 33.1378 73.98C33.6578 73.46 33.9178 72.8 33.9178 72C33.9178 71.2 33.6578 70.54 33.1378 70.02C32.6178 69.5 31.9711 69.24 31.1978 69.24C30.4245 69.24 29.7778 69.5 29.2578 70.02C28.7511 70.54 28.4978 71.2 28.4978 72C28.4978 72.8 28.7511 73.46 29.2578 73.98ZM43.8728 66.72C44.9661 66.72 45.8661 67.0867 46.5728 67.82C47.2928 68.5533 47.6528 69.5667 47.6528 70.86V77H45.0728V71.18C45.0728 70.5133 44.8928 70.0067 44.5328 69.66C44.1728 69.3 43.6928 69.12 43.0928 69.12C42.4261 69.12 41.8928 69.3267 41.4928 69.74C41.0928 70.1533 40.8928 70.7733 40.8928 71.6V77H38.3128V67H40.8928V68.12C41.5195 67.1867 42.5128 66.72 43.8728 66.72ZM57.4558 67H60.0358V77H57.4558V75.82C56.6824 76.7933 55.5958 77.28 54.1958 77.28C52.8624 77.28 51.7158 76.7733 50.7558 75.76C49.8091 74.7333 49.3358 73.48 49.3358 72C49.3358 70.52 49.8091 69.2733 50.7558 68.26C51.7158 67.2333 52.8624 66.72 54.1958 66.72C55.5958 66.72 56.6824 67.2067 57.4558 68.18V67ZM52.6958 74.04C53.2158 74.56 53.8758 74.82 54.6758 74.82C55.4758 74.82 56.1358 74.56 56.6558 74.04C57.1891 73.5067 57.4558 72.8267 57.4558 72C57.4558 71.1733 57.1891 70.5 56.6558 69.98C56.1358 69.4467 55.4758 69.18 54.6758 69.18C53.8758 69.18 53.2158 69.4467 52.6958 69.98C52.1758 70.5 51.9158 71.1733 51.9158 72C51.9158 72.8267 52.1758 73.5067 52.6958 74.04ZM68.0953 69.48H65.8353V73.64C65.8353 73.9867 65.922 74.24 66.0953 74.4C66.2686 74.56 66.522 74.6533 66.8553 74.68C67.1886 74.6933 67.602 74.6867 68.0953 74.66V77C66.322 77.2 65.0686 77.0333 64.3353 76.5C63.6153 75.9667 63.2553 75.0133 63.2553 73.64V69.48H61.5153V67H63.2553V64.98L65.8353 64.2V67H68.0953V69.48ZM71.7819 73.06C72.1285 74.3133 73.0685 74.94 74.6019 74.94C75.5885 74.94 76.3352 74.6067 76.8419 73.94L78.9219 75.14C77.9352 76.5667 76.4819 77.28 74.5619 77.28C72.9085 77.28 71.5819 76.78 70.5819 75.78C69.5819 74.78 69.0819 73.52 69.0819 72C69.0819 70.4933 69.5752 69.24 70.5619 68.24C71.5485 67.2267 72.8152 66.72 74.3619 66.72C75.8285 66.72 77.0352 67.2267 77.9819 68.24C78.9419 69.2533 79.4219 70.5067 79.4219 72C79.4219 72.3333 79.3885 72.6867 79.3219 73.06H71.7819ZM71.7419 71.06H76.8419C76.6952 70.38 76.3885 69.8733 75.9219 69.54C75.4685 69.2067 74.9485 69.04 74.3619 69.04C73.6685 69.04 73.0952 69.22 72.6419 69.58C72.1885 69.9267 71.8885 70.42 71.7419 71.06ZM94.803 69.74C96.0296 70.4467 96.643 71.5133 96.643 72.94C96.643 74.1267 96.223 75.1 95.383 75.86C94.543 76.62 93.5096 77 92.283 77H86.343V63H91.863C93.063 63 94.0696 63.3733 94.883 64.12C95.7096 64.8533 96.123 65.7933 96.123 66.94C96.123 68.1 95.683 69.0333 94.803 69.74ZM91.863 65.58H89.103V68.66H91.863C92.2896 68.66 92.643 68.5133 92.923 68.22C93.2163 67.9267 93.363 67.56 93.363 67.12C93.363 66.68 93.223 66.3133 92.943 66.02C92.663 65.7267 92.303 65.58 91.863 65.58ZM92.283 74.42C92.7496 74.42 93.1363 74.2667 93.443 73.96C93.7496 73.64 93.903 73.24 93.903 72.76C93.903 72.2933 93.7496 71.9067 93.443 71.6C93.1363 71.28 92.7496 71.12 92.283 71.12H89.103V74.42H92.283ZM98.3323 77V62.4H100.912V77H98.3323ZM111.794 75.76C110.767 76.7733 109.514 77.28 108.034 77.28C106.554 77.28 105.3 76.7733 104.274 75.76C103.26 74.7333 102.754 73.48 102.754 72C102.754 70.52 103.26 69.2733 104.274 68.26C105.3 67.2333 106.554 66.72 108.034 66.72C109.514 66.72 110.767 67.2333 111.794 68.26C112.82 69.2733 113.334 70.52 113.334 72C113.334 73.48 112.82 74.7333 111.794 75.76ZM106.094 73.98C106.614 74.5 107.26 74.76 108.034 74.76C108.807 74.76 109.454 74.5 109.974 73.98C110.494 73.46 110.754 72.8 110.754 72C110.754 71.2 110.494 70.54 109.974 70.02C109.454 69.5 108.807 69.24 108.034 69.24C107.26 69.24 106.614 69.5 106.094 70.02C105.587 70.54 105.334 71.2 105.334 72C105.334 72.8 105.587 73.46 106.094 73.98ZM123.669 75.76C122.642 76.7733 121.389 77.28 119.909 77.28C118.429 77.28 117.175 76.7733 116.149 75.76C115.135 74.7333 114.629 73.48 114.629 72C114.629 70.52 115.135 69.2733 116.149 68.26C117.175 67.2333 118.429 66.72 119.909 66.72C121.389 66.72 122.642 67.2333 123.669 68.26C124.695 69.2733 125.209 70.52 125.209 72C125.209 73.48 124.695 74.7333 123.669 75.76ZM117.969 73.98C118.489 74.5 119.135 74.76 119.909 74.76C120.682 74.76 121.329 74.5 121.849 73.98C122.369 73.46 122.629 72.8 122.629 72C122.629 71.2 122.369 70.54 121.849 70.02C121.329 69.5 120.682 69.24 119.909 69.24C119.135 69.24 118.489 69.5 117.969 70.02C117.462 70.54 117.209 71.2 117.209 72C117.209 72.8 117.462 73.46 117.969 73.98ZM134.604 63H137.184V77H134.604V75.82C133.844 76.7933 132.764 77.28 131.364 77.28C130.017 77.28 128.864 76.7733 127.904 75.76C126.957 74.7333 126.484 73.48 126.484 72C126.484 70.52 126.957 69.2733 127.904 68.26C128.864 67.2333 130.017 66.72 131.364 66.72C132.764 66.72 133.844 67.2067 134.604 68.18V63ZM129.844 74.04C130.377 74.56 131.044 74.82 131.844 74.82C132.644 74.82 133.304 74.56 133.824 74.04C134.344 73.5067 134.604 72.8267 134.604 72C134.604 71.1733 134.344 70.5 133.824 69.98C133.304 69.4467 132.644 69.18 131.844 69.18C131.044 69.18 130.377 69.4467 129.844 69.98C129.324 70.5 129.064 71.1733 129.064 72C129.064 72.8267 129.324 73.5067 129.844 74.04ZM142.107 72.3C142.107 71.7133 142.28 71.1533 142.627 70.62C142.987 70.0867 143.374 69.66 143.787 69.34C144.2 69.0067 144.58 68.62 144.927 68.18C145.287 67.74 145.467 67.3 145.467 66.86C145.467 66.3933 145.307 66.0333 144.987 65.78C144.667 65.5267 144.22 65.4 143.647 65.4C142.527 65.4 141.734 65.9933 141.267 67.18L138.907 65.82C139.307 64.8333 139.94 64.0733 140.807 63.54C141.687 62.9933 142.667 62.72 143.747 62.72C144.96 62.72 146.007 63.0733 146.887 63.78C147.78 64.4733 148.227 65.4333 148.227 66.66C148.227 67.22 148.107 67.74 147.867 68.22C147.64 68.7 147.36 69.1133 147.027 69.46C146.707 69.7933 146.38 70.1133 146.047 70.42C145.727 70.7133 145.447 71.02 145.207 71.34C144.98 71.66 144.867 71.98 144.867 72.3H142.107ZM144.687 76.76C144.354 77.0933 143.954 77.26 143.487 77.26C143.02 77.26 142.62 77.0933 142.287 76.76C141.954 76.4267 141.787 76.0267 141.787 75.56C141.787 75.0933 141.954 74.6933 142.287 74.36C142.62 74.0267 143.02 73.86 143.487 73.86C143.954 73.86 144.354 74.0267 144.687 74.36C145.02 74.6933 145.187 75.0933 145.187 75.56C145.187 76.0267 145.02 76.4267 144.687 76.76Z" fill="white"/>
<rect x="11" y="100" width="137" height="20" rx="10" fill="white"/>
<path d="M22.03 113.13C21.3567 113.13 20.7833 112.977 20.31 112.67C19.8433 112.363 19.5167 111.943 19.33 111.41L20.32 110.83C20.6 111.617 21.18 112.01 22.06 112.01C22.4933 112.01 22.8167 111.927 23.03 111.76C23.25 111.587 23.36 111.363 23.36 111.09C23.36 110.803 23.2433 110.587 23.01 110.44C22.7767 110.287 22.3633 110.12 21.77 109.94C21.4367 109.84 21.1667 109.747 20.96 109.66C20.7533 109.573 20.5333 109.453 20.3 109.3C20.0733 109.14 19.9033 108.943 19.79 108.71C19.6767 108.477 19.62 108.203 19.62 107.89C19.62 107.27 19.84 106.78 20.28 106.42C20.72 106.053 21.25 105.87 21.87 105.87C22.43 105.87 22.92 106.007 23.34 106.28C23.76 106.553 24.0833 106.93 24.31 107.41L23.34 107.97C23.0467 107.317 22.5567 106.99 21.87 106.99C21.5367 106.99 21.27 107.07 21.07 107.23C20.87 107.383 20.77 107.593 20.77 107.86C20.77 108.12 20.87 108.327 21.07 108.48C21.2767 108.627 21.6467 108.783 22.18 108.95C22.4467 109.037 22.64 109.103 22.76 109.15C22.8867 109.19 23.06 109.257 23.28 109.35C23.5067 109.443 23.6767 109.537 23.79 109.63C23.9033 109.723 24.0233 109.84 24.15 109.98C24.2833 110.12 24.3767 110.28 24.43 110.46C24.4833 110.64 24.51 110.843 24.51 111.07C24.51 111.703 24.28 112.207 23.82 112.58C23.3667 112.947 22.77 113.13 22.03 113.13ZM26.4175 110.96C26.4975 111.34 26.6808 111.633 26.9675 111.84C27.2542 112.04 27.6042 112.14 28.0175 112.14C28.5908 112.14 29.0208 111.933 29.3075 111.52L30.1975 112.04C29.7042 112.767 28.9742 113.13 28.0075 113.13C27.1942 113.13 26.5375 112.883 26.0375 112.39C25.5375 111.89 25.2875 111.26 25.2875 110.5C25.2875 109.753 25.5342 109.13 26.0275 108.63C26.5208 108.123 27.1542 107.87 27.9275 107.87C28.6608 107.87 29.2608 108.127 29.7275 108.64C30.2008 109.153 30.4375 109.777 30.4375 110.51C30.4375 110.623 30.4242 110.773 30.3975 110.96H26.4175ZM26.4075 110.08H29.3475C29.2742 109.673 29.1042 109.367 28.8375 109.16C28.5775 108.953 28.2708 108.85 27.9175 108.85C27.5175 108.85 27.1842 108.96 26.9175 109.18C26.6508 109.4 26.4808 109.7 26.4075 110.08ZM32.2085 110.96C32.2885 111.34 32.4718 111.633 32.7585 111.84C33.0452 112.04 33.3952 112.14 33.8085 112.14C34.3818 112.14 34.8118 111.933 35.0985 111.52L35.9885 112.04C35.4952 112.767 34.7652 113.13 33.7985 113.13C32.9852 113.13 32.3285 112.883 31.8285 112.39C31.3285 111.89 31.0785 111.26 31.0785 110.5C31.0785 109.753 31.3252 109.13 31.8185 108.63C32.3118 108.123 32.9452 107.87 33.7185 107.87C34.4518 107.87 35.0518 108.127 35.5185 108.64C35.9918 109.153 36.2285 109.777 36.2285 110.51C36.2285 110.623 36.2152 110.773 36.1885 110.96H32.2085ZM32.1985 110.08H35.1385C35.0652 109.673 34.8952 109.367 34.6285 109.16C34.3685 108.953 34.0618 108.85 33.7085 108.85C33.3085 108.85 32.9752 108.96 32.7085 109.18C32.4418 109.4 32.2718 109.7 32.1985 110.08ZM44.2988 106V107.1H42.3288V113H41.1788V107.1H39.1988V106H44.2988ZM45.0308 110.96C45.1108 111.34 45.2941 111.633 45.5808 111.84C45.8674 112.04 46.2174 112.14 46.6308 112.14C47.2041 112.14 47.6341 111.933 47.9208 111.52L48.8108 112.04C48.3174 112.767 47.5874 113.13 46.6208 113.13C45.8074 113.13 45.1508 112.883 44.6508 112.39C44.1508 111.89 43.9008 111.26 43.9008 110.5C43.9008 109.753 44.1474 109.13 44.6408 108.63C45.1341 108.123 45.7674 107.87 46.5408 107.87C47.2741 107.87 47.8741 108.127 48.3408 108.64C48.8141 109.153 49.0508 109.777 49.0508 110.51C49.0508 110.623 49.0374 110.773 49.0108 110.96H45.0308ZM45.0208 110.08H47.9608C47.8874 109.673 47.7174 109.367 47.4508 109.16C47.1908 108.953 46.8841 108.85 46.5308 108.85C46.1308 108.85 45.7974 108.96 45.5308 109.18C45.2641 109.4 45.0941 109.7 45.0208 110.08ZM51.0811 108.84C51.3544 108.22 51.8678 107.91 52.6211 107.91V109.08C52.2078 109.053 51.8478 109.153 51.5411 109.38C51.2344 109.6 51.0811 109.967 51.0811 110.48V113H50.0011V108H51.0811V108.84ZM58.8791 107.87C59.4457 107.87 59.9024 108.053 60.2491 108.42C60.5957 108.787 60.7691 109.28 60.7691 109.9V113H59.6891V109.97C59.6891 109.623 59.6024 109.357 59.4291 109.17C59.2557 108.977 59.0191 108.88 58.7191 108.88C58.3857 108.88 58.1191 108.99 57.9191 109.21C57.7257 109.43 57.6291 109.76 57.6291 110.2V113H56.5491V109.97C56.5491 109.623 56.4657 109.357 56.2991 109.17C56.1391 108.977 55.9091 108.88 55.6091 108.88C55.2824 108.88 55.0157 108.993 54.8091 109.22C54.6024 109.44 54.4991 109.767 54.4991 110.2V113H53.4191V108H54.4991V108.6C54.8191 108.113 55.2957 107.87 55.9291 107.87C56.5691 107.87 57.0424 108.133 57.3491 108.66C57.6824 108.133 58.1924 107.87 58.8791 107.87ZM62.8949 109.38C62.8949 109.547 62.9849 109.68 63.1649 109.78C63.3516 109.873 63.5749 109.957 63.8349 110.03C64.1016 110.097 64.3683 110.177 64.6349 110.27C64.9016 110.363 65.1249 110.523 65.3049 110.75C65.4916 110.97 65.5849 111.25 65.5849 111.59C65.5849 112.07 65.3983 112.447 65.0249 112.72C64.6583 112.993 64.1949 113.13 63.6349 113.13C63.1416 113.13 62.7183 113.027 62.3649 112.82C62.0116 112.613 61.7549 112.327 61.5949 111.96L62.5249 111.42C62.6983 111.9 63.0683 112.14 63.6349 112.14C64.2016 112.14 64.4849 111.953 64.4849 111.58C64.4849 111.42 64.3916 111.29 64.2049 111.19C64.0249 111.09 63.8016 111.007 63.5349 110.94C63.2749 110.867 63.0116 110.783 62.7449 110.69C62.4783 110.597 62.2516 110.443 62.0649 110.23C61.8849 110.01 61.7949 109.733 61.7949 109.4C61.7949 108.94 61.9683 108.57 62.3149 108.29C62.6683 108.01 63.1049 107.87 63.6249 107.87C64.0383 107.87 64.4049 107.963 64.7249 108.15C65.0516 108.33 65.3016 108.583 65.4749 108.91L64.5649 109.42C64.3916 109.04 64.0783 108.85 63.6249 108.85C63.4183 108.85 63.2449 108.897 63.1049 108.99C62.9649 109.077 62.8949 109.207 62.8949 109.38ZM72.9943 108H74.0743V113H72.9943V112.28C72.5876 112.847 72.0043 113.13 71.2443 113.13C70.5576 113.13 69.971 112.877 69.4843 112.37C68.9976 111.857 68.7543 111.233 68.7543 110.5C68.7543 109.76 68.9976 109.137 69.4843 108.63C69.971 108.123 70.5576 107.87 71.2443 107.87C72.0043 107.87 72.5876 108.15 72.9943 108.71V108ZM70.2843 111.65C70.5843 111.95 70.961 112.1 71.4143 112.1C71.8676 112.1 72.2443 111.95 72.5443 111.65C72.8443 111.343 72.9943 110.96 72.9943 110.5C72.9943 110.04 72.8443 109.66 72.5443 109.36C72.2443 109.053 71.8676 108.9 71.4143 108.9C70.961 108.9 70.5843 109.053 70.2843 109.36C69.9843 109.66 69.8343 110.04 69.8343 110.5C69.8343 110.96 69.9843 111.343 70.2843 111.65ZM77.9631 107.87C78.5365 107.87 78.9998 108.053 79.3531 108.42C79.7065 108.787 79.8831 109.29 79.8831 109.93V113H78.8031V110.04C78.8031 109.667 78.7031 109.38 78.5031 109.18C78.3031 108.98 78.0298 108.88 77.6831 108.88C77.3031 108.88 76.9965 109 76.7631 109.24C76.5298 109.473 76.4131 109.833 76.4131 110.32V113H75.3331V108H76.4131V108.64C76.7398 108.127 77.2565 107.87 77.9631 107.87ZM85.006 106H86.086V113H85.006V112.28C84.5993 112.847 84.016 113.13 83.256 113.13C82.5693 113.13 81.9827 112.877 81.496 112.37C81.0093 111.857 80.766 111.233 80.766 110.5C80.766 109.76 81.0093 109.137 81.496 108.63C81.9827 108.123 82.5693 107.87 83.256 107.87C84.016 107.87 84.5993 108.15 85.006 108.71V106ZM82.296 111.65C82.596 111.95 82.9727 112.1 83.426 112.1C83.8793 112.1 84.256 111.95 84.556 111.65C84.856 111.343 85.006 110.96 85.006 110.5C85.006 110.04 84.856 109.66 84.556 109.36C84.256 109.053 83.8793 108.9 83.426 108.9C82.9727 108.9 82.596 109.053 82.296 109.36C81.996 109.66 81.846 110.04 81.846 110.5C81.846 110.96 81.996 111.343 82.296 111.65ZM93.2248 113.13C92.1715 113.13 91.2982 112.783 90.6048 112.09C89.9115 111.39 89.5648 110.527 89.5648 109.5C89.5648 108.473 89.9115 107.613 90.6048 106.92C91.2982 106.22 92.1715 105.87 93.2248 105.87C93.8582 105.87 94.4415 106.02 94.9748 106.32C95.5148 106.62 95.9348 107.027 96.2348 107.54L95.2348 108.12C95.0482 107.773 94.7748 107.5 94.4148 107.3C94.0615 107.093 93.6648 106.99 93.2248 106.99C92.4782 106.99 91.8715 107.227 91.4048 107.7C90.9448 108.173 90.7148 108.773 90.7148 109.5C90.7148 110.227 90.9448 110.827 91.4048 111.3C91.8715 111.773 92.4782 112.01 93.2248 112.01C93.6648 112.01 94.0648 111.91 94.4248 111.71C94.7848 111.503 95.0548 111.227 95.2348 110.88L96.2348 111.45C95.9415 111.963 95.5248 112.373 94.9848 112.68C94.4515 112.98 93.8648 113.13 93.2248 113.13ZM99.4705 113.13C98.7371 113.13 98.1138 112.877 97.6005 112.37C97.0871 111.863 96.8305 111.24 96.8305 110.5C96.8305 109.76 97.0871 109.137 97.6005 108.63C98.1138 108.123 98.7371 107.87 99.4705 107.87C100.21 107.87 100.834 108.123 101.34 108.63C101.854 109.137 102.11 109.76 102.11 110.5C102.11 111.24 101.854 111.863 101.34 112.37C100.834 112.877 100.21 113.13 99.4705 113.13ZM98.3605 111.63C98.6605 111.93 99.0305 112.08 99.4705 112.08C99.9105 112.08 100.28 111.93 100.58 111.63C100.88 111.33 101.03 110.953 101.03 110.5C101.03 110.047 100.88 109.67 100.58 109.37C100.28 109.07 99.9105 108.92 99.4705 108.92C99.0305 108.92 98.6605 109.07 98.3605 109.37C98.0605 109.67 97.9105 110.047 97.9105 110.5C97.9105 110.953 98.0605 111.33 98.3605 111.63ZM105.717 107.87C106.29 107.87 106.754 108.053 107.107 108.42C107.46 108.787 107.637 109.29 107.637 109.93V113H106.557V110.04C106.557 109.667 106.457 109.38 106.257 109.18C106.057 108.98 105.784 108.88 105.437 108.88C105.057 108.88 104.75 109 104.517 109.24C104.284 109.473 104.167 109.833 104.167 110.32V113H103.087V108H104.167V108.64C104.494 108.127 105.01 107.87 105.717 107.87ZM112.76 106H113.84V113H112.76V112.28C112.353 112.847 111.77 113.13 111.01 113.13C110.323 113.13 109.737 112.877 109.25 112.37C108.763 111.857 108.52 111.233 108.52 110.5C108.52 109.76 108.763 109.137 109.25 108.63C109.737 108.123 110.323 107.87 111.01 107.87C111.77 107.87 112.353 108.15 112.76 108.71V106ZM110.05 111.65C110.35 111.95 110.727 112.1 111.18 112.1C111.633 112.1 112.01 111.95 112.31 111.65C112.61 111.343 112.76 110.96 112.76 110.5C112.76 110.04 112.61 109.66 112.31 109.36C112.01 109.053 111.633 108.9 111.18 108.9C110.727 108.9 110.35 109.053 110.05 109.36C109.75 109.66 109.6 110.04 109.6 110.5C109.6 110.96 109.75 111.343 110.05 111.65ZM116.119 107.05C115.985 107.183 115.825 107.25 115.639 107.25C115.452 107.25 115.289 107.183 115.149 107.05C115.015 106.91 114.949 106.747 114.949 106.56C114.949 106.373 115.015 106.213 115.149 106.08C115.282 105.94 115.445 105.87 115.639 105.87C115.832 105.87 115.995 105.94 116.129 106.08C116.262 106.213 116.329 106.373 116.329 106.56C116.329 106.747 116.259 106.91 116.119 107.05ZM115.099 113V108H116.179V113H115.099ZM120.223 109.04H118.983V111.44C118.983 111.647 119.029 111.797 119.123 111.89C119.216 111.977 119.353 112.027 119.533 112.04C119.719 112.047 119.949 112.043 120.223 112.03V113C119.396 113.1 118.803 113.03 118.443 112.79C118.083 112.543 117.903 112.093 117.903 111.44V109.04H116.983V108H117.903V106.92L118.983 106.6V108H120.223V109.04ZM122.222 107.05C122.089 107.183 121.929 107.25 121.742 107.25C121.556 107.25 121.392 107.183 121.252 107.05C121.119 106.91 121.052 106.747 121.052 106.56C121.052 106.373 121.119 106.213 121.252 106.08C121.386 105.94 121.549 105.87 121.742 105.87C121.936 105.87 122.099 105.94 122.232 106.08C122.366 106.213 122.432 106.373 122.432 106.56C122.432 106.747 122.362 106.91 122.222 107.05ZM121.202 113V108H122.282V113H121.202ZM125.896 113.13C125.163 113.13 124.54 112.877 124.026 112.37C123.513 111.863 123.256 111.24 123.256 110.5C123.256 109.76 123.513 109.137 124.026 108.63C124.54 108.123 125.163 107.87 125.896 107.87C126.636 107.87 127.26 108.123 127.766 108.63C128.28 109.137 128.536 109.76 128.536 110.5C128.536 111.24 128.28 111.863 127.766 112.37C127.26 112.877 126.636 113.13 125.896 113.13ZM124.786 111.63C125.086 111.93 125.456 112.08 125.896 112.08C126.336 112.08 126.706 111.93 127.006 111.63C127.306 111.33 127.456 110.953 127.456 110.5C127.456 110.047 127.306 109.67 127.006 109.37C126.706 109.07 126.336 108.92 125.896 108.92C125.456 108.92 125.086 109.07 124.786 109.37C124.486 109.67 124.336 110.047 124.336 110.5C124.336 110.953 124.486 111.33 124.786 111.63ZM132.143 107.87C132.716 107.87 133.179 108.053 133.533 108.42C133.886 108.787 134.063 109.29 134.063 109.93V113H132.983V110.04C132.983 109.667 132.883 109.38 132.683 109.18C132.483 108.98 132.209 108.88 131.863 108.88C131.483 108.88 131.176 109 130.943 109.24C130.709 109.473 130.593 109.833 130.593 110.32V113H129.513V108H130.593V108.64C130.919 108.127 131.436 107.87 132.143 107.87ZM136.196 109.38C136.196 109.547 136.286 109.68 136.466 109.78C136.652 109.873 136.876 109.957 137.136 110.03C137.402 110.097 137.669 110.177 137.936 110.27C138.202 110.363 138.426 110.523 138.606 110.75C138.792 110.97 138.886 111.25 138.886 111.59C138.886 112.07 138.699 112.447 138.326 112.72C137.959 112.993 137.496 113.13 136.936 113.13C136.442 113.13 136.019 113.027 135.666 112.82C135.312 112.613 135.056 112.327 134.896 111.96L135.826 111.42C135.999 111.9 136.369 112.14 136.936 112.14C137.502 112.14 137.786 111.953 137.786 111.58C137.786 111.42 137.692 111.29 137.506 111.19C137.326 111.09 137.102 111.007 136.836 110.94C136.576 110.867 136.312 110.783 136.046 110.69C135.779 110.597 135.552 110.443 135.366 110.23C135.186 110.01 135.096 109.733 135.096 109.4C135.096 108.94 135.269 108.57 135.616 108.29C135.969 108.01 136.406 107.87 136.926 107.87C137.339 107.87 137.706 107.963 138.026 108.15C138.352 108.33 138.602 108.583 138.776 108.91L137.866 109.42C137.692 109.04 137.379 108.85 136.926 108.85C136.719 108.85 136.546 108.897 136.406 108.99C136.266 109.077 136.196 109.207 136.196 109.38Z" fill="#282828"/>
</g>
<path d="M359.371 145.337C367.408 137.339 370.717 119.808 356.535 102.553C343.416 86.6367 344.873 59.2172 309.653 54.0564C274.473 48.8561 262.221 87.2671 236.298 96.4857C224.716 100.622 211.597 95.1463 199.621 109.368C192.963 117.287 193.593 133.4 202.3 145.337H359.371Z" fill="#FFF0F0"/>
<path d="M203.442 145.534C203.442 145.534 207.027 140.53 209.43 132.651C212.267 123.472 210.573 108.817 205.412 101.686C200.251 94.5947 193.869 91.5613 188.59 94.7129C183.35 97.8646 186.62 104.247 189.496 107.832C192.411 111.417 204.348 128.16 199.424 145.455" stroke="#F99898" stroke-width="2" stroke-linecap="round" stroke-linejoin="round"/>
<path d="M201.315 145.534C201.315 145.534 208.642 129.499 204.467 115.474C201.551 105.704 193.357 97.5493 190.245 96.1705" stroke="#F99898" stroke-width="2" stroke-linecap="round" stroke-linejoin="round"/>
<path d="M187.802 100.425L194.696 99.7162" stroke="#F99898" stroke-width="2" stroke-linecap="round" stroke-linejoin="round"/>
<path d="M191.111 104.404L198.321 103.892" stroke="#F99898" stroke-width="2" stroke-linecap="round" stroke-linejoin="round"/>
<path d="M193.317 108.304L200.724 107.556" stroke="#F99898" stroke-width="2" stroke-linecap="round" stroke-linejoin="round"/>
<path d="M203.088 111.771L195.09 111.929" stroke="#F99898" stroke-width="2" stroke-linecap="round" stroke-linejoin="round"/>
<path d="M204.585 115.829H197.06" stroke="#F99898" stroke-width="2" stroke-linecap="round" stroke-linejoin="round"/>
<path d="M205.451 120.832H198.675" stroke="#F99898" stroke-width="2" stroke-linecap="round" stroke-linejoin="round"/>
<path d="M205.767 124.89L200.448 124.536" stroke="#F99898" stroke-width="2" stroke-linecap="round" stroke-linejoin="round"/>
<path d="M205.451 129.972L201.315 129.224" stroke="#F99898" stroke-width="2" stroke-linecap="round" stroke-linejoin="round"/>
<path d="M204.821 134.148L201.315 133.085" stroke="#F99898" stroke-width="2" stroke-linecap="round" stroke-linejoin="round"/>
<path d="M205.136 132.336L208.761 130.918" stroke="#F99898" stroke-width="2" stroke-linecap="round" stroke-linejoin="round"/>
<path d="M205.688 127.175L209.47 125.678" stroke="#F99898" stroke-width="2" stroke-linecap="round" stroke-linejoin="round"/>
<path d="M205.688 122.448L209.194 120.793" stroke="#F99898" stroke-width="2" stroke-linecap="round" stroke-linejoin="round"/>
<path d="M204.979 117.641L208.485 115.199" stroke="#F99898" stroke-width="2" stroke-linecap="round" stroke-linejoin="round"/>
<path d="M196.548 101.607L198.675 97.7072" stroke="#F99898" stroke-width="2" stroke-linecap="round" stroke-linejoin="round"/>
<path d="M199.7 105.665L202.497 100.977" stroke="#F99898" stroke-width="2" stroke-linecap="round" stroke-linejoin="round"/>
<path d="M201.906 109.368L205.451 105.271" stroke="#F99898" stroke-width="2" stroke-linecap="round" stroke-linejoin="round"/>
<path d="M203.797 113.544L207.461 109.959" stroke="#F99898" stroke-width="2" stroke-linecap="round" stroke-linejoin="round"/>
<path d="M192.569 97.7071L193.633 95.2645" stroke="#F99898" stroke-width="2" stroke-linecap="round" stroke-linejoin="round"/>
<path d="M198.636 117.956C192.333 108.817 181.144 105.35 174.644 105.704C168.104 106.098 165.583 106.768 166.055 109.801C166.528 112.796 167.789 128.081 172.241 136.551C176.692 144.982 187.329 145.691 192.923 145.691C204.545 142.776 204.979 127.096 198.636 117.956Z" fill="#FFC7C6"/>
<path d="M168.577 108.265C178.741 110.747 190.757 125.008 194.499 145.179" stroke="white" stroke-width="2" stroke-linecap="round"/>
<path d="M167.828 113.977L177.283 112.953" stroke="white" stroke-width="2" stroke-linecap="round"/>
<path d="M181.577 108.62L180.277 115.75" stroke="white" stroke-width="2" stroke-linecap="round"/>
<path d="M189.811 113.111L186.187 123.354" stroke="white" stroke-width="2" stroke-linecap="round"/>
<path d="M170.822 120.399L183.468 119.493" stroke="white" stroke-width="2" stroke-linecap="round"/>
<path d="M195.484 120.793L190.402 130.957" stroke="white" stroke-width="2" stroke-linecap="round"/>
<path d="M173.383 128.987L188.314 127.569" stroke="white" stroke-width="2" stroke-linecap="round"/>
<path d="M177.283 137.339L192.293 136.512" stroke="white" stroke-width="2" stroke-linecap="round"/>
<path d="M199.621 127.609L193.002 138.797" stroke="white" stroke-width="2" stroke-linecap="round"/>
<path d="M228.537 39.1645C228.537 39.1645 232.241 48.6195 233.659 49.959C235.117 51.3378 246.226 57.3654 246.226 57.3654L247.92 51.8106C247.92 51.8106 240.671 46.7285 238.229 43.9708C235.786 41.1737 234.368 26.479 230.625 25.2578L228.537 39.1645Z" fill="#EE9681"/>
<path d="M251.151 52.1654C250.678 52.3229 250.166 52.6381 249.693 52.6775C249.496 52.7169 248.59 52.4017 247.92 51.8108L246.226 57.3656C249.299 59.4536 253.593 60.6355 257.06 59.8082C258.715 59.3748 260.566 58.6657 261.591 57.208C262.339 56.1837 262.457 53.8988 260.881 54.0564C259.739 54.1745 258.754 54.2139 257.533 54.3715C256.351 54.4897 255.169 54.6867 254.066 54.2139C253.908 54.1351 253.869 54.0958 253.869 54.0564" fill="#EE9681"/>
<path d="M336.6 144.943C340.067 144.943 346.843 146.243 352.634 140.491C358.465 134.739 359.292 120.399 357.244 116.262C355.825 113.386 339.437 116.459 333.961 123.354C328.485 130.248 328.524 141.673 336.6 144.943Z" fill="#FFC7C6"/>
<path d="M354.328 117.09C348.143 119.926 336.482 130.799 334.946 142.579" stroke="white" stroke-width="2" stroke-linecap="round"/>
<path d="M355.156 122.447L347.198 122.053" stroke="white" stroke-width="2" stroke-linecap="round"/>
<path d="M344.204 119.493V125.008" stroke="white" stroke-width="2" stroke-linecap="round"/>
<path d="M354.328 128.948L341.958 127.608" stroke="white" stroke-width="2" stroke-linecap="round"/>
<path d="M338.531 123.354L339.003 131.666" stroke="white" stroke-width="2" stroke-linecap="round"/>
<path d="M352.004 135.842L337.546 134.424" stroke="white" stroke-width="2" stroke-linecap="round"/>
<path d="M271.479 141.555V14.2665C271.479 13.7937 271.124 13.3998 270.652 13.3998C270.179 13.3998 269.785 13.7937 269.785 14.2665V141.555C269.785 142.027 270.179 142.421 270.652 142.421C271.124 142.421 271.479 142.027 271.479 141.555Z" fill="#BCE3F6"/>
<path d="M256.942 20.688H283.849C284.322 20.688 284.677 20.3334 284.677 19.8607C284.677 19.3879 284.322 18.994 283.849 18.994H256.863" fill="#BCE3F6"/>
<path d="M287.198 140.924V139.23C287.198 138.876 286.922 138.521 286.568 138.403L270.849 134.227C270.415 134.109 269.942 134.385 269.824 134.857C269.667 135.291 269.942 135.763 270.415 135.882L285.464 139.9V140.924C285.464 141.397 285.858 141.791 286.331 141.791C286.804 141.791 287.198 141.397 287.198 140.924Z" fill="#BCE3F6"/>
<path d="M255.799 140.924V139.9L270.849 135.882C271.321 135.763 271.597 135.291 271.479 134.857C271.361 134.385 270.888 134.109 270.415 134.227L254.696 138.403C254.342 138.521 254.066 138.876 254.066 139.23V140.924C254.066 141.397 254.46 141.791 254.933 141.791C255.405 141.791 255.799 141.397 255.799 140.924Z" fill="#BCE3F6"/>
<path d="M270.652 140.688C269.312 140.688 268.209 141.752 268.209 143.091C268.209 144.43 269.312 145.494 270.652 145.494C271.952 145.494 273.055 144.43 273.055 143.091C273.055 141.752 271.952 140.688 270.652 140.688Z" fill="#517CC5"/>
<path d="M286.331 140.688C284.992 140.688 283.928 141.752 283.928 143.091C283.928 144.43 284.992 145.494 286.331 145.494C287.671 145.494 288.734 144.43 288.734 143.091C288.734 141.752 287.671 140.688 286.331 140.688Z" fill="#517CC5"/>
<path d="M252.451 143.091C252.451 144.43 253.514 145.494 254.854 145.494C256.193 145.494 257.257 144.43 257.257 143.091C257.257 141.752 256.193 140.688 254.854 140.688C253.514 140.688 252.451 141.752 252.451 143.091Z" fill="#517CC5"/>
<path fill-rule="evenodd" clip-rule="evenodd" d="M262.575 42.4739C264.939 41.3708 265.885 39.7556 265.845 38.9283C265.727 37.5494 265.136 28.6459 264.742 25.2973C264.348 21.988 263.678 21.1213 262.615 20.688C261.512 20.294 260.448 20.0182 259.66 19.0333C258.872 18.009 258.281 17.1423 256.548 17.1423C254.775 17.1423 254.184 18.009 253.396 19.0333C252.608 20.0182 251.545 20.294 250.481 20.688C249.378 21.1213 248.708 21.988 248.314 25.2973C247.92 28.6459 247.329 37.5494 247.25 38.9283C247.172 39.8344 248.275 41.6072 251.072 42.7103C251.308 42.7891 251.466 43.0254 251.426 43.2618L251.308 43.9709C251.269 44.2467 251.032 44.4043 250.796 44.3649L250.599 44.3255C250.284 44.2861 249.969 44.5225 249.929 44.877L249.496 48.2651C249.457 48.5802 249.693 48.8954 250.008 48.9348L251.899 49.25C252.254 49.2894 252.529 49.0924 252.608 48.7772L253.278 45.3892C253.357 45.0346 253.12 44.7195 252.766 44.6801C252.529 44.6013 252.372 44.4043 252.411 44.1679C252.411 44.1679 252.451 43.9315 252.49 43.6558C252.529 43.38 252.845 43.2224 253.16 43.3012C253.396 43.3406 253.593 43.38 253.79 43.4194C254.604 43.5507 255.524 43.6164 256.548 43.6164C256.732 43.6164 256.916 43.6164 257.099 43.6164C257.375 43.577 257.612 43.8133 257.612 44.1285L257.808 48.7772C257.808 49.25 258.084 49.5651 258.596 49.5651C259.069 49.5651 259.424 49.25 259.384 48.7378L259.227 43.8921C259.187 43.6164 259.384 43.38 259.66 43.3406C260.002 43.2881 260.317 43.2224 260.606 43.1436C260.921 43.0648 261.236 43.2224 261.275 43.577L261.394 44.1285C261.433 44.3649 261.275 44.5619 261.078 44.6407H260.881C260.606 44.7194 260.369 45.0346 260.448 45.3104L261.157 48.4621C261.197 48.7378 261.472 48.9348 261.787 48.8954L263.56 48.5409C263.875 48.5015 264.072 48.2257 264.033 47.9105L263.56 44.7588C263.521 44.4043 263.206 44.2467 262.891 44.2861C262.654 44.3255 262.457 44.1679 262.418 43.9315L262.26 43.0254C262.221 42.7891 262.339 42.5527 262.575 42.4739ZM256.548 20.9637C255.957 20.9637 255.484 20.491 255.484 19.9C255.484 19.3091 255.957 18.8364 256.548 18.8364C257.139 18.8364 257.612 19.3091 257.612 19.9C257.612 20.491 257.139 20.9637 256.548 20.9637Z" fill="#DEF1F8"/>
<path d="M263.639 28.0944C263.403 24.076 263.206 21.9093 261.275 21.9881C259.305 22.0669 254.814 22.1063 253.435 21.9881C252.017 21.8699 250.363 21.9487 250.047 23.0518C249.732 24.1154 249.378 27.8974 249.299 29.4733C249.26 31.0885 253.751 31.6007 257.611 31.6795C261.433 31.7189 263.639 28.0944 263.639 28.0944Z" fill="#BCE3F6"/>
<path d="M249.299 29.4734C249.063 32.625 248.787 36.3283 248.669 38.1011L248.59 38.9678C248.669 39.7163 250.717 42.2376 256.548 42.2376C262.378 42.2376 264.388 39.7163 264.466 39.0072L264.388 38.1011C264.269 36.0525 263.954 31.4432 263.639 28.0945C263.639 28.0945 262.93 27.6218 261.039 28.0945C259.148 28.5673 257.257 29.4734 252.766 29.0794C250.008 28.843 249.299 29.4734 249.299 29.4734Z" fill="#EC6469"/>
<path d="M258.439 45.1135L258.321 41.6073" stroke="#EC6469" stroke-width="2" stroke-linecap="round"/>
<path d="M255.405 43.183C255.208 49.2894 255.13 55.4352 255.327 61.5809C255.681 71.7057 256.548 82.5002 260.803 91.8764C264.506 100.071 271.282 105.744 280.54 106.019" stroke="#DEF1F8" stroke-width="4" stroke-linecap="round"/>
<path d="M255.484 41.4102C255.169 52.5593 254.972 64.6144 256.311 74.9361C257.454 84.0366 259.936 94.4371 267.027 100.859C270.77 104.207 275.537 105.862 280.54 106.019" stroke="#EC6469" stroke-width="2" stroke-linecap="round"/>
<path d="M264.466 39.0071L264.388 38.101C264.388 37.8121 264.374 37.4838 264.348 37.1161C264.545 40.0708 260.054 40.8587 255.72 39.7556C251.584 38.6526 252.372 35.3433 252.805 29.1188C252.805 29.0925 252.792 29.0793 252.766 29.0793C250.008 28.843 249.299 29.4733 249.299 29.4733C249.063 32.625 248.787 36.3282 248.669 38.101L248.59 38.9677C248.669 39.7162 250.717 42.2376 256.548 42.2376C262.378 42.2376 264.388 39.7162 264.466 39.0071Z" fill="#E73555"/>
<path d="M261.669 36.6433V34.2402C261.669 34.0826 261.551 33.9644 261.433 33.925C258.176 33.7674 254.932 33.7674 251.702 33.925C251.544 33.9644 251.426 34.0826 251.426 34.2402V36.6433C251.426 36.7615 251.544 36.8797 251.663 36.9191C255.051 37.2343 258.321 37.2737 261.433 36.9191C261.59 36.8797 261.669 36.7615 261.669 36.6433Z" fill="#F0FAFF"/>
<path d="M261.197 23.0517C258.202 22.8941 256.075 22.8941 256.036 23.485C255.996 24.1154 260.133 24.273 261.394 25.6124C262.694 26.9913 262.694 26.5185 262.694 25.6124C262.694 24.7457 262.457 23.0911 261.197 23.0517Z" fill="#DEF1F8"/>
<path d="M253.869 54.0563C253.869 54.0169 253.908 53.9381 253.948 53.8987C254.263 53.5048 254.893 53.032 255.287 52.6775C255.721 52.2835 256.508 51.141 255.602 50.7865C255.405 50.7077 255.169 50.7471 254.972 50.8259C253.711 51.2724 252.438 51.7189 251.151 52.1653" fill="#EE9681"/>
<path d="M286.173 72.8482C284.952 72.9664 283.573 72.533 282.707 71.5087C282.194 70.8784 281.958 70.0904 281.643 69.3419C281.525 69.1055 281.407 68.8692 281.21 68.7116C281.013 68.554 280.776 68.4752 280.5 68.5146C280.382 68.554 280.225 68.5934 280.146 68.751C280.067 68.8692 280.106 69.0662 280.106 69.2237C280.343 70.642 280.5 72.4936 281.604 73.5573C282.588 74.5028 283.692 74.9755 285.031 75.2907" fill="#E76266"/>
<path d="M280.973 68.2782C280.973 70.9177 283.14 73.0845 285.819 73.0845C288.458 73.0845 290.625 70.9177 290.625 68.2782C290.625 65.5993 288.458 63.4325 285.819 63.4325C283.14 63.4325 280.973 65.5993 280.973 68.2782Z" fill="#E73555"/>
<path d="M283.219 64.181C282.667 64.8902 282.313 65.7569 282.313 66.7418C282.313 68.9873 284.164 70.8389 286.41 70.8389C288.537 70.8389 290.31 69.1843 290.468 67.0963C289.956 64.9689 288.065 63.4325 285.819 63.4325C284.873 63.4325 283.967 63.7083 283.219 64.181Z" fill="#EC6469"/>
<path d="M281.958 74.6209C278.885 74.9361 278.846 78.5999 283.179 79.7424C287.513 80.8848 294.25 80.806 299.214 80.806C304.177 80.806 311.387 80.5697 313.12 78.718C315.129 76.5513 312.923 74.1481 309.575 74.1481C309.575 74.1481 285.031 74.2663 281.958 74.6209Z" fill="#EE4652"/>
<path d="M285.622 75.7633C286.41 75.8814 287.316 75.9996 288.419 76.0784C292.162 76.3148 294.565 76.1966 300.514 76.236C305.714 76.236 308.511 75.9996 309.22 75.6057C310.599 74.7784 314.263 70.0508 315.13 68.7902C316.39 66.8992 319.384 52.8348 319.384 52.8348L317.296 51.0226C314.657 52.0863 313.869 52.9136 313.002 54.8046C311.111 59.0594 307.25 68.475 306.896 68.9084C306.699 69.1054 306.305 69.7357 305.359 69.8933C303.862 70.0903 294.368 71.0358 293.265 70.9964C291.689 70.9964 292.162 70.76 291.413 69.9721C291.137 69.6963 290.822 69.4205 290.507 69.4205C289.759 71.6267 288.065 72.5722 286.646 72.848" fill="#EE9681"/>
<path d="M318.872 50.4712C317.02 50.6682 314.46 51.5349 313.278 53.2289C312.135 54.9623 308.275 64.5355 308.275 64.5355C308.275 64.5355 310.363 66.4265 314.854 66.8205L318.872 50.4712Z" fill="#2CA5C6"/>
<path d="M302.68 70.4843L303.823 73.0844L305.32 72.9662L304.099 70.3267L302.68 70.4843Z" fill="#F0FAFF"/>
<path d="M287.671 72.5329C284.007 73.3602 283.022 70.3661 282.746 69.7752C282.431 69.1448 282.195 68.2781 281.564 69.263C281.052 70.0904 281.604 72.1389 282.47 73.5966C283.337 75.0936 284.637 75.6058 285.622 75.7634L287.671 72.5329Z" fill="#EE9681"/>
<path d="M300.711 71.9814C300.317 83.4063 309.732 93.2552 321.393 92.3885" stroke="#DEF1F8" stroke-width="4" stroke-linecap="round"/>
<path d="M305.871 71.4299L300.711 71.9815C300.671 72.73 300.75 75.3301 301.302 77.4969C301.892 79.9395 302.72 81.8304 304.296 84.0366C308.353 89.7884 314.46 92.7431 321.393 92.3885" stroke="#EC6469" stroke-width="2" stroke-linecap="round"/>
<path d="M325.372 128.593V128.554C325.372 127.53 324.545 126.702 323.521 126.702C322.497 126.702 321.669 125.875 321.669 124.851V124.772C321.669 123.748 320.842 122.92 319.818 122.92H298.229C297.204 122.92 296.377 123.748 296.377 124.772V124.851C296.377 125.875 295.55 126.702 294.525 126.702C293.501 126.702 292.674 127.53 292.674 128.554V128.593C292.674 129.618 293.501 130.484 294.525 130.484C295.55 130.484 296.377 131.312 296.377 132.336V132.375C296.377 133.4 295.55 134.227 294.525 134.227C293.501 134.227 292.674 135.094 292.674 136.118V136.157C292.674 137.182 293.501 138.009 294.525 138.009C295.55 138.009 296.377 138.836 296.377 139.86V139.939C296.377 140.964 297.204 141.791 298.229 141.791H319.818C320.842 141.791 321.669 140.964 321.669 139.939V139.86C321.669 138.836 322.497 138.009 323.521 138.009C324.545 138.009 325.372 137.182 325.372 136.157V136.118C325.372 135.094 324.545 134.227 323.521 134.227C322.497 134.227 321.669 133.4 321.669 132.375V132.336C321.669 131.312 322.497 130.484 323.521 130.484C324.545 130.484 325.372 129.618 325.372 128.593Z" fill="#292669"/>
<path d="M294.526 134.227H323.521C322.497 134.227 321.669 133.4 321.669 132.375V132.336C321.669 131.312 322.497 130.484 323.521 130.484H294.526C295.55 130.484 296.377 131.312 296.377 132.336V132.375C296.377 133.4 295.55 134.227 294.526 134.227Z" fill="#1E1242"/>
<path d="M323.521 126.702C322.497 126.702 321.669 125.875 321.669 124.851V124.772C321.669 123.748 320.842 122.92 319.818 122.92H298.229C297.204 122.92 296.377 123.748 296.377 124.772V124.851C296.377 125.875 295.55 126.702 294.526 126.702H323.521Z" fill="#1E1242"/>
<path d="M296.377 139.86V139.939C296.377 140.964 297.204 141.791 298.229 141.791H319.818C320.842 141.791 321.669 140.964 321.669 139.939V139.86C321.669 138.836 322.497 138.009 323.521 138.009H294.526C295.55 138.009 296.377 138.836 296.377 139.86Z" fill="#1E1242"/>
<path d="M323.639 141.436H294.407C292.516 141.436 290.862 142.658 290.231 144.43C290.074 144.943 290.468 145.494 291.019 145.494H327.027C327.579 145.494 327.973 144.943 327.815 144.43C327.224 142.658 325.53 141.436 323.639 141.436Z" fill="#BCE3F6"/>
<path d="M325.372 142.736C325.372 142.027 324.821 141.436 324.072 141.436H300.868C300.159 141.436 299.568 142.027 299.568 142.736C299.568 143.446 300.159 144.037 300.868 144.037H324.072C324.821 144.037 325.372 143.446 325.372 142.736Z" fill="#DEF1F8"/>
<path d="M337.979 116.38L312.766 107.595H286.646L285.819 116.735C287.946 119.099 296.574 123.55 298.426 124.023L337.979 116.38Z" fill="#BCE3F6"/>
<path d="M297.244 109.486C297.244 109.486 296.732 121.62 297.756 123.472C298.78 125.363 311.623 125.56 320.015 125.56C328.445 125.56 336.521 124.063 337.585 123.078C338.688 122.093 338.294 118.232 338.294 114.608L297.244 109.486Z" fill="#DEF1F8"/>
<path d="M338.334 117.405C338.294 116.499 338.294 115.553 338.294 114.608L330.021 113.623L312.766 107.595H288.459L286.528 116.735C286.528 116.735 293.541 114.686 296.338 113.898C299.174 113.071 301.184 114.608 312.687 116.735C323.285 118.705 333.725 118.035 338.334 117.405Z" fill="#90C8EE"/>
<path d="M358.032 56.2625C355.825 53.6229 336.876 46.9256 329.824 48.6984C322.733 50.4713 315.248 89.3944 315.248 89.3944C315.248 89.3944 331.794 108.068 342.628 108.738C342.628 108.147 358.032 56.2625 358.032 56.2625Z" fill="#F9575C"/>
<path d="M356.968 55.5533C352.95 54.4109 348.734 56.5776 347.316 60.5566C342.772 73.3734 339.345 86.4528 337.034 99.7949C336.403 103.459 338.491 107.083 341.958 108.462L342.628 108.738C343.81 109.171 345.11 108.541 345.464 107.32L358.426 58.1141C358.701 57.011 358.071 55.8685 356.968 55.5533Z" fill="#EE4652"/>
<path d="M340.54 108.58C339.319 106.02 325.057 91.2068 318.872 88.2127C312.726 85.2186 293.816 84.9822 286.371 85.1792C278.925 85.3762 277.782 91.9553 279.24 93.4523C280.737 94.91 291.768 106.492 294.25 108.777C296.732 111.102 297.953 111.771 300.08 112.441C300.08 112.441 341.722 111.18 340.54 108.58Z" fill="#EE4652"/>
<path d="M340.54 108.58C340.225 107.95 339.082 106.532 337.467 104.68C330.77 101.962 324.23 101.647 317.415 101.134C309.732 100.583 301.183 100.228 299.253 103.616C297.795 106.177 297.086 109.014 297.165 111.141C298.111 111.732 298.977 112.087 300.08 112.441C300.08 112.441 341.722 111.18 340.54 108.58Z" fill="#F9575C"/>
<path d="M342.234 114.726C342.982 112.441 341.761 108.935 339.122 107.201C336.443 105.468 331.282 104.01 320.724 103.183C310.205 102.316 304.453 102.238 302.05 103.853C299.647 105.468 299.174 109.25 298.938 110.392C298.701 111.496 299.411 112.323 300.908 112.796C302.444 113.308 310.441 115.514 319.66 116.262C328.879 116.972 335.655 116.853 338.964 116.262C341.052 115.869 342.037 115.317 342.234 114.726Z" fill="#EE4652"/>
<path d="M298.386 110.865C298.741 108.935 298.623 107.162 297.441 104.562C296.298 101.962 282.982 92.94 273.133 93.1764C263.245 93.4521 250.52 101.213 246.896 104.562C243.232 107.91 244.217 112.914 245.281 114.45C246.344 115.987 252.963 119.375 256.705 121.069C260.527 122.763 268.721 126.899 272.109 125.442L298.386 110.865Z" fill="#F9575C"/>
<path d="M298.386 110.865C298.504 110.195 298.426 107.635 297.165 105.862C295.904 104.05 292.753 102.001 285.661 105.586C278.57 109.132 272.543 113.268 270.415 115.356C268.327 117.484 268.485 121.226 269.155 123.275C269.824 125.323 270.77 125.796 272.109 125.442C273.449 125.087 295.077 114.056 296.338 113.15C297.677 112.205 298.229 111.614 298.386 110.865Z" fill="#EE4652"/>
<path d="M251.939 106.453C253.554 107.753 255.524 108.068 255.524 108.068L258.478 105.704L253.436 101.529L250.205 104.326C250.205 104.326 250.284 105.114 251.939 106.453Z" fill="#EE9681"/>
<path d="M253.436 101.529L253.002 101.883C253.002 101.883 254.224 105.507 257.257 106.689L258.478 105.704L253.436 101.529Z" fill="#E76266"/>
<path d="M256.233 106.729C256.075 106.256 254.933 107.201 254.026 107.123C253.081 107.004 252.293 106.847 251.939 106.02C251.466 105.035 251.899 104.404 252.451 103.774C253.12 102.986 253.081 101.725 252.254 101.134C252.122 101.029 251.978 100.964 251.82 100.938C250.954 100.819 250.678 101.647 248.866 101.686C246.817 101.725 245.123 100.977 243.232 100.504C240.947 99.9526 239.805 98.6132 238.505 98.5738C237.362 98.5344 236.692 98.8889 235.944 101.292C236.259 102.907 237.756 104.444 239.647 105.586C241.341 106.611 243.862 107.635 245.32 108.344C246.778 109.053 249.023 112.087 252.254 112.52C254.814 109.999 256.233 106.729 256.233 106.729Z" fill="#1E1242"/>
<path d="M305.359 79.1909C305.359 79.1909 282.707 78.0484 280.54 78.0484C278.373 78.0484 277.113 78.4818 275.537 79.9394C273.921 81.3577 253.436 101.528 253.436 101.528C253.436 101.528 254.539 104.641 258.675 106.571L284.637 86.8337L310.914 87.5034L305.359 79.1909Z" fill="#1E1242"/>
<path d="M257.257 105.862L254.342 108.147C254.302 111.811 255.996 113.544 258.675 113.15L262.103 110.314L257.257 105.862Z" fill="#F8C6A3"/>
<path d="M257.257 105.862L256.942 106.098C256.942 106.098 257.769 109.565 260.448 111.653L262.103 110.314L257.257 105.862Z" fill="#EE9681"/>
<path d="M305.359 81.3972C305.359 81.3972 296.18 82.0275 291.019 82.6578C285.858 83.2488 284.361 83.367 281.288 84.864C278.216 86.3217 257.257 105.862 257.257 105.862C259.345 110.156 262.103 111.653 262.103 111.653C262.103 111.653 283.376 99.5981 285.858 98.2586C288.301 96.9192 290.152 96.0524 294.841 96.6828C299.489 97.2737 312.529 100.347 319.542 99.992C326.515 99.5981 328.642 95.4221 329.706 91.2067L305.359 81.3972Z" fill="#292669"/>
<path d="M259.502 112.48C259.424 111.968 258.124 112.717 257.257 112.441C256.351 112.165 255.642 111.811 255.405 110.944C255.169 109.88 255.72 109.329 256.351 108.817C257.178 108.186 257.375 106.965 256.666 106.216C256.561 106.085 256.443 105.993 256.311 105.941C255.484 105.665 255.051 106.374 253.278 106.059C251.269 105.744 249.732 104.641 247.959 103.813C245.832 102.828 245.005 101.292 243.744 100.977C242.602 100.701 241.892 100.977 240.671 103.144C240.671 104.798 241.853 106.61 243.468 108.068C244.926 109.407 247.172 110.944 248.472 111.929C249.772 112.914 251.387 116.302 254.46 117.365C257.454 115.396 259.502 112.48 259.502 112.48Z" fill="#292669"/>
<path d="M322.181 49.6833C320.724 49.9985 316.548 50.6682 314.775 52.5986C313.869 53.5441 305.359 82.6183 305.359 82.6183C305.359 82.6183 309.181 91.2066 329.706 91.2066L334.276 75.9998L335.97 52.3623L330.612 49.2894C330.612 49.2894 323.639 49.3682 322.181 49.6833Z" fill="#40BEDB"/>
<path d="M329.706 91.2065L334.276 75.9997L334.433 73.7147C333.803 74.4632 330.927 71.6267 330.927 71.6267C328.091 82.3424 313.081 81.5151 306.541 78.718C305.832 81.0817 305.359 82.6182 305.359 82.6182C305.359 82.6182 309.181 91.2065 329.706 91.2065Z" fill="#2CA5C6"/>
<path d="M330.888 40.2283L330.809 43.577C331.479 43.6164 332.07 43.1436 332.109 42.4739L332.267 40.7405L330.888 40.2283Z" fill="#2F256A"/>
<mask id="mask0_572_6298" style="mask-type:luminance" maskUnits="userSpaceOnUse" x="317" y="27" width="15" height="26">
<path d="M317.781 30.4344C317.462 34.0312 316.989 41.5913 318.202 44.4987C319.42 47.4062 322.169 47.5125 322.169 47.5125V51.7949C322.169 51.7949 325.924 53.9616 330.573 51.1606L330.923 39.6727C330.923 39.6727 331.818 31.6793 330.573 30.4344C329.332 29.1934 324.549 24.9899 317.781 30.4344Z" fill="white"/>
</mask>
<g mask="url(#mask0_572_6298)">
<path d="M321.906 47.8318C324.545 48.147 328.957 47.2409 329.706 42.3558" stroke="#EE9681" stroke-width="2" stroke-linecap="round"/>
<path d="M317.769 30.4188C317.454 34.0432 316.981 41.6073 318.202 44.4832C319.423 47.3985 322.181 47.5166 322.181 47.5166V51.8108C322.181 51.8108 325.924 53.9776 330.572 51.1411L330.927 39.6769C330.927 39.6769 331.833 31.6795 330.572 30.4188C329.351 29.1976 324.545 24.9822 317.769 30.4188Z" fill="#F8C6A3"/>
</g>
<path d="M334 38.5736C334 37.3917 333.015 36.4068 331.833 36.4068C330.651 36.4068 329.706 37.3917 329.706 38.5736C329.706 39.7554 330.651 40.7403 331.833 40.7403C333.015 40.7403 334 39.7554 334 38.5736Z" fill="#F8C6A3"/>
<path d="M332.424 36.5251C332.661 33.8067 332.858 29.7096 332.07 28.7641C331.282 27.8186 330.139 27.3064 327.894 26.8731C325.648 26.4397 321.078 25.8488 319.857 25.4942C318.675 25.1397 318.124 24.9821 318.242 25.77C318.36 26.5185 319.03 27.5822 319.03 27.5822C318.399 27.4246 317.217 27.0701 316.784 27.0701C316.351 27.0701 316.272 28.2913 316.784 29.2762C317.296 30.2611 318.557 31.7582 321.393 32.0339C324.269 32.3097 327.027 29.946 327.973 30.0247C328.918 30.1429 328.603 32.1521 328.642 33.4522C328.682 34.5947 329.588 35.1856 329.706 35.3038C329.732 35.3038 329.745 35.3169 329.745 35.3432V38.1403H331.045L331.164 36.722C331.479 36.5251 331.833 36.3675 332.424 36.5251Z" fill="#2F256A"/>
<path d="M325.215 37.116C325.215 36.8008 324.939 36.525 324.624 36.525C324.269 36.525 323.994 36.8008 323.994 37.116C323.994 37.4705 324.269 37.7463 324.624 37.7463C324.939 37.7463 325.215 37.4705 325.215 37.116Z" fill="#2F256A"/>
<path d="M320.093 36.8796C320.093 36.525 319.818 36.2493 319.463 36.2493C319.148 36.2493 318.872 36.525 318.872 36.8796C318.872 37.2342 319.148 37.5099 319.463 37.5099C319.818 37.5099 320.093 37.2342 320.093 36.8796Z" fill="#2F256A"/>
<path d="M325.215 34.5158C324.072 34.3189 323.442 34.9098 323.442 34.9098C324.545 34.9098 325.648 35.0674 326.712 35.5402C326.712 35.5402 326.397 34.7128 325.215 34.5158Z" fill="#2F256A"/>
<path d="M329.745 36.013C329.706 38.5737 328.682 42.1194 327.027 42.5133C325.372 42.9073 323.009 41.9618 321.59 41.883C320.133 41.8436 317.611 42.2769 317.533 41.1739C317.533 41.1739 317.296 43.9316 318.124 45.665C318.911 47.3984 320.566 47.9893 322.654 48.1863C324.742 48.4227 329.864 48.1075 330.848 42.08L330.888 40.5041L331.045 38.1404L329.745 36.013Z" fill="#2F256A"/>
<path d="M323.718 44.9164C324.86 44.6801 325.057 43.577 325.057 43.577C324.072 44.0497 323.009 44.4043 321.866 44.4437C321.866 44.4437 322.457 45.1528 323.718 44.9164Z" fill="#EE9681"/>
<path d="M318.951 33.9644C317.769 34.0432 317.296 34.7917 317.296 34.7917C318.36 34.516 319.502 34.3978 320.605 34.5947C320.605 34.5947 320.133 33.8856 318.951 33.9644Z" fill="#2F256A"/>
<path d="M321.551 34.9098C321.551 34.9098 320.684 41.0162 320.724 41.3313C320.763 41.6071 321.906 41.8829 321.906 41.8829" stroke="#EE9681" stroke-width="2" stroke-linecap="round"/>
<path d="M330.809 113.032C333.646 113.032 337.152 112.953 341.367 111.18C342.234 110.826 342.785 109.959 342.51 109.053C342.234 108.147 341.288 107.595 340.382 107.91C335.931 109.447 331.794 109.683 329.115 109.171C327.145 108.777 326.042 107.832 325.491 105.98C324.545 102.592 324.269 99.204 324.585 94.9492C324.663 94.0037 323.954 93.1764 323.009 93.137C322.063 93.0582 321.236 93.7674 321.157 94.7129C320.803 99.3616 321.118 103.144 322.181 106.926C323.127 110.195 324.585 112.205 328.367 112.835C328.997 112.953 330.1 113.032 330.809 113.032Z" fill="#BCE3F6"/>
<path d="M324.585 94.5946L321.197 94.634C321.197 94.6603 321.183 94.6865 321.157 94.7128C321.118 95.6583 321.078 96.5644 321.039 97.4311C322.273 97.4048 323.416 97.3786 324.466 97.3523C324.506 96.5644 324.545 95.7765 324.585 94.9492C324.611 94.8179 324.611 94.6997 324.585 94.5946Z" fill="#90C8EE"/>
<path d="M308.59 93.0187C308.59 93.0187 308.787 95.0279 310.441 95.3037C312.135 95.5794 315.051 95.934 320.133 95.9734C325.333 96.0128 328.918 95.7764 330.651 95.3824C332.188 95.0279 332.779 94.043 332.936 92.9005L308.59 93.0187Z" fill="#DEF1F8"/>
<path d="M304.571 87.5428C301.499 87.8974 301.42 91.5612 305.753 92.7037C310.126 93.8462 316.863 93.7674 321.827 93.7674C326.751 93.7674 334 93.4916 335.734 91.64C337.743 89.4732 335.537 87.0701 332.188 87.0701C332.188 87.0701 307.644 87.2277 304.571 87.5428Z" fill="#FE6061"/>
<path d="M302.483 88.9611C306.778 91.246 327.106 90.7339 331.242 89.946C335.931 89.0399 335.143 87.858 332.976 87.1489L302.483 88.9611Z" fill="#EE4652"/>
<path d="M302.996 84.7062C301.696 85.1002 300.671 85.7699 299.726 86.7154C299.214 87.1882 298.702 87.7397 298.268 88.2912C297.992 88.764 297.401 89.5913 297.401 90.1428C297.441 90.4186 297.638 90.655 297.874 90.852C298.78 91.4823 299.726 91.2065 300.711 90.8914C302.287 90.3792 303.784 90.4974 305.438 90.655C306.738 90.8126 308.314 91.1278 309.614 90.8126C311.269 90.4186 311.86 89.8277 312.923 89.6701C315.918 89.2367 318.793 89.5913 323.442 89.5913C330.258 89.5519 334.828 88.4882 335.734 88.2519C336.679 87.9761 337.467 86.9518 337.94 85.2578C338.452 83.5244 341.052 68.5539 341.052 68.5539L331.006 65.2841C331.006 65.2841 328.761 80.2151 328.721 80.5303C328.642 80.8848 328.17 81.0818 326.948 81.2788C325.727 81.5152 314.775 83.2092 313.554 83.3274C313.081 83.4062 311.466 83.5243 311.111 83.5637C309.851 83.6819 303.941 84.4698 302.996 84.7062Z" fill="#F8C6A3"/>
<path d="M331.006 65.2841L330.336 70.0116C330.336 70.0116 333.488 73.3208 340.225 73.0844L341.052 68.5539L331.006 65.2841Z" fill="#EE9681"/>
<path d="M331.242 61.3051C330.73 64.9689 330.139 69.2631 330.139 69.2631C330.139 69.2631 331.991 70.7995 335.064 71.4298C338.097 72.0208 341.052 71.745 341.052 71.745C341.052 71.745 342.313 63.6294 341.682 59.5323C341.091 55.4351 338.137 53.4653 335.97 52.3622C333.133 53.032 331.952 56.1048 331.242 61.3051Z" fill="#2CA5C6"/>
<path d="M263.009 18.994H261.039C260.566 18.994 260.172 19.3879 260.172 19.8607C260.172 20.3334 260.566 20.688 261.039 20.688H263.009" fill="#BCE3F6"/>
<path d="M211.006 127.766L208.406 134.345C208.406 134.345 208.603 137.221 210.73 137.576C212.818 137.891 214.946 133.557 214.946 133.557L216.719 129.972L211.006 127.766Z" fill="#EE9681"/>
<path d="M211.006 127.766L210.258 129.657C210.258 129.657 210.455 130.524 212.385 131.39C214.315 132.218 215.616 132.178 215.616 132.178L216.719 129.972L211.006 127.766Z" fill="#E76266"/>
<path d="M205.767 139.585C207.973 141.791 211.952 142.224 213.331 142.933C214.709 143.643 216.64 144.785 218.491 145.179C219.91 145.494 223.81 145.455 225.228 144.785C225.465 143.603 225.425 142.027 224.637 141.397C223.18 140.294 221.958 140.767 220.501 140.058C218.846 139.27 217.546 138.009 216.443 136.433C215.419 135.015 215.891 134.345 215.3 133.754C215.195 133.649 215.077 133.584 214.946 133.557C214 133.242 213.015 133.912 212.818 134.857C212.621 135.645 212.346 136.354 211.361 136.551C210.533 136.709 209.943 136.236 209.352 135.566C208.761 134.936 208.839 133.518 208.367 133.636C208.367 133.636 206.279 136.197 205.767 139.585Z" fill="#ADD9EA"/>
<path d="M211.834 59.8474C211.834 59.8474 218.019 95.8158 217.782 97.7068C217.507 99.5584 210.258 128.278 210.258 128.278C211.755 129.893 214.788 131.351 216.719 130.918C216.719 130.918 229.365 105.35 229.956 100.071C230.704 92.743 229.956 59.2565 229.956 59.2565L211.834 59.8474Z" fill="#2CA5C6"/>
<path d="M226.489 131.903L227.198 138.797C227.198 138.797 228.38 141.476 230.468 141.042C232.595 140.609 233.068 135.842 233.068 135.842L232.871 131.903H226.489Z" fill="#F8C6A3"/>
<path d="M226.489 131.903L226.725 134.384C226.725 134.384 229.759 135.606 232.989 134.069L232.871 131.903H226.489Z" fill="#EE9681"/>
<path d="M212.661 60.2808C212.661 60.2808 220.895 95.422 221.367 98.5736C221.801 101.686 226.371 131.666 226.253 132.493C230.665 134.069 233.304 132.651 233.304 132.651C233.304 132.651 234.92 102.04 234.88 97.313C234.841 92.5855 233.659 59.6505 233.659 59.6505L212.661 60.2808Z" fill="#40BEDB"/>
<path d="M227.08 144.824C229.877 146.164 233.226 144.982 234.762 145.179C236.298 145.415 238.82 145.888 240.711 145.967C242.799 146.085 245.557 145.927 246.66 144.824C247.29 142.5 246.581 141.476 245.675 141.003C244.572 140.491 242.799 140.688 240.553 140.057C238.741 139.585 237.047 139.151 235.471 138.048C234.053 137.024 234.25 136.275 233.501 135.921C233.37 135.842 233.226 135.816 233.068 135.842C232.083 135.842 231.374 136.827 231.532 137.812C231.65 138.6 231.61 139.348 230.744 139.861C229.995 140.333 229.286 140.057 228.498 139.624C227.75 139.23 227.356 137.891 226.962 138.166C226.962 138.166 226.371 141.515 227.08 144.824Z" fill="#BCE3F6"/>
<path d="M213.646 33.6099C213.672 34.3453 213.777 35.0807 213.961 35.8161C214.67 38.5344 216.364 45.9014 214.946 48.9349C208.603 62.8023 208.997 85.8882 208.997 85.8882C210.494 87.3853 213.685 88.5672 217.585 89.3157L219.634 77.9303L221.052 90.1824C228.577 90.7733 238.544 89.6309 242.129 86.3216C242.365 74.2271 237.008 56.9323 236.732 55.2383C236.456 53.7806 234.407 48.344 234.447 47.5954C234.486 45.9802 235.235 42.474 235.235 42.474C235.235 42.474 237.874 39.4011 237.559 35.9343C237.362 33.4129 236.456 31.7977 235.117 29.3945C233.58 26.6368 233.226 25.652 231.019 24.7852C228.774 23.8791 224.677 23.2882 222.313 23.7609C220.737 24.0761 217.94 24.8246 215.813 25.7307C214.316 26.3611 213.37 27.8581 213.449 29.4733L213.646 33.6099Z" fill="#40BEDB"/>
<path d="M214.946 48.9349C208.603 62.8022 208.997 85.8882 208.997 85.8882C210.337 87.2277 213.134 88.3307 216.561 89.0793C215.852 88.6853 213.449 86.5973 213.764 77.0241C214.158 65.7963 218.098 59.2566 222.707 59.5324C229.759 60.0051 237.126 56.8929 237.126 56.8929L236.298 53.8594C236.298 53.8594 227.395 54.7655 224.164 52.7169C220.973 50.6289 213.803 34.9099 213.764 34.7917C213.817 35.1332 213.882 35.4746 213.961 35.8161C214.67 38.5344 216.364 45.9014 214.946 48.9349Z" fill="#40BEDB"/>
<path d="M221.249 64.063L213.173 63.7084C213.173 63.7084 212.07 73.5968 213.055 74.3059C214.631 75.3696 218.688 75.409 220.422 74.8969C221.643 74.5029 221.249 64.063 221.249 64.063Z" fill="#40BEDB"/>
<path d="M220.422 74.8968C221.092 74.6604 221.446 70.9178 221.328 68.5934C220.816 70.7602 220.225 74.0301 218.373 74.1089C215.852 74.1877 213.173 74.1483 212.661 72.4936C212.7 73.4391 212.818 74.1483 213.055 74.3058C214.631 75.3695 218.688 75.4089 220.422 74.8968Z" fill="#40BEDB"/>
<path d="M221.249 25.1398C221.249 25.1398 219.713 25.3368 219.634 26.1641C219.555 27.3066 222.037 31.0098 228.813 36.21C229.365 36.013 231.689 26.2429 229.05 25.258L221.249 25.1398Z" fill="#40BEDB"/>
<path d="M213.646 33.6099C213.672 34.3453 213.777 35.0807 213.961 35.8161C214.67 38.5344 216.364 45.9014 214.946 48.9349C208.603 62.8023 208.997 85.8882 208.997 85.8882C210.494 87.3853 213.685 88.5672 217.585 89.3157L219.634 77.9303L221.052 90.1824C228.577 90.7733 238.544 89.6309 242.129 86.3216C242.365 74.2271 237.008 56.9323 236.732 55.2383C236.456 53.7806 234.407 48.344 234.447 47.5954C234.486 45.9802 235.235 42.474 235.235 42.474C235.235 42.474 237.874 39.4011 237.559 35.9343C237.362 33.4129 236.456 31.7977 235.117 29.3945C233.58 26.6368 233.226 25.652 231.019 24.7852C228.774 23.8791 224.677 23.2882 222.313 23.7609C220.737 24.0761 217.94 24.8246 215.813 25.7307C214.316 26.3611 213.37 27.8581 213.449 29.4733L213.646 33.6099Z" fill="#DEF1F8"/>
<path d="M214.946 48.9349C208.603 62.8022 208.997 85.8882 208.997 85.8882C210.337 87.2277 213.134 88.3307 216.561 89.0793C215.852 88.6853 213.449 86.5973 213.764 77.0241C214.158 65.7963 218.098 59.2566 222.707 59.5324C229.759 60.0051 237.126 56.8929 237.126 56.8929L236.298 53.8594C236.298 53.8594 227.395 54.7655 224.164 52.7169C220.973 50.6289 213.803 34.9099 213.764 34.7917C213.817 35.1332 213.882 35.4746 213.961 35.8161C214.67 38.5344 216.364 45.9014 214.946 48.9349Z" fill="#BCE3F6"/>
<path d="M221.249 64.063L213.173 63.7084C213.173 63.7084 212.07 73.5968 213.055 74.3059C214.631 75.3696 218.688 75.409 220.422 74.8969C221.643 74.5029 221.249 64.063 221.249 64.063Z" fill="#DEF1F8"/>
<path d="M220.422 74.8968C221.092 74.6604 221.446 70.9178 221.328 68.5934C220.816 70.7602 220.225 74.0301 218.373 74.1089C215.852 74.1877 213.173 74.1483 212.661 72.4936C212.7 73.4391 212.818 74.1483 213.055 74.3058C214.631 75.3695 218.688 75.4089 220.422 74.8968Z" fill="#BCE3F6"/>
<path d="M221.249 25.1398C221.249 25.1398 219.713 25.3368 219.634 26.1641C219.555 27.3066 222.037 31.0098 228.813 36.21C229.365 36.013 231.689 26.2429 229.05 25.258L221.249 25.1398Z" fill="#40BEDB"/>
<path d="M216.167 42.9073C216.167 42.9073 220.895 52.5986 221.84 53.9775C222.746 55.3563 224.046 56.5382 224.952 56.4988C225.858 56.4594 228.262 56.5382 234.407 54.4896C240.553 52.4804 243.862 51.141 247.644 49.6046C251.426 48.0681 253.081 46.9256 253.869 45.7437C254.617 44.6013 256.548 44.4831 257.769 43.3406C259.148 42.0405 257.533 41.8436 257.533 41.8436C257.533 41.8436 253.357 42.7103 251.072 43.0648C250.205 43.2224 249.457 43.2618 248.905 43.3012C248.393 43.3012 247.999 42.9072 248.038 42.4345C248.091 41.9617 248.17 41.3183 248.275 40.5041C248.472 38.6919 247.329 37.6676 246.62 37.6282C246.069 37.5888 246.147 39.2434 245.517 40.6617C244.965 41.9617 244.453 42.8285 243.941 44.0891C243.39 45.3498 241.932 45.8619 240.829 46.2559C238.583 47.0438 230.389 48.8954 229.247 49.0924C228.065 49.2762 227.395 49.2237 227.237 48.9348C227.08 48.659 222.943 38.3767 222.943 38.3767L216.167 42.9073Z" fill="#F8C6A3"/>
<path d="M216.01 25.77C213.409 26.2428 211.794 28.8429 212.07 32.5067C212.306 36.1311 216.167 46.768 216.167 46.768C216.167 46.768 218.767 46.4529 221.289 45.3104C223.81 44.2073 225.11 42.5527 225.11 42.5527C225.11 42.5527 222.273 35.1462 221.131 32.0734C219.516 27.7004 218.57 25.8094 216.01 25.77Z" fill="#DEF1F8"/>
<path d="M226.292 19.4274V1.50223C222.47 0.399145 219.949 0.832505 217.467 3.94478C215.182 6.82068 217.113 13.2422 218.098 15.8029C219.082 18.3637 220.067 19.2698 221.092 19.4274H226.292Z" fill="#2F256A"/>
<mask id="mask1_572_6298" style="mask-type:luminance" maskUnits="userSpaceOnUse" x="219" y="3" width="15" height="25">
<path d="M220.335 6.35967C219.169 7.58883 220.938 12.0957 220.938 12.0957L221.253 25.6361C226.304 29.0635 228.092 25.7346 228.092 25.7346L228.12 21.6965C228.12 21.6965 231.646 21.795 232.863 18.4069C234.325 14.3295 233.541 9.13315 232.658 6.01693C225.993 0.950622 221.497 5.12658 220.335 6.35967Z" fill="white"/>
</mask>
<g mask="url(#mask1_572_6298)">
<path d="M229.207 22.0275C226.449 22.1851 223.258 21.1214 221.919 16.4727" stroke="#EE9681" stroke-width="2" stroke-linecap="round"/>
<path d="M220.343 6.34768C219.161 7.56895 220.934 12.0995 220.934 12.0995L221.249 25.6517C226.292 29.0791 228.104 25.7305 228.104 25.7305V21.7121C228.104 21.7121 231.65 21.7909 232.871 18.4028C234.328 14.3451 233.541 9.14479 232.674 6.03252C225.976 0.950449 221.485 5.12641 220.343 6.34768Z" fill="#F8C6A3"/>
</g>
<path d="M220.225 15.7636C221.367 15.7242 222.274 14.7393 222.234 13.5968C222.195 12.4543 221.249 11.5482 220.107 11.5876C218.964 11.627 218.058 12.5725 218.098 13.715C218.137 14.8574 219.082 15.7636 220.225 15.7636Z" fill="#F8C6A3"/>
<path d="M229.522 15.8028C229.522 15.8028 230.625 15.724 230.665 15.4483C230.665 15.1725 229.837 10.7208 229.837 10.7208" stroke="#EE9681" stroke-width="2" stroke-linecap="round"/>
<path d="M226.804 12.8088C227.119 12.8088 227.395 12.5331 227.395 12.1785C227.356 11.8634 227.08 11.5876 226.765 11.5876C226.41 11.5876 226.174 11.8633 226.174 12.2179C226.174 12.5331 226.45 12.8088 226.804 12.8088Z" fill="#2F256A"/>
<path d="M232.319 12.533C232.674 12.533 232.91 12.2572 232.91 11.9027C232.91 11.5875 232.635 11.3117 232.28 11.3511C231.965 11.3511 231.689 11.6269 231.689 11.9421C231.729 12.2966 232.004 12.533 232.319 12.533Z" fill="#2F256A"/>
<path d="M225.071 11.0359C225.859 10.6419 226.686 10.3661 227.553 10.3661C227.553 10.3661 227.001 9.73581 226.134 9.89339C225.228 10.0904 225.071 11.0359 225.071 11.0359Z" fill="#2F256A"/>
<path d="M231.059 10.13C231.926 10.1694 232.792 10.3269 233.541 10.7209C233.541 10.7209 233.383 9.93297 232.516 9.6572C231.65 9.38143 231.059 10.13 231.059 10.13Z" fill="#2F256A"/>
<path d="M230.074 17.7727C228.971 17.8909 227.907 17.6939 226.922 17.3394C226.922 17.3394 227.001 18.5212 228.34 18.6788C229.877 18.8364 230.074 17.7727 230.074 17.7727Z" fill="#E76266"/>
<path d="M220.501 11.5876L220.895 14.0301C221.919 13.8725 222.274 13.5574 222.234 12.5331L222.116 11.3512C222.116 11.3512 223.692 10.9178 224.834 9.77536C226.765 7.80557 225.465 3.19624 225.465 3.19624C225.465 3.19624 224.204 2.44772 221.328 4.5751C218.492 6.66308 219.634 10.5633 220.501 11.5876Z" fill="#2F256A"/>
<path d="M225.701 4.45688C225.701 4.45688 227.119 9.61774 233.304 9.26318C233.304 9.26318 233.62 11.3906 233.659 11.9815C233.659 11.9815 235.117 11.4693 235.983 8.9874C236.889 6.38727 235.826 3.35379 233.738 1.69916C229.956 -1.33432 225.228 0.280907 224.165 2.01433L224.952 3.90535L225.701 4.45688Z" fill="#2F256A"/>
<path d="M227.789 30.6553C228.892 29.9462 229.404 27.4248 229.05 25.2581L227.71 24.6671L221.249 25.1399C221.249 25.1399 220.658 25.2975 220.58 25.7702C220.501 26.4006 223.928 29.8674 227.789 30.6553Z" fill="#F8C6A3"/>
</g>
<defs>
<clipPath id="clip0_572_6298">
<rect width="350" height="144" rx="12" fill="white"/>
</clipPath>
<clipPath id="clip1_572_6298">
<rect y="12" width="350" height="132" rx="12" fill="white"/>
</clipPath>
</defs>
</svg>
