<svg width="25" height="24" viewBox="0 0 25 24" fill="none" xmlns="http://www.w3.org/2000/svg">
<path d="M12.6603 7.09333C14.1626 7.09333 15.1759 7.74222 15.7537 8.28444L18.0114 6.08C16.6248 4.79111 14.8203 4 12.6603 4C9.53145 4 6.82923 5.79556 5.51367 8.40889L8.10034 10.4178C8.74923 8.48889 10.5448 7.09333 12.6603 7.09333Z" fill="#EA4335"/>
<path d="M20.3402 12.1775C20.3402 11.5198 20.2868 11.0398 20.1713 10.542H12.6602V13.5109H17.069C16.9802 14.2487 16.5002 15.3598 15.4335 16.1064L17.9579 18.062C19.469 16.6664 20.3402 14.6131 20.3402 12.1775Z" fill="#4285F4"/>
<path d="M8.10905 13.582C7.94016 13.0842 7.84238 12.5509 7.84238 11.9998C7.84238 11.4487 7.94016 10.9154 8.10016 10.4176L5.51349 8.40869C4.97127 9.49314 4.66016 10.7109 4.66016 11.9998C4.66016 13.2887 4.97127 14.5065 5.51349 15.5909L8.10905 13.582Z" fill="#FBBC05"/>
<path d="M12.6602 19.9998C14.8202 19.9998 16.6336 19.2887 17.958 18.062L15.4336 16.1065C14.758 16.5776 13.8513 16.9065 12.6602 16.9065C10.5447 16.9065 8.74913 15.5109 8.10913 13.582L5.52246 15.5909C6.83802 18.2043 9.53135 19.9998 12.6602 19.9998Z" fill="#34A853"/>
</svg>
