<svg width="350" height="127" viewBox="0 0 350 127" fill="none" xmlns="http://www.w3.org/2000/svg">
<g clip-path="url(#clip0_633_5065)">
<rect width="350" height="127" rx="12" fill="#EA3A60"/>
<path d="M21.844 20.2L18.372 26.038V30H17.07V26.024L13.612 20.2H15.068L17.728 24.792L20.388 20.2H21.844ZM27.3867 29.118C26.668 29.8273 25.7954 30.182 24.7687 30.182C23.742 30.182 22.8694 29.8273 22.1507 29.118C21.4414 28.4087 21.0867 27.536 21.0867 26.5C21.0867 25.464 21.4414 24.5913 22.1507 23.882C22.8694 23.1727 23.742 22.818 24.7687 22.818C25.7954 22.818 26.668 23.1727 27.3867 23.882C28.1054 24.5913 28.4647 25.464 28.4647 26.5C28.4647 27.536 28.1054 28.4087 27.3867 29.118ZM24.7687 28.992C25.4687 28.992 26.0567 28.754 26.5327 28.278C27.0087 27.802 27.2467 27.2093 27.2467 26.5C27.2467 25.7907 27.0087 25.198 26.5327 24.722C26.0567 24.246 25.4687 24.008 24.7687 24.008C24.078 24.008 23.4947 24.246 23.0187 24.722C22.5427 25.198 22.3047 25.7907 22.3047 26.5C22.3047 27.2093 22.5427 27.802 23.0187 28.278C23.4947 28.754 24.078 28.992 24.7687 28.992ZM34.7306 23H35.9486V30H34.7306V28.992C34.2359 29.7853 33.4799 30.182 32.4626 30.182C31.6412 30.182 30.9832 29.9253 30.4886 29.412C29.9939 28.8893 29.7466 28.1847 29.7466 27.298V23H30.9646V27.228C30.9646 27.7973 31.1186 28.2407 31.4266 28.558C31.7346 28.866 32.1592 29.02 32.7006 29.02C33.3072 29.02 33.7972 28.8333 34.1706 28.46C34.5439 28.0773 34.7306 27.494 34.7306 26.71V23ZM39.0209 24.176C39.4222 23.308 40.1502 22.874 41.2049 22.874V24.148C40.6076 24.12 40.0942 24.2787 39.6649 24.624C39.2356 24.9693 39.0209 25.5247 39.0209 26.29V30H37.8029V23H39.0209V24.176ZM49.5787 20.2C50.484 20.2 51.2353 20.5033 51.8327 21.11C52.4393 21.7073 52.7427 22.454 52.7427 23.35C52.7427 24.2367 52.4393 24.9833 51.8327 25.59C51.2353 26.1967 50.484 26.5 49.5787 26.5H47.3247V30H46.0227V20.2H49.5787ZM49.5787 25.282C50.12 25.282 50.568 25.1 50.9227 24.736C51.2773 24.3627 51.4547 23.9007 51.4547 23.35C51.4547 22.79 51.2773 22.328 50.9227 21.964C50.568 21.6 50.12 21.418 49.5787 21.418H47.3247V25.282H49.5787ZM59.5293 29.118C58.8106 29.8273 57.9379 30.182 56.9113 30.182C55.8846 30.182 55.0119 29.8273 54.2933 29.118C53.5839 28.4087 53.2293 27.536 53.2293 26.5C53.2293 25.464 53.5839 24.5913 54.2933 23.882C55.0119 23.1727 55.8846 22.818 56.9113 22.818C57.9379 22.818 58.8106 23.1727 59.5293 23.882C60.2479 24.5913 60.6073 25.464 60.6073 26.5C60.6073 27.536 60.2479 28.4087 59.5293 29.118ZM56.9113 28.992C57.6113 28.992 58.1993 28.754 58.6753 28.278C59.1513 27.802 59.3893 27.2093 59.3893 26.5C59.3893 25.7907 59.1513 25.198 58.6753 24.722C58.1993 24.246 57.6113 24.008 56.9113 24.008C56.2206 24.008 55.6373 24.246 55.1613 24.722C54.6853 25.198 54.4473 25.7907 54.4473 26.5C54.4473 27.2093 54.6853 27.802 55.1613 28.278C55.6373 28.754 56.2206 28.992 56.9113 28.992ZM62.6591 21.726C62.4258 21.726 62.2298 21.6467 62.0711 21.488C61.9125 21.3293 61.8331 21.138 61.8331 20.914C61.8331 20.69 61.9125 20.4987 62.0711 20.34C62.2298 20.172 62.4258 20.088 62.6591 20.088C62.8831 20.088 63.0745 20.172 63.2331 20.34C63.3918 20.4987 63.4711 20.69 63.4711 20.914C63.4711 21.138 63.3918 21.3293 63.2331 21.488C63.0745 21.6467 62.8831 21.726 62.6591 21.726ZM62.0431 30V23H63.2611V30H62.0431ZM68.6053 22.818C69.4266 22.818 70.0846 23.0793 70.5793 23.602C71.074 24.1153 71.3213 24.8153 71.3213 25.702V30H70.1033V25.772C70.1033 25.2027 69.9493 24.764 69.6413 24.456C69.3333 24.1387 68.9086 23.98 68.3673 23.98C67.7606 23.98 67.2706 24.1713 66.8973 24.554C66.524 24.9273 66.3373 25.506 66.3373 26.29V30H65.1193V23H66.3373V24.008C66.832 23.2147 67.588 22.818 68.6053 22.818ZM76.8297 24.176H74.9677V27.97C74.9677 28.3153 75.033 28.5627 75.1637 28.712C75.3037 28.852 75.5137 28.9267 75.7937 28.936C76.0737 28.936 76.419 28.9267 76.8297 28.908V30C75.7657 30.14 74.9863 30.056 74.4917 29.748C73.997 29.4307 73.7497 28.838 73.7497 27.97V24.176H72.3637V23H73.7497V21.404L74.9677 21.04V23H76.8297V24.176Z" fill="white"/>
<path d="M14.04 57V54.94L18.82 50.02C19.8867 48.9 20.42 47.9667 20.42 47.22C20.42 46.6733 20.2467 46.2333 19.9 45.9C19.5667 45.5667 19.1333 45.4 18.6 45.4C17.5467 45.4 16.7667 45.9467 16.26 47.04L13.94 45.68C14.38 44.72 15.0133 43.9867 15.84 43.48C16.6667 42.9733 17.5733 42.72 18.56 42.72C19.8267 42.72 20.9133 43.12 21.82 43.92C22.7267 44.7067 23.18 45.7733 23.18 47.12C23.18 48.5733 22.4133 50.0667 20.88 51.6L18.14 54.34H23.4V57H14.04ZM29.4711 48.1C30.8178 48.1 31.9511 48.5067 32.8711 49.32C33.7911 50.12 34.2511 51.24 34.2511 52.68C34.2511 54.12 33.7644 55.2467 32.7911 56.06C31.8311 56.8733 30.6511 57.28 29.2511 57.28C28.1178 57.28 27.1178 57.0267 26.2511 56.52C25.3844 56.0133 24.7578 55.2667 24.3711 54.28L26.7311 52.9C27.0778 54.02 27.9178 54.58 29.2511 54.58C29.9578 54.58 30.5044 54.4133 30.8911 54.08C31.2911 53.7333 31.4911 53.2667 31.4911 52.68C31.4911 52.1067 31.2978 51.6467 30.9111 51.3C30.5244 50.9533 29.9978 50.78 29.3311 50.78H25.0911L25.6511 43H33.5911V45.58H28.2111L28.0311 48.1H29.4711ZM40.8938 57.28C39.1471 57.28 37.7738 56.62 36.7738 55.3C35.7871 53.9667 35.2938 52.2 35.2938 50C35.2938 47.8 35.7871 46.04 36.7738 44.72C37.7738 43.3867 39.1471 42.72 40.8938 42.72C42.6538 42.72 44.0271 43.3867 45.0138 44.72C46.0004 46.04 46.4938 47.8 46.4938 50C46.4938 52.2 46.0004 53.9667 45.0138 55.3C44.0271 56.62 42.6538 57.28 40.8938 57.28ZM38.7738 53.42C39.2538 54.1933 39.9604 54.58 40.8938 54.58C41.8271 54.58 42.5338 54.1867 43.0138 53.4C43.5071 52.6133 43.7538 51.48 43.7538 50C43.7538 48.5067 43.5071 47.3667 43.0138 46.58C42.5338 45.7933 41.8271 45.4 40.8938 45.4C39.9604 45.4 39.2538 45.7933 38.7738 46.58C38.2938 47.3667 38.0538 48.5067 38.0538 50C38.0538 51.4933 38.2938 52.6333 38.7738 53.42ZM58.7114 43C60.0581 43 61.1914 43.4533 62.1114 44.36C63.0314 45.2667 63.4914 46.38 63.4914 47.7C63.4914 49.02 63.0314 50.1333 62.1114 51.04C61.1914 51.9467 60.0581 52.4 58.7114 52.4H56.2514V57H53.4914V43H58.7114ZM58.7114 49.82C59.2981 49.82 59.7847 49.62 60.1714 49.22C60.5581 48.8067 60.7514 48.3 60.7514 47.7C60.7514 47.0867 60.5581 46.58 60.1714 46.18C59.7847 45.78 59.2981 45.58 58.7114 45.58H56.2514V49.82H58.7114ZM73.0242 55.76C71.9976 56.7733 70.7442 57.28 69.2642 57.28C67.7842 57.28 66.5309 56.7733 65.5042 55.76C64.4909 54.7333 63.9842 53.48 63.9842 52C63.9842 50.52 64.4909 49.2733 65.5042 48.26C66.5309 47.2333 67.7842 46.72 69.2642 46.72C70.7442 46.72 71.9976 47.2333 73.0242 48.26C74.0509 49.2733 74.5642 50.52 74.5642 52C74.5642 53.48 74.0509 54.7333 73.0242 55.76ZM67.3242 53.98C67.8442 54.5 68.4909 54.76 69.2642 54.76C70.0376 54.76 70.6842 54.5 71.2042 53.98C71.7242 53.46 71.9842 52.8 71.9842 52C71.9842 51.2 71.7242 50.54 71.2042 50.02C70.6842 49.5 70.0376 49.24 69.2642 49.24C68.4909 49.24 67.8442 49.5 67.3242 50.02C66.8176 50.54 66.5642 51.2 66.5642 52C66.5642 52.8 66.8176 53.46 67.3242 53.98ZM77.6592 45.8C77.2326 45.8 76.8592 45.6467 76.5392 45.34C76.2326 45.02 76.0792 44.6467 76.0792 44.22C76.0792 43.7933 76.2326 43.42 76.5392 43.1C76.8592 42.78 77.2326 42.62 77.6592 42.62C78.0992 42.62 78.4726 42.78 78.7792 43.1C79.0992 43.42 79.2592 43.7933 79.2592 44.22C79.2592 44.6467 79.0992 45.02 78.7792 45.34C78.4726 45.6467 78.0992 45.8 77.6592 45.8ZM76.3792 57V47H78.9592V57H76.3792ZM86.8806 46.72C87.974 46.72 88.874 47.0867 89.5806 47.82C90.3006 48.5533 90.6606 49.5667 90.6606 50.86V57H88.0806V51.18C88.0806 50.5133 87.9006 50.0067 87.5406 49.66C87.1806 49.3 86.7006 49.12 86.1006 49.12C85.434 49.12 84.9006 49.3267 84.5006 49.74C84.1006 50.1533 83.9006 50.7733 83.9006 51.6V57H81.3206V47H83.9006V48.12C84.5273 47.1867 85.5206 46.72 86.8806 46.72ZM98.5836 49.48H96.3236V53.64C96.3236 53.9867 96.4103 54.24 96.5836 54.4C96.7569 54.56 97.0103 54.6533 97.3436 54.68C97.6769 54.6933 98.0903 54.6867 98.5836 54.66V57C96.8103 57.2 95.5569 57.0333 94.8236 56.5C94.1036 55.9667 93.7436 55.0133 93.7436 53.64V49.48H92.0036V47H93.7436V44.98L96.3236 44.2V47H98.5836V49.48ZM102.568 49.84C102.568 50.1067 102.741 50.3267 103.088 50.5C103.448 50.66 103.881 50.8067 104.388 50.94C104.894 51.06 105.401 51.22 105.908 51.42C106.414 51.6067 106.841 51.9267 107.188 52.38C107.548 52.8333 107.728 53.4 107.728 54.08C107.728 55.1067 107.341 55.9 106.568 56.46C105.808 57.0067 104.854 57.28 103.708 57.28C101.654 57.28 100.254 56.4867 99.5078 54.9L101.748 53.64C102.041 54.5067 102.694 54.94 103.708 54.94C104.628 54.94 105.088 54.6533 105.088 54.08C105.088 53.8133 104.908 53.6 104.548 53.44C104.201 53.2667 103.774 53.1133 103.268 52.98C102.761 52.8467 102.254 52.68 101.748 52.48C101.241 52.28 100.808 51.9667 100.448 51.54C100.101 51.1 99.9278 50.5533 99.9278 49.9C99.9278 48.9133 100.288 48.14 101.008 47.58C101.741 47.0067 102.648 46.72 103.728 46.72C104.541 46.72 105.281 46.9067 105.948 47.28C106.614 47.64 107.141 48.16 107.528 48.84L105.328 50.04C105.008 49.36 104.474 49.02 103.728 49.02C103.394 49.02 103.114 49.0933 102.888 49.24C102.674 49.3867 102.568 49.5867 102.568 49.84Z" fill="white"/>
<rect x="16" y="80" width="318" height="6" rx="3" fill="white" fill-opacity="0.5"/>
<rect x="16" y="80" width="159" height="6" rx="3" fill="white"/>
<path d="M20.848 106.156C19.576 106.156 18.524 105.736 17.692 104.896C16.868 104.056 16.456 103.024 16.456 101.8C16.456 100.576 16.868 99.544 17.692 98.704C18.524 97.864 19.576 97.444 20.848 97.444C21.616 97.444 22.32 97.628 22.96 97.996C23.608 98.364 24.112 98.86 24.472 99.484L23.5 100.048C23.26 99.584 22.9 99.216 22.42 98.944C21.948 98.664 21.424 98.524 20.848 98.524C19.88 98.524 19.088 98.836 18.472 99.46C17.864 100.084 17.56 100.864 17.56 101.8C17.56 102.728 17.864 103.504 18.472 104.128C19.088 104.752 19.88 105.064 20.848 105.064C21.424 105.064 21.948 104.928 22.42 104.656C22.9 104.376 23.26 104.008 23.5 103.552L24.472 104.104C24.12 104.728 23.62 105.228 22.972 105.604C22.324 105.972 21.616 106.156 20.848 106.156ZM30.6685 105.244C30.0525 105.852 29.3045 106.156 28.4245 106.156C27.5445 106.156 26.7965 105.852 26.1805 105.244C25.5725 104.636 25.2685 103.888 25.2685 103C25.2685 102.112 25.5725 101.364 26.1805 100.756C26.7965 100.148 27.5445 99.844 28.4245 99.844C29.3045 99.844 30.0525 100.148 30.6685 100.756C31.2845 101.364 31.5925 102.112 31.5925 103C31.5925 103.888 31.2845 104.636 30.6685 105.244ZM28.4245 105.136C29.0245 105.136 29.5285 104.932 29.9365 104.524C30.3445 104.116 30.5485 103.608 30.5485 103C30.5485 102.392 30.3445 101.884 29.9365 101.476C29.5285 101.068 29.0245 100.864 28.4245 100.864C27.8325 100.864 27.3325 101.068 26.9245 101.476C26.5165 101.884 26.3125 102.392 26.3125 103C26.3125 103.608 26.5165 104.116 26.9245 104.524C27.3325 104.932 27.8325 105.136 28.4245 105.136ZM32.8232 106V97.24H33.8673V106H32.8232ZM35.46 106V97.24H36.504V106H35.46ZM38.8287 103.48C38.9327 104.016 39.1767 104.432 39.5607 104.728C39.9527 105.024 40.4327 105.172 41.0007 105.172C41.7927 105.172 42.3687 104.88 42.7287 104.296L43.6167 104.8C43.0327 105.704 42.1527 106.156 40.9767 106.156C40.0247 106.156 39.2487 105.86 38.6487 105.268C38.0567 104.668 37.7607 103.912 37.7607 103C37.7607 102.096 38.0527 101.344 38.6367 100.744C39.2207 100.144 39.9767 99.844 40.9047 99.844C41.7847 99.844 42.5007 100.156 43.0527 100.78C43.6127 101.396 43.8927 102.14 43.8927 103.012C43.8927 103.164 43.8807 103.32 43.8567 103.48H38.8287ZM40.9047 100.828C40.3447 100.828 39.8807 100.988 39.5127 101.308C39.1447 101.62 38.9167 102.04 38.8287 102.568H42.8367C42.7487 102 42.5247 101.568 42.1647 101.272C41.8047 100.976 41.3847 100.828 40.9047 100.828ZM47.9011 106.156C46.9971 106.156 46.2451 105.856 45.6451 105.256C45.0451 104.648 44.7451 103.896 44.7451 103C44.7451 102.104 45.0451 101.356 45.6451 100.756C46.2451 100.148 46.9971 99.844 47.9011 99.844C48.4931 99.844 49.0251 99.988 49.4971 100.276C49.9691 100.556 50.3211 100.936 50.5531 101.416L49.6771 101.92C49.5251 101.6 49.2891 101.344 48.9691 101.152C48.6571 100.96 48.3011 100.864 47.9011 100.864C47.3011 100.864 46.7971 101.068 46.3891 101.476C45.9891 101.884 45.7891 102.392 45.7891 103C45.7891 103.6 45.9891 104.104 46.3891 104.512C46.7971 104.92 47.3011 105.124 47.9011 105.124C48.3011 105.124 48.6611 105.032 48.9811 104.848C49.3011 104.656 49.5451 104.4 49.7131 104.08L50.6011 104.596C50.3451 105.068 49.9771 105.448 49.4971 105.736C49.0171 106.016 48.4851 106.156 47.9011 106.156ZM54.8958 101.008H53.2998V104.26C53.2998 104.556 53.3558 104.768 53.4678 104.896C53.5878 105.016 53.7678 105.08 54.0078 105.088C54.2478 105.088 54.5438 105.08 54.8958 105.064V106C53.9838 106.12 53.3158 106.048 52.8918 105.784C52.4678 105.512 52.2558 105.004 52.2558 104.26V101.008H51.0678V100H52.2558V98.632L53.2998 98.32V100H54.8958V101.008ZM58.699 106V104.764L61.567 101.812C62.207 101.14 62.527 100.58 62.527 100.132C62.527 99.804 62.423 99.54 62.215 99.34C62.015 99.14 61.755 99.04 61.435 99.04C60.803 99.04 60.335 99.368 60.031 100.024L58.639 99.208C58.903 98.632 59.283 98.192 59.779 97.888C60.275 97.584 60.819 97.432 61.411 97.432C62.171 97.432 62.823 97.672 63.367 98.152C63.911 98.624 64.183 99.264 64.183 100.072C64.183 100.944 63.723 101.84 62.803 102.76L61.159 104.404H64.315V106H58.699ZM67.9577 100.66C68.7657 100.66 69.4457 100.904 69.9977 101.392C70.5497 101.872 70.8257 102.544 70.8257 103.408C70.8257 104.272 70.5337 104.948 69.9497 105.436C69.3737 105.924 68.6657 106.168 67.8257 106.168C67.1457 106.168 66.5457 106.016 66.0257 105.712C65.5057 105.408 65.1297 104.96 64.8977 104.368L66.3137 103.54C66.5217 104.212 67.0257 104.548 67.8257 104.548C68.2497 104.548 68.5777 104.448 68.8097 104.248C69.0497 104.04 69.1697 103.76 69.1697 103.408C69.1697 103.064 69.0537 102.788 68.8217 102.58C68.5897 102.372 68.2737 102.268 67.8737 102.268H65.3297L65.6657 97.6H70.4297V99.148H67.2017L67.0937 100.66H67.9577ZM74.8113 106.168C73.7633 106.168 72.9393 105.772 72.3393 104.98C71.7473 104.18 71.4513 103.12 71.4513 101.8C71.4513 100.48 71.7473 99.424 72.3393 98.632C72.9393 97.832 73.7633 97.432 74.8113 97.432C75.8673 97.432 76.6913 97.832 77.2833 98.632C77.8753 99.424 78.1713 100.48 78.1713 101.8C78.1713 103.12 77.8753 104.18 77.2833 104.98C76.6913 105.772 75.8673 106.168 74.8113 106.168ZM73.5393 103.852C73.8273 104.316 74.2513 104.548 74.8113 104.548C75.3713 104.548 75.7953 104.312 76.0833 103.84C76.3793 103.368 76.5273 102.688 76.5273 101.8C76.5273 100.904 76.3793 100.22 76.0833 99.748C75.7953 99.276 75.3713 99.04 74.8113 99.04C74.2513 99.04 73.8273 99.276 73.5393 99.748C73.2513 100.22 73.1073 100.904 73.1073 101.8C73.1073 102.696 73.2513 103.38 73.5393 103.852ZM85.5018 97.6C86.3098 97.6 86.9898 97.872 87.5418 98.416C88.0938 98.96 88.3698 99.628 88.3698 100.42C88.3698 101.212 88.0938 101.88 87.5418 102.424C86.9898 102.968 86.3098 103.24 85.5018 103.24H84.0258V106H82.3698V97.6H85.5018ZM85.5018 101.692C85.8538 101.692 86.1458 101.572 86.3778 101.332C86.6098 101.084 86.7258 100.78 86.7258 100.42C86.7258 100.052 86.6098 99.748 86.3778 99.508C86.1458 99.268 85.8538 99.148 85.5018 99.148H84.0258V101.692H85.5018ZM94.0895 105.256C93.4735 105.864 92.7215 106.168 91.8335 106.168C90.9455 106.168 90.1935 105.864 89.5775 105.256C88.9695 104.64 88.6655 103.888 88.6655 103C88.6655 102.112 88.9695 101.364 89.5775 100.756C90.1935 100.14 90.9455 99.832 91.8335 99.832C92.7215 99.832 93.4735 100.14 94.0895 100.756C94.7055 101.364 95.0135 102.112 95.0135 103C95.0135 103.888 94.7055 104.64 94.0895 105.256ZM90.6695 104.188C90.9815 104.5 91.3695 104.656 91.8335 104.656C92.2975 104.656 92.6855 104.5 92.9975 104.188C93.3095 103.876 93.4655 103.48 93.4655 103C93.4655 102.52 93.3095 102.124 92.9975 101.812C92.6855 101.5 92.2975 101.344 91.8335 101.344C91.3695 101.344 90.9815 101.5 90.6695 101.812C90.3655 102.124 90.2135 102.52 90.2135 103C90.2135 103.48 90.3655 103.876 90.6695 104.188ZM96.8705 99.28C96.6145 99.28 96.3905 99.188 96.1985 99.004C96.0145 98.812 95.9225 98.588 95.9225 98.332C95.9225 98.076 96.0145 97.852 96.1985 97.66C96.3905 97.468 96.6145 97.372 96.8705 97.372C97.1345 97.372 97.3585 97.468 97.5425 97.66C97.7345 97.852 97.8305 98.076 97.8305 98.332C97.8305 98.588 97.7345 98.812 97.5425 99.004C97.3585 99.188 97.1345 99.28 96.8705 99.28ZM96.1025 106V100H97.6505V106H96.1025ZM102.403 99.832C103.059 99.832 103.599 100.052 104.023 100.492C104.455 100.932 104.671 101.54 104.671 102.316V106H103.123V102.508C103.123 102.108 103.015 101.804 102.799 101.596C102.583 101.38 102.295 101.272 101.935 101.272C101.535 101.272 101.215 101.396 100.975 101.644C100.735 101.892 100.615 102.264 100.615 102.76V106H99.0674V100H100.615V100.672C100.991 100.112 101.587 99.832 102.403 99.832ZM109.425 101.488H108.069V103.984C108.069 104.192 108.121 104.344 108.225 104.44C108.329 104.536 108.481 104.592 108.681 104.608C108.881 104.616 109.129 104.612 109.425 104.596V106C108.361 106.12 107.609 106.02 107.169 105.7C106.737 105.38 106.521 104.808 106.521 103.984V101.488H105.477V100H106.521V98.788L108.069 98.32V100H109.425V101.488ZM111.816 101.704C111.816 101.864 111.92 101.996 112.128 102.1C112.344 102.196 112.604 102.284 112.908 102.364C113.212 102.436 113.516 102.532 113.82 102.652C114.124 102.764 114.38 102.956 114.588 103.228C114.804 103.5 114.912 103.84 114.912 104.248C114.912 104.864 114.68 105.34 114.216 105.676C113.76 106.004 113.188 106.168 112.5 106.168C111.268 106.168 110.428 105.692 109.98 104.74L111.324 103.984C111.5 104.504 111.892 104.764 112.5 104.764C113.052 104.764 113.328 104.592 113.328 104.248C113.328 104.088 113.22 103.96 113.004 103.864C112.796 103.76 112.54 103.668 112.236 103.588C111.932 103.508 111.628 103.408 111.324 103.288C111.02 103.168 110.76 102.98 110.544 102.724C110.336 102.46 110.232 102.132 110.232 101.74C110.232 101.148 110.448 100.684 110.88 100.348C111.32 100.004 111.864 99.832 112.512 99.832C113 99.832 113.444 99.944 113.844 100.168C114.244 100.384 114.56 100.696 114.792 101.104L113.472 101.824C113.28 101.416 112.96 101.212 112.512 101.212C112.312 101.212 112.144 101.256 112.008 101.344C111.88 101.432 111.816 101.552 111.816 101.704ZM122.314 101.008H120.718V104.26C120.718 104.556 120.774 104.768 120.886 104.896C121.006 105.016 121.186 105.08 121.426 105.088C121.666 105.088 121.962 105.08 122.314 105.064V106C121.402 106.12 120.734 106.048 120.31 105.784C119.886 105.512 119.674 105.004 119.674 104.26V101.008H118.486V100H119.674V98.632L120.718 98.32V100H122.314V101.008ZM128.309 105.244C127.693 105.852 126.945 106.156 126.065 106.156C125.185 106.156 124.437 105.852 123.821 105.244C123.213 104.636 122.909 103.888 122.909 103C122.909 102.112 123.213 101.364 123.821 100.756C124.437 100.148 125.185 99.844 126.065 99.844C126.945 99.844 127.693 100.148 128.309 100.756C128.925 101.364 129.233 102.112 129.233 103C129.233 103.888 128.925 104.636 128.309 105.244ZM126.065 105.136C126.665 105.136 127.169 104.932 127.577 104.524C127.985 104.116 128.189 103.608 128.189 103C128.189 102.392 127.985 101.884 127.577 101.476C127.169 101.068 126.665 100.864 126.065 100.864C125.473 100.864 124.973 101.068 124.565 101.476C124.157 101.884 123.953 102.392 123.953 103C123.953 103.608 124.157 104.116 124.565 104.524C124.973 104.932 125.473 105.136 126.065 105.136ZM138.372 101.644C138.756 101.828 139.06 102.092 139.284 102.436C139.516 102.78 139.632 103.176 139.632 103.624C139.632 104.296 139.396 104.86 138.924 105.316C138.452 105.772 137.876 106 137.196 106H133.572V97.6H136.932C137.588 97.6 138.144 97.82 138.6 98.26C139.056 98.7 139.284 99.244 139.284 99.892C139.284 100.636 138.98 101.22 138.372 101.644ZM136.932 98.644H134.688V101.212H136.932C137.284 101.212 137.58 101.088 137.82 100.84C138.06 100.592 138.18 100.288 138.18 99.928C138.18 99.576 138.056 99.276 137.808 99.028C137.568 98.772 137.276 98.644 136.932 98.644ZM137.196 104.956C137.572 104.956 137.888 104.824 138.144 104.56C138.4 104.296 138.528 103.972 138.528 103.588C138.528 103.212 138.396 102.892 138.132 102.628C137.876 102.364 137.564 102.232 137.196 102.232H134.688V104.956H137.196ZM141.614 103.48C141.718 104.016 141.962 104.432 142.346 104.728C142.738 105.024 143.218 105.172 143.786 105.172C144.578 105.172 145.154 104.88 145.514 104.296L146.402 104.8C145.818 105.704 144.938 106.156 143.762 106.156C142.81 106.156 142.034 105.86 141.434 105.268C140.842 104.668 140.546 103.912 140.546 103C140.546 102.096 140.838 101.344 141.422 100.744C142.006 100.144 142.762 99.844 143.69 99.844C144.57 99.844 145.286 100.156 145.838 100.78C146.398 101.396 146.678 102.14 146.678 103.012C146.678 103.164 146.666 103.32 146.642 103.48H141.614ZM143.69 100.828C143.13 100.828 142.666 100.988 142.298 101.308C141.93 101.62 141.702 102.04 141.614 102.568H145.622C145.534 102 145.31 101.568 144.95 101.272C144.59 100.976 144.17 100.828 143.69 100.828ZM150.686 106.156C149.782 106.156 149.03 105.856 148.43 105.256C147.83 104.648 147.53 103.896 147.53 103C147.53 102.104 147.83 101.356 148.43 100.756C149.03 100.148 149.782 99.844 150.686 99.844C151.278 99.844 151.81 99.988 152.282 100.276C152.754 100.556 153.106 100.936 153.338 101.416L152.462 101.92C152.31 101.6 152.074 101.344 151.754 101.152C151.442 100.96 151.086 100.864 150.686 100.864C150.086 100.864 149.582 101.068 149.174 101.476C148.774 101.884 148.574 102.392 148.574 103C148.574 103.6 148.774 104.104 149.174 104.512C149.582 104.92 150.086 105.124 150.686 105.124C151.086 105.124 151.446 105.032 151.766 104.848C152.086 104.656 152.33 104.4 152.498 104.08L153.386 104.596C153.13 105.068 152.762 105.448 152.282 105.736C151.802 106.016 151.27 106.156 150.686 106.156ZM159.399 105.244C158.783 105.852 158.035 106.156 157.155 106.156C156.275 106.156 155.527 105.852 154.911 105.244C154.303 104.636 153.999 103.888 153.999 103C153.999 102.112 154.303 101.364 154.911 100.756C155.527 100.148 156.275 99.844 157.155 99.844C158.035 99.844 158.783 100.148 159.399 100.756C160.015 101.364 160.323 102.112 160.323 103C160.323 103.888 160.015 104.636 159.399 105.244ZM157.155 105.136C157.755 105.136 158.259 104.932 158.667 104.524C159.075 104.116 159.279 103.608 159.279 103C159.279 102.392 159.075 101.884 158.667 101.476C158.259 101.068 157.755 100.864 157.155 100.864C156.563 100.864 156.063 101.068 155.655 101.476C155.247 101.884 155.043 102.392 155.043 103C155.043 103.608 155.247 104.116 155.655 104.524C156.063 104.932 156.563 105.136 157.155 105.136ZM168.034 99.844C168.706 99.844 169.25 100.064 169.666 100.504C170.082 100.936 170.29 101.524 170.29 102.268V106H169.246V102.304C169.246 101.84 169.126 101.48 168.886 101.224C168.646 100.968 168.326 100.84 167.926 100.84C167.478 100.84 167.118 100.992 166.846 101.296C166.582 101.592 166.45 102.048 166.45 102.664V106H165.406V102.304C165.406 101.84 165.29 101.48 165.058 101.224C164.834 100.968 164.526 100.84 164.134 100.84C163.694 100.84 163.326 100.992 163.03 101.296C162.742 101.6 162.598 102.056 162.598 102.664V106H161.554V100H162.598V100.804C163.006 100.164 163.602 99.844 164.386 99.844C165.194 99.844 165.782 100.184 166.15 100.864C166.566 100.184 167.194 99.844 168.034 99.844ZM172.469 103.48C172.573 104.016 172.817 104.432 173.201 104.728C173.593 105.024 174.073 105.172 174.641 105.172C175.433 105.172 176.009 104.88 176.369 104.296L177.257 104.8C176.673 105.704 175.793 106.156 174.617 106.156C173.665 106.156 172.889 105.86 172.289 105.268C171.697 104.668 171.401 103.912 171.401 103C171.401 102.096 171.693 101.344 172.277 100.744C172.861 100.144 173.617 99.844 174.545 99.844C175.425 99.844 176.141 100.156 176.693 100.78C177.253 101.396 177.533 102.14 177.533 103.012C177.533 103.164 177.521 103.32 177.497 103.48H172.469ZM174.545 100.828C173.985 100.828 173.521 100.988 173.153 101.308C172.785 101.62 172.557 102.04 172.469 102.568H176.477C176.389 102 176.165 101.568 175.805 101.272C175.445 100.976 175.025 100.828 174.545 100.828ZM186.701 100H187.745V106H186.701V104.968C186.181 105.76 185.425 106.156 184.433 106.156C183.593 106.156 182.877 105.852 182.285 105.244C181.693 104.628 181.397 103.88 181.397 103C181.397 102.12 181.693 101.376 182.285 100.768C182.877 100.152 183.593 99.844 184.433 99.844C185.425 99.844 186.181 100.24 186.701 101.032V100ZM184.565 105.148C185.173 105.148 185.681 104.944 186.089 104.536C186.497 104.12 186.701 103.608 186.701 103C186.701 102.392 186.497 101.884 186.089 101.476C185.681 101.06 185.173 100.852 184.565 100.852C183.965 100.852 183.461 101.06 183.053 101.476C182.645 101.884 182.441 102.392 182.441 103C182.441 103.608 182.645 104.12 183.053 104.536C183.461 104.944 183.965 105.148 184.565 105.148ZM195.147 106.156C194.363 106.156 193.691 105.972 193.131 105.604C192.579 105.236 192.191 104.732 191.967 104.092L192.927 103.54C193.255 104.556 194.003 105.064 195.171 105.064C195.747 105.064 196.187 104.948 196.491 104.716C196.795 104.476 196.947 104.16 196.947 103.768C196.947 103.368 196.795 103.068 196.491 102.868C196.187 102.668 195.679 102.456 194.967 102.232C194.615 102.12 194.347 102.032 194.163 101.968C193.979 101.896 193.747 101.792 193.467 101.656C193.195 101.512 192.991 101.368 192.855 101.224C192.719 101.072 192.595 100.876 192.483 100.636C192.379 100.396 192.327 100.124 192.327 99.82C192.327 99.092 192.583 98.516 193.095 98.092C193.607 97.66 194.231 97.444 194.967 97.444C195.631 97.444 196.207 97.612 196.695 97.948C197.191 98.284 197.563 98.728 197.811 99.28L196.875 99.82C196.515 98.956 195.879 98.524 194.967 98.524C194.511 98.524 194.143 98.636 193.863 98.86C193.583 99.084 193.443 99.388 193.443 99.772C193.443 100.14 193.575 100.42 193.839 100.612C194.103 100.804 194.559 101.004 195.207 101.212C195.439 101.284 195.603 101.336 195.699 101.368C195.795 101.4 195.943 101.456 196.143 101.536C196.351 101.616 196.503 101.68 196.599 101.728C196.695 101.776 196.823 101.844 196.983 101.932C197.151 102.02 197.275 102.104 197.355 102.184C197.435 102.264 197.527 102.364 197.631 102.484C197.743 102.596 197.823 102.712 197.871 102.832C197.919 102.952 197.959 103.092 197.991 103.252C198.031 103.404 198.051 103.568 198.051 103.744C198.051 104.48 197.783 105.068 197.247 105.508C196.711 105.94 196.011 106.156 195.147 106.156ZM203.405 100H204.449V106H203.405V105.136C202.981 105.816 202.333 106.156 201.461 106.156C200.757 106.156 200.193 105.936 199.769 105.496C199.345 105.048 199.133 104.444 199.133 103.684V100H200.177V103.624C200.177 104.112 200.309 104.492 200.573 104.764C200.837 105.028 201.201 105.16 201.665 105.16C202.185 105.16 202.605 105 202.925 104.68C203.245 104.352 203.405 103.852 203.405 103.18V100ZM209.35 99.844C210.19 99.844 210.906 100.152 211.498 100.768C212.09 101.376 212.386 102.12 212.386 103C212.386 103.88 212.09 104.628 211.498 105.244C210.906 105.852 210.19 106.156 209.35 106.156C208.358 106.156 207.602 105.76 207.082 104.968V108.4H206.038V100H207.082V101.032C207.602 100.24 208.358 99.844 209.35 99.844ZM209.218 105.148C209.818 105.148 210.322 104.944 210.73 104.536C211.138 104.12 211.342 103.608 211.342 103C211.342 102.392 211.138 101.884 210.73 101.476C210.322 101.06 209.818 100.852 209.218 100.852C208.61 100.852 208.102 101.06 207.694 101.476C207.286 101.884 207.082 102.392 207.082 103C207.082 103.608 207.286 104.12 207.694 104.536C208.102 104.944 208.61 105.148 209.218 105.148ZM214.364 103.48C214.468 104.016 214.712 104.432 215.096 104.728C215.488 105.024 215.968 105.172 216.536 105.172C217.328 105.172 217.904 104.88 218.264 104.296L219.152 104.8C218.568 105.704 217.688 106.156 216.512 106.156C215.56 106.156 214.784 105.86 214.184 105.268C213.592 104.668 213.296 103.912 213.296 103C213.296 102.096 213.588 101.344 214.172 100.744C214.756 100.144 215.512 99.844 216.44 99.844C217.32 99.844 218.036 100.156 218.588 100.78C219.148 101.396 219.428 102.14 219.428 103.012C219.428 103.164 219.416 103.32 219.392 103.48H214.364ZM216.44 100.828C215.88 100.828 215.416 100.988 215.048 101.308C214.68 101.62 214.452 102.04 214.364 102.568H218.372C218.284 102 218.06 101.568 217.7 101.272C217.34 100.976 216.92 100.828 216.44 100.828ZM221.672 101.008C222.016 100.264 222.64 99.892 223.544 99.892V100.984C223.032 100.96 222.592 101.096 222.224 101.392C221.856 101.688 221.672 102.164 221.672 102.82V106H220.628V100H221.672V101.008ZM232.869 97.6H233.973V106H232.869V102.22H228.789V106H227.673V97.6H228.789V101.164H232.869V97.6ZM236.395 103.48C236.499 104.016 236.743 104.432 237.127 104.728C237.519 105.024 237.999 105.172 238.567 105.172C239.359 105.172 239.935 104.88 240.295 104.296L241.183 104.8C240.599 105.704 239.719 106.156 238.543 106.156C237.591 106.156 236.815 105.86 236.215 105.268C235.623 104.668 235.327 103.912 235.327 103C235.327 102.096 235.619 101.344 236.203 100.744C236.787 100.144 237.543 99.844 238.471 99.844C239.351 99.844 240.067 100.156 240.619 100.78C241.179 101.396 241.459 102.14 241.459 103.012C241.459 103.164 241.447 103.32 241.423 103.48H236.395ZM238.471 100.828C237.911 100.828 237.447 100.988 237.079 101.308C236.711 101.62 236.483 102.04 236.395 102.568H240.403C240.315 102 240.091 101.568 239.731 101.272C239.371 100.976 238.951 100.828 238.471 100.828ZM243.703 101.008C244.047 100.264 244.671 99.892 245.575 99.892V100.984C245.063 100.96 244.623 101.096 244.255 101.392C243.887 101.688 243.703 102.164 243.703 102.82V106H242.659V100H243.703V101.008ZM251.333 105.244C250.717 105.852 249.969 106.156 249.089 106.156C248.209 106.156 247.461 105.852 246.845 105.244C246.237 104.636 245.933 103.888 245.933 103C245.933 102.112 246.237 101.364 246.845 100.756C247.461 100.148 248.209 99.844 249.089 99.844C249.969 99.844 250.717 100.148 251.333 100.756C251.949 101.364 252.257 102.112 252.257 103C252.257 103.888 251.949 104.636 251.333 105.244ZM249.089 105.136C249.689 105.136 250.193 104.932 250.601 104.524C251.009 104.116 251.213 103.608 251.213 103C251.213 102.392 251.009 101.884 250.601 101.476C250.193 101.068 249.689 100.864 249.089 100.864C248.497 100.864 247.997 101.068 247.589 101.476C247.181 101.884 246.977 102.392 246.977 103C246.977 103.608 247.181 104.116 247.589 104.524C247.997 104.932 248.497 105.136 249.089 105.136Z" fill="white"/>
<circle cx="325.5" cy="21.5" r="68.5" fill="white" fill-opacity="0.1"/>
<circle cx="325.5" cy="21.5001" r="44.525" fill="white" fill-opacity="0.1"/>
<path d="M312.92 65.77C313.863 65.77 314.656 66.0547 315.3 66.624C315.944 67.184 316.266 67.968 316.266 68.976C316.266 69.984 315.925 70.7727 315.244 71.342C314.572 71.9113 313.746 72.196 312.766 72.196C311.973 72.196 311.273 72.0187 310.666 71.664C310.059 71.3093 309.621 70.7867 309.35 70.096L311.002 69.13C311.245 69.914 311.833 70.306 312.766 70.306C313.261 70.306 313.643 70.1893 313.914 69.956C314.194 69.7133 314.334 69.3867 314.334 68.976C314.334 68.5747 314.199 68.2527 313.928 68.01C313.657 67.7673 313.289 67.646 312.822 67.646H309.854L310.246 62.2H315.804V64.006H312.038L311.912 65.77H312.92ZM320.916 72.196C319.693 72.196 318.732 71.734 318.032 70.81C317.341 69.8767 316.996 68.64 316.996 67.1C316.996 65.56 317.341 64.328 318.032 63.404C318.732 62.4707 319.693 62.004 320.916 62.004C322.148 62.004 323.109 62.4707 323.8 63.404C324.491 64.328 324.836 65.56 324.836 67.1C324.836 68.64 324.491 69.8767 323.8 70.81C323.109 71.734 322.148 72.196 320.916 72.196ZM319.432 69.494C319.768 70.0353 320.263 70.306 320.916 70.306C321.569 70.306 322.064 70.0307 322.4 69.48C322.745 68.9293 322.918 68.136 322.918 67.1C322.918 66.0547 322.745 65.2567 322.4 64.706C322.064 64.1553 321.569 63.88 320.916 63.88C320.263 63.88 319.768 64.1553 319.432 64.706C319.096 65.2567 318.928 66.0547 318.928 67.1C318.928 68.1453 319.096 68.9433 319.432 69.494ZM329.734 72.196C328.512 72.196 327.55 71.734 326.85 70.81C326.16 69.8767 325.814 68.64 325.814 67.1C325.814 65.56 326.16 64.328 326.85 63.404C327.55 62.4707 328.512 62.004 329.734 62.004C330.966 62.004 331.928 62.4707 332.618 63.404C333.309 64.328 333.654 65.56 333.654 67.1C333.654 68.64 333.309 69.8767 332.618 70.81C331.928 71.734 330.966 72.196 329.734 72.196ZM328.25 69.494C328.586 70.0353 329.081 70.306 329.734 70.306C330.388 70.306 330.882 70.0307 331.218 69.48C331.564 68.9293 331.736 68.136 331.736 67.1C331.736 66.0547 331.564 65.2567 331.218 64.706C330.882 64.1553 330.388 63.88 329.734 63.88C329.081 63.88 328.586 64.1553 328.25 64.706C327.914 65.2567 327.746 66.0547 327.746 67.1C327.746 68.1453 327.914 68.9433 328.25 69.494Z" fill="white"/>
</g>
<defs>
<clipPath id="clip0_633_5065">
<rect width="350" height="127" rx="12" fill="white"/>
</clipPath>
</defs>
</svg>
