<svg width="228" height="284" viewBox="0 0 228 284" fill="none" xmlns="http://www.w3.org/2000/svg">
<path d="M163.79 196.577C153.951 189.707 151.722 176.952 152.11 165.484C152.174 163.574 151.964 161.549 152.874 159.874C153.785 158.199 155.912 157.047 157.626 157.849C159.046 158.518 159.664 160.173 160.46 161.542C161.522 163.366 163.078 164.852 164.95 165.828C166.166 166.465 167.675 166.847 168.879 166.184C170.535 165.274 170.726 163.001 170.713 161.09C170.713 157.537 170.692 153.988 170.65 150.443C170.535 148.54 170.729 146.631 171.223 144.789C171.815 142.98 173.133 141.306 174.936 140.796C176.738 140.287 178.986 141.338 179.394 143.197C179.464 143.984 179.483 144.776 179.451 145.566C179.502 146.362 179.871 147.234 180.617 147.476C181.362 147.718 182.139 147.164 182.712 146.604C184.673 144.693 186.011 142.204 187.253 139.746C188.495 137.288 189.711 134.76 191.494 132.665C193.278 130.57 195.742 128.908 198.5 128.749C201.258 128.589 204.13 130.283 204.818 132.958C205.506 135.632 203.945 138.364 202.27 140.535C199.743 143.758 196.763 146.6 193.424 148.972C192.772 149.328 192.252 149.884 191.94 150.558C191.526 151.832 192.73 153.105 193.985 153.506C195.405 153.977 196.946 153.831 198.443 154.009C199.939 154.188 201.531 154.837 202.098 156.238C202.875 158.187 201.245 160.224 199.646 161.561C196.437 164.236 192.792 166.34 188.87 167.783C187.469 168.292 185.998 168.744 184.865 169.725C183.731 170.705 183.056 172.418 183.737 173.762C184.419 175.106 186.17 175.532 187.641 175.258C189.112 174.985 190.418 174.195 191.819 173.666C194.437 172.679 197.812 172.858 199.462 175.118C199.973 175.897 200.296 176.784 200.407 177.708C200.517 178.633 200.412 179.571 200.099 180.448C199.461 182.194 198.48 183.794 197.213 185.154C193.042 190.137 187.623 193.923 181.508 196.125C175.439 198.227 169.815 198.8 163.784 196.59" fill="#EA3A60"/>
<path d="M202.016 130.321C202.016 130.321 201.958 130.385 201.831 130.5L201.264 131.003C200.767 131.448 200.035 132.098 199.111 132.958C196.493 135.388 194.062 138.013 191.838 140.809C190.418 142.573 188.947 144.572 187.38 146.744C185.814 148.915 184.196 151.258 182.591 153.748C180.88 156.374 179.313 159.09 177.897 161.886C177.158 163.344 176.509 164.866 175.84 166.42L173.866 171.164C171.263 177.139 168.997 183.255 167.077 189.484C165.53 194.58 164.464 199.809 163.892 205.104C163.522 208.677 163.462 212.275 163.714 215.859C163.816 217.132 163.912 218.107 164.001 218.769C164.039 219.087 164.064 219.342 164.09 219.527V219.788C164.062 219.705 164.043 219.62 164.033 219.533C164.001 219.348 163.962 219.1 163.912 218.782C163.797 218.145 163.676 217.139 163.561 215.865C163.254 212.275 163.275 208.664 163.625 205.078C164.161 199.761 165.204 194.507 166.739 189.388C168.643 183.142 170.904 177.011 173.509 171.024L175.534 166.299C176.203 164.752 176.859 163.217 177.604 161.752C179.03 158.948 180.61 156.225 182.336 153.595C183.967 151.048 185.61 148.743 187.157 146.591C188.705 144.439 190.202 142.426 191.615 140.669C193.862 137.88 196.326 135.274 198.984 132.875C199.927 132.028 200.678 131.391 201.188 130.964L201.78 130.487C201.852 130.424 201.931 130.368 202.016 130.321Z" fill="#263238"/>
<path d="M177.687 161.74C177.597 161.477 177.535 161.206 177.502 160.931C177.4 160.403 177.286 159.658 177.152 158.69C176.878 156.779 176.598 154.162 176.299 151.265C175.999 148.368 175.662 145.744 175.381 143.853C175.235 142.91 175.108 142.153 175.018 141.624C174.949 141.354 174.912 141.076 174.91 140.796C175.02 141.051 175.099 141.319 175.146 141.592C175.286 142.115 175.445 142.866 175.623 143.815C175.986 145.725 176.343 148.323 176.642 151.227C176.942 154.13 177.197 156.677 177.394 158.658C177.489 159.549 177.572 160.307 177.636 160.912C177.685 161.185 177.703 161.463 177.687 161.74Z" fill="#263238"/>
<path d="M202.194 157.168C201.884 157.235 201.569 157.273 201.251 157.282C200.615 157.34 199.71 157.416 198.589 157.543C196.348 157.785 193.265 158.231 189.883 158.868C186.501 159.505 183.464 160.224 181.279 160.778C180.19 161.058 179.311 161.313 178.732 161.485C178.422 161.595 178.102 161.672 177.776 161.714C178.071 161.566 178.378 161.445 178.693 161.351C179.292 161.141 180.158 160.848 181.241 160.536C183.413 159.899 186.451 159.142 189.845 158.492C192.721 157.942 195.622 157.539 198.538 157.282C199.666 157.187 200.576 157.149 201.213 157.136C201.54 157.114 201.869 157.124 202.194 157.168Z" fill="#263238"/>
<path d="M167.051 188.943C166.983 188.851 166.927 188.75 166.885 188.643L166.465 187.758C166.102 186.988 165.612 185.848 165.026 184.453C163.841 181.652 162.332 177.729 160.727 173.374C159.122 169.018 157.644 165.096 156.524 162.262C155.976 160.887 155.524 159.759 155.186 158.919L154.829 158.008C154.78 157.903 154.746 157.792 154.728 157.677C154.795 157.769 154.851 157.87 154.893 157.977L155.313 158.862C155.67 159.632 156.167 160.772 156.753 162.166C157.937 164.968 159.447 168.891 161.052 173.246C162.657 177.602 164.134 181.524 165.255 184.358C165.803 185.733 166.255 186.86 166.586 187.701C166.733 188.064 166.854 188.338 166.949 188.612C166.999 188.717 167.033 188.828 167.051 188.943Z" fill="#263238"/>
<path d="M199.583 178.455C199.481 178.514 199.371 178.559 199.258 178.589L198.315 178.907L194.832 180.034C191.889 180.989 187.826 182.352 183.368 183.855C178.91 185.358 174.827 186.695 171.866 187.586C170.388 188.038 169.185 188.382 168.351 188.612L167.389 188.86C167.277 188.895 167.162 188.919 167.045 188.93C167.147 188.871 167.256 188.826 167.37 188.796L168.312 188.478L171.796 187.351C174.738 186.396 178.802 185.033 183.26 183.53C187.718 182.027 191.794 180.69 194.755 179.799C196.239 179.347 197.436 179.003 198.277 178.773L199.239 178.525C199.351 178.49 199.466 178.466 199.583 178.455Z" fill="#263238"/>
<path d="M186.31 23.9935L183.03 25.1652L181.623 20.8797C179.037 12.9774 170.796 8.78108 163.224 11.4492C155.651 14.1172 151.62 22.7837 154.206 30.686L155.613 34.9715L152.32 36.1495C151.065 36.6364 150.045 37.5884 149.474 38.8075C148.902 40.0266 148.822 41.4191 149.251 42.6955L158.377 70.5797C158.567 71.2116 158.881 71.799 159.302 72.3069C159.723 72.8149 160.242 73.233 160.828 73.5366C161.413 73.8401 162.054 74.0228 162.712 74.0738C163.37 74.1249 164.031 74.0432 164.657 73.8336L198.647 61.6777C199.919 61.1916 200.953 60.2312 201.531 58.9985C202.11 57.7658 202.187 56.3569 201.748 55.068L192.615 27.1838C192.421 26.5537 192.102 25.9691 191.676 25.4651C191.251 24.9611 190.729 24.5479 190.14 24.2501C189.552 23.9524 188.909 23.7762 188.251 23.7321C187.593 23.6881 186.933 23.777 186.31 23.9935ZM160.402 28.4509C159.705 26.3962 159.83 24.1515 160.752 22.1869C161.673 20.2224 163.319 18.6906 165.344 17.9124C166.345 17.5702 167.404 17.433 168.458 17.5089C169.513 17.5848 170.541 17.8724 171.482 18.3543C172.423 18.8363 173.257 19.5028 173.935 20.3142C174.612 21.1255 175.12 22.065 175.426 23.0766L176.827 27.3621L161.803 32.7364L160.402 28.4509ZM179.509 53.1959L181.839 60.315C181.882 60.4577 181.868 60.6115 181.801 60.7443C181.733 60.8771 181.617 60.9788 181.476 61.0282L178.209 62.1935C178.079 62.2295 177.94 62.2138 177.822 62.1497C177.703 62.0856 177.614 61.9781 177.572 61.8496L175.222 54.7623C173.927 54.6917 172.683 54.227 171.659 53.4304C170.634 52.6338 169.878 51.5433 169.491 50.3049C168.937 48.6678 169.038 46.8798 169.772 45.3154C170.507 43.751 171.819 42.5316 173.433 41.9123C174.23 41.6401 175.073 41.5311 175.913 41.5917C176.753 41.6524 177.572 41.8815 178.321 42.2653C179.071 42.6492 179.735 43.18 180.275 43.826C180.815 44.4721 181.219 45.2202 181.464 46.0258C181.873 47.2838 181.907 48.634 181.561 49.9109C181.215 51.1878 180.504 52.3361 179.515 53.215L179.509 53.1959Z" fill="#EA3A60"/>
<path d="M182.884 25.0887C182.884 25.1778 176.802 27.4638 169.236 30.1829C161.67 32.9019 155.498 35.086 155.466 35.0223C155.435 34.9586 161.549 32.6535 169.121 29.9282C176.693 27.2028 182.852 25.0059 182.884 25.0887Z" fill="#263238"/>
<path d="M190.106 26.2603C190.134 26.3155 190.158 26.373 190.176 26.4322C190.227 26.5595 190.284 26.7251 190.361 26.9289C190.526 27.3937 190.756 28.0368 191.042 28.8392L193.488 35.9583C194.507 38.9766 195.723 42.5552 197.073 46.5287C197.71 48.5218 198.462 50.5977 199.162 52.7818C199.537 53.9073 199.699 55.0928 199.64 56.2776C199.586 56.8938 199.411 57.4933 199.124 58.0415C198.818 58.5879 198.409 59.07 197.92 59.4615C196.936 60.1796 195.844 60.7364 194.685 61.1107L191.405 62.2888L185.196 64.5111L174.681 68.2553L167.58 70.7515L165.669 71.3882L165.16 71.5538C165.105 71.578 165.047 71.5931 164.988 71.5984C164.988 71.5984 165.039 71.5984 165.147 71.522L165.644 71.3246L167.554 70.605L174.617 68.007L185.113 64.1864L191.31 61.9449L194.59 60.7605C195.716 60.4014 196.776 59.8616 197.729 59.1622C198.184 58.799 198.565 58.3514 198.85 57.8441C199.12 57.3371 199.283 56.7801 199.328 56.2076C199.387 55.066 199.231 53.9235 198.869 52.8391C198.182 50.6741 197.456 48.5791 196.8 46.586C195.475 42.6062 194.252 39.0148 193.284 35.9965C192.316 32.9782 191.501 30.5521 190.94 28.8455C190.673 28.0114 190.469 27.3619 190.303 26.8907L190.151 26.3812C190.131 26.3427 190.116 26.3021 190.106 26.2603Z" fill="#263238"/>
<path d="M172.172 17.4792C172.172 17.4792 171.834 17.3137 171.21 17.059C170.32 16.7172 169.38 16.5278 168.427 16.4986C167.015 16.4502 165.61 16.7155 164.313 17.2755C162.735 17.9727 161.387 19.1005 160.421 20.5294C159.45 21.9542 158.928 23.6379 158.925 25.3625C158.938 26.7759 159.152 28.1803 159.562 29.5333C159.893 30.6922 160.237 31.6156 160.466 32.2587C160.601 32.5854 160.712 32.9217 160.797 33.2648C160.616 32.9594 160.465 32.6374 160.345 32.3033C160.084 31.6665 159.708 30.7623 159.339 29.597C158.885 28.2298 158.638 26.8025 158.606 25.3625C158.589 23.5728 159.123 21.8211 160.135 20.3447C161.134 18.8637 162.538 17.701 164.179 16.9953C165.516 16.4323 166.965 16.1839 168.414 16.2694C169.387 16.319 170.344 16.5455 171.236 16.938C171.474 17.048 171.704 17.1757 171.923 17.32C172.014 17.3598 172.098 17.4136 172.172 17.4792Z" fill="#263238"/>
<path d="M172.465 42.3963C172.566 42.3347 172.673 42.2815 172.783 42.2371C173.102 42.0933 173.432 41.9761 173.77 41.8869C174.307 41.7285 174.861 41.6344 175.42 41.6067C176.18 41.5658 176.941 41.6807 177.655 41.9442C179.285 42.5173 180.782 44.1792 181.521 46.4016C181.875 47.5942 181.875 48.864 181.521 50.0566C181.128 51.3511 180.424 52.5295 179.47 53.4888L179.508 53.3169C180.355 55.6411 181.279 58.1627 182.234 60.7926L182.291 60.9518L182.132 61.0091L180.674 61.4931L177.489 62.5565L177.33 62.6074L177.279 62.4482C176.407 59.812 175.451 57.354 174.732 54.9407L174.872 55.0489C173.627 54.9455 172.44 54.4783 171.458 53.7053C170.57 53.0215 169.842 52.1523 169.325 51.1583C168.858 50.2767 168.625 49.29 168.65 48.2928C168.679 47.2736 168.934 46.2735 169.395 45.3642C169.856 44.4549 170.513 43.6589 171.318 43.0331C171.65 42.7641 172.021 42.5492 172.42 42.3963C172.06 42.6097 171.712 42.8414 171.375 43.0904C170.491 43.8385 169.814 44.801 169.408 45.8858C169.059 46.7038 168.896 47.5888 168.93 48.4773C168.964 49.3658 169.195 50.2356 169.605 51.0245C170.114 51.9808 170.824 52.8152 171.688 53.4697C172.624 54.2044 173.756 54.6473 174.942 54.7433H175.05L175.082 54.8388C175.783 57.2076 176.744 59.6846 177.63 62.3336L177.419 62.2317L180.604 61.1683L182.056 60.678L181.954 60.8945C181.005 58.2646 180.088 55.7366 179.247 53.4124V53.3169L179.324 53.2405C180.25 52.3209 180.94 51.1916 181.336 49.9484C181.674 48.8076 181.674 47.5933 181.336 46.4525C180.642 44.313 179.209 42.6892 177.655 42.1161C176.967 41.8509 176.233 41.7275 175.496 41.7531C174.946 41.7657 174.399 41.8405 173.866 41.976C172.917 42.2116 172.471 42.4281 172.465 42.3963Z" fill="#263238"/>
<path d="M152.779 226.258L89.1619 225.965C85.4881 225.944 81.9725 224.467 79.3872 221.857C76.8019 219.247 75.3584 215.718 75.3737 212.045L76.0487 52.591C76.0562 50.7711 76.4224 48.9706 77.1263 47.2923C77.8301 45.614 78.8579 44.0909 80.1509 42.8099C81.4438 41.529 82.9766 40.5154 84.6615 39.8271C86.3465 39.1388 88.1506 38.7893 89.9707 38.7985L153.581 39.0914C157.255 39.11 160.772 40.5857 163.358 43.1944C165.944 45.8031 167.39 49.3316 167.376 53.0049L166.701 212.452C166.694 214.273 166.327 216.074 165.624 217.753C164.92 219.432 163.892 220.956 162.6 222.238C161.307 223.52 159.774 224.535 158.089 225.224C156.404 225.914 154.6 226.265 152.779 226.258Z" fill="#455A64"/>
<path d="M153.486 44.5741H141.156C140.754 44.5815 140.357 44.6682 139.988 44.829C139.619 44.9899 139.286 45.2218 139.007 45.5116C138.728 45.8013 138.508 46.1432 138.361 46.5177C138.214 46.8922 138.143 47.292 138.15 47.6943V49.9293C138.158 50.3313 138.086 50.7308 137.939 51.1049C137.792 51.4791 137.573 51.8205 137.293 52.1098C137.014 52.399 136.68 52.6303 136.312 52.7905C135.943 52.9507 135.546 53.0365 135.144 53.0432L111.109 52.9349C110.296 52.9132 109.524 52.5698 108.964 51.98C108.404 51.3902 108.101 50.6023 108.122 49.7893V47.5542C108.142 46.7422 107.84 45.9553 107.281 45.3657C106.723 44.776 105.953 44.4319 105.141 44.4085H100.804L90.0091 44.3576C87.4415 44.3423 84.9724 45.3449 83.1425 47.1458C81.3127 48.9468 80.2711 51.3993 80.2459 53.9665L79.609 209.606C79.6031 210.88 79.8482 212.142 80.3302 213.321C80.8123 214.5 81.5218 215.572 82.4184 216.477C83.3149 217.381 84.3809 218.101 85.5555 218.593C86.7301 219.086 87.9902 219.343 89.264 219.349L152.747 219.642C154.022 219.648 155.285 219.402 156.465 218.92C157.645 218.438 158.718 217.728 159.624 216.831C160.529 215.934 161.249 214.867 161.742 213.692C162.235 212.517 162.492 211.256 162.498 209.982L163.135 54.3422C163.15 51.7678 162.142 49.2927 160.333 47.461C158.524 45.6293 156.061 44.5909 153.486 44.5741Z" fill="white"/>
<path d="M144.946 198.877L97.7408 198.673C97.2504 198.673 96.8555 198.138 96.8619 197.488L96.9128 185.141C96.9128 184.505 97.3141 183.957 97.8045 183.957L145.009 184.174C145.281 184.221 145.524 184.371 145.688 184.592C145.852 184.814 145.923 185.091 145.888 185.364L145.844 197.699C145.844 198.354 145.436 198.883 144.946 198.877Z" fill="#EA3A60"/>
<path d="M114.504 191.19C114.47 190.898 114.329 190.67 114.083 190.509C113.836 190.347 113.534 190.266 113.176 190.266C112.914 190.266 112.685 190.309 112.489 190.393C112.294 190.478 112.142 190.594 112.033 190.743C111.925 190.891 111.871 191.059 111.871 191.248C111.871 191.406 111.908 191.542 111.984 191.655C112.061 191.767 112.159 191.86 112.278 191.935C112.397 192.008 112.523 192.069 112.653 192.117C112.784 192.163 112.905 192.201 113.014 192.23L113.615 192.391C113.769 192.432 113.94 192.488 114.129 192.559C114.32 192.63 114.501 192.727 114.675 192.851C114.85 192.972 114.994 193.128 115.108 193.318C115.221 193.509 115.278 193.743 115.278 194.02C115.278 194.34 115.194 194.628 115.027 194.886C114.861 195.144 114.619 195.349 114.299 195.501C113.982 195.653 113.596 195.729 113.141 195.729C112.718 195.729 112.351 195.661 112.041 195.524C111.733 195.388 111.491 195.197 111.314 194.953C111.138 194.708 111.039 194.424 111.016 194.101H111.755C111.775 194.324 111.85 194.509 111.981 194.655C112.113 194.8 112.281 194.907 112.483 194.979C112.687 195.048 112.907 195.083 113.141 195.083C113.415 195.083 113.66 195.038 113.878 194.95C114.095 194.859 114.268 194.734 114.395 194.574C114.522 194.413 114.585 194.224 114.585 194.008C114.585 193.812 114.53 193.652 114.421 193.529C114.311 193.406 114.167 193.306 113.987 193.229C113.808 193.152 113.615 193.084 113.407 193.027L112.679 192.819C112.217 192.686 111.852 192.496 111.582 192.25C111.313 192.004 111.178 191.681 111.178 191.283C111.178 190.952 111.267 190.663 111.446 190.416C111.627 190.168 111.87 189.976 112.174 189.839C112.48 189.7 112.822 189.631 113.199 189.631C113.58 189.631 113.919 189.699 114.216 189.836C114.512 189.971 114.747 190.156 114.92 190.39C115.095 190.625 115.188 190.892 115.197 191.19H114.504ZM117.172 189.712V195.625H116.456V189.712H117.172ZM123.297 189.712V195.625H122.604L119.381 190.982H119.324V195.625H118.608V189.712H119.301L122.535 194.367H122.592V189.712H123.297ZM128.772 191.56C128.709 191.365 128.625 191.191 128.521 191.037C128.419 190.881 128.297 190.748 128.154 190.639C128.014 190.529 127.854 190.445 127.675 190.388C127.496 190.33 127.3 190.301 127.086 190.301C126.736 190.301 126.417 190.391 126.13 190.572C125.843 190.753 125.615 191.02 125.446 191.372C125.277 191.724 125.192 192.157 125.192 192.669C125.192 193.181 125.277 193.613 125.449 193.965C125.62 194.317 125.852 194.584 126.145 194.765C126.437 194.946 126.766 195.036 127.132 195.036C127.471 195.036 127.769 194.964 128.027 194.82C128.287 194.674 128.489 194.468 128.634 194.202C128.78 193.934 128.853 193.62 128.853 193.258L129.073 193.304H127.294V192.669H129.546V193.304C129.546 193.791 129.442 194.214 129.234 194.574C129.028 194.934 128.743 195.214 128.38 195.412C128.018 195.608 127.602 195.706 127.132 195.706C126.609 195.706 126.149 195.583 125.752 195.337C125.357 195.09 125.049 194.74 124.828 194.286C124.609 193.831 124.499 193.292 124.499 192.669C124.499 192.201 124.561 191.78 124.686 191.407C124.814 191.031 124.993 190.712 125.224 190.448C125.455 190.184 125.728 189.982 126.044 189.842C126.359 189.701 126.707 189.631 127.086 189.631C127.398 189.631 127.689 189.678 127.958 189.772C128.229 189.865 128.471 189.997 128.683 190.168C128.897 190.337 129.075 190.541 129.217 190.777C129.359 191.012 129.458 191.273 129.512 191.56H128.772ZM115.151 199.712H115.867V203.627C115.867 204.032 115.772 204.393 115.581 204.71C115.393 205.026 115.126 205.275 114.782 205.458C114.437 205.639 114.033 205.729 113.569 205.729C113.105 205.729 112.701 205.639 112.356 205.458C112.011 205.275 111.744 205.026 111.553 204.71C111.365 204.393 111.27 204.032 111.27 203.627V199.712H111.986V203.57C111.986 203.858 112.05 204.115 112.177 204.341C112.304 204.564 112.485 204.74 112.72 204.869C112.957 204.996 113.24 205.06 113.569 205.06C113.898 205.06 114.181 204.996 114.418 204.869C114.654 204.74 114.835 204.564 114.961 204.341C115.088 204.115 115.151 203.858 115.151 203.57V199.712ZM117.297 205.625V199.712H119.295C119.759 199.712 120.139 199.796 120.433 199.963C120.73 200.129 120.949 200.353 121.092 200.636C121.234 200.919 121.305 201.235 121.305 201.583C121.305 201.931 121.234 202.248 121.092 202.533C120.951 202.818 120.733 203.045 120.439 203.214C120.144 203.382 119.767 203.466 119.307 203.466H117.875V202.83H119.284C119.602 202.83 119.857 202.775 120.049 202.666C120.242 202.556 120.381 202.408 120.468 202.221C120.556 202.032 120.601 201.82 120.601 201.583C120.601 201.346 120.556 201.134 120.468 200.948C120.381 200.761 120.241 200.615 120.046 200.509C119.852 200.401 119.594 200.347 119.272 200.347H118.013V205.625H117.297Z" fill="#E8E8E3"/>
<path d="M107.156 90.3263L90.7759 90.252L90.7622 93.2575L107.142 93.3318L107.156 90.3263Z" fill="#EA3A60"/>
<path opacity="0.1" d="M107.156 90.3263L90.7759 90.252L90.7622 93.2575L107.142 93.3318L107.156 90.3263Z" fill="black"/>
<path d="M155.173 108.78C155.302 108.767 155.428 108.737 155.549 108.69C155.725 108.622 155.879 108.504 155.991 108.352C156.104 108.2 156.172 108.019 156.186 107.831C156.186 106.818 156.186 105.341 156.186 103.443C156.186 102.495 156.186 101.431 156.186 100.26C156.186 99.973 156.186 99.6737 156.186 99.3745C156.228 99.084 156.164 98.7884 156.008 98.5403C155.92 98.4213 155.806 98.3244 155.674 98.257C155.543 98.1896 155.398 98.1536 155.25 98.1519H154.256H145.054L91.7856 97.9545C91.6493 97.9521 91.5144 97.9828 91.3924 98.0437C91.2705 98.1047 91.165 98.1942 91.0851 98.3047C90.9313 98.5538 90.8725 98.8499 90.9195 99.1389C90.9195 99.7756 90.9195 100.412 90.9195 101.049C90.9195 102.323 90.9195 103.596 90.9195 104.87C90.9195 105.507 90.9195 106.143 90.9195 106.78C90.893 107.077 90.893 107.375 90.9195 107.672C90.9529 107.799 91.0151 107.917 91.1012 108.016C91.1873 108.115 91.2951 108.193 91.4162 108.245C91.5417 108.295 91.6761 108.318 91.8111 108.315H95.0528L109.198 108.391L133.144 108.538L149.289 108.665L153.677 108.716H154.817C155.078 108.716 155.205 108.716 155.205 108.716H154.817H153.677H149.289H133.144L109.198 108.639L95.0528 108.582H91.8111C91.6327 108.589 91.4548 108.559 91.2889 108.493C91.1212 108.421 90.972 108.313 90.8528 108.175C90.7336 108.037 90.6475 107.873 90.601 107.697C90.5642 107.53 90.5513 107.358 90.5628 107.188V106.716C90.5628 106.08 90.5628 105.443 90.5628 104.806C90.5628 103.533 90.5628 102.259 90.5628 100.985C90.5628 100.349 90.5628 99.7119 90.5628 99.0752C90.5507 98.9056 90.5507 98.7353 90.5628 98.5658C90.5867 98.3784 90.6591 98.2006 90.773 98.05C90.8829 97.8963 91.0283 97.7714 91.1968 97.686C91.3654 97.6006 91.5521 97.5573 91.741 97.5597L145.009 97.8526L154.212 97.9163H155.205C155.38 97.9164 155.553 97.9587 155.708 98.0396C155.863 98.1205 155.997 98.2377 156.097 98.3811C156.276 98.6579 156.349 98.9907 156.301 99.3171C156.301 99.6164 156.301 99.9157 156.301 100.202C156.301 101.361 156.301 102.425 156.301 103.386C156.301 105.296 156.256 106.761 156.243 107.78C156.228 107.976 156.157 108.163 156.038 108.32C155.92 108.477 155.759 108.596 155.575 108.665C155.454 108.74 155.315 108.779 155.173 108.78Z" fill="#E0E0E0"/>
<path d="M125.655 101.151H95.6963V103.96H125.655V101.151Z" fill="#EA3A60"/>
<path opacity="0.2" d="M125.655 101.151H95.6963V103.96H125.655V101.151Z" fill="white"/>
<path d="M107.044 117.745L90.6641 117.67L90.6504 120.676L107.031 120.75L107.044 117.745Z" fill="#EA3A60"/>
<path opacity="0.1" d="M107.044 117.745L90.6641 117.67L90.6504 120.676L107.031 120.75L107.044 117.745Z" fill="black"/>
<path d="M154.76 136.199C154.889 136.183 155.016 136.16 155.142 136.129C155.32 136.073 155.484 135.978 155.622 135.853C155.76 135.728 155.87 135.575 155.944 135.403C156.045 135.146 156.084 134.869 156.059 134.595C156.059 134.289 156.059 133.958 156.059 133.588C156.059 132.85 156.059 132.009 156.059 131.041V126.998C156.09 126.705 156.025 126.41 155.874 126.157C155.717 125.898 155.47 125.705 155.18 125.616C154.863 125.559 154.54 125.542 154.219 125.565H145.054L91.9708 125.368C91.6852 125.368 91.4097 125.473 91.1953 125.661C90.9809 125.85 90.8423 126.11 90.8053 126.393C90.8053 126.998 90.8053 127.666 90.8053 128.303C90.8053 129.577 90.8053 130.85 90.8053 132.124C90.8053 132.761 90.8053 133.397 90.8053 134.034C90.7816 134.332 90.7944 134.631 90.8435 134.926C90.923 135.184 91.0867 135.408 91.3084 135.562C91.5437 135.712 91.82 135.783 92.0981 135.766H92.9834H94.8239L108.918 135.836L132.781 135.983L148.869 136.11L153.244 136.161H154.384H154.766H154.384H153.244H148.869H132.781L108.905 136.135L94.8112 136.085H92.0408C91.6963 136.105 91.3545 136.013 91.0664 135.823C90.7766 135.623 90.5651 135.328 90.4677 134.989C90.4107 134.666 90.3935 134.336 90.4168 134.009C90.4168 133.372 90.4168 132.735 90.4168 132.098C90.4168 130.825 90.4168 129.551 90.4168 128.278C90.4168 127.641 90.4168 127.004 90.4168 126.367C90.4633 126.003 90.6409 125.669 90.9163 125.426C91.1918 125.183 91.5463 125.049 91.9134 125.049L144.997 125.342L154.161 125.412C154.503 125.391 154.845 125.415 155.18 125.482C155.511 125.59 155.79 125.817 155.964 126.119C156.128 126.4 156.2 126.725 156.167 127.049C156.167 127.348 156.167 127.641 156.167 127.934C156.167 129.086 156.167 130.143 156.167 131.118C156.167 132.092 156.167 132.913 156.167 133.665C156.167 134.028 156.167 134.365 156.167 134.677C156.191 134.962 156.145 135.248 156.034 135.511C155.951 135.687 155.831 135.843 155.683 135.968C155.535 136.094 155.361 136.185 155.174 136.237C155.035 136.249 154.895 136.236 154.76 136.199Z" fill="#E0E0E0"/>
<path d="M106.921 146.354L90.541 146.28L90.5274 149.285L106.908 149.36L106.921 146.354Z" fill="#EA3A60"/>
<path opacity="0.1" d="M106.921 146.354L90.541 146.28L90.5274 149.285L106.908 149.36L106.921 146.354Z" fill="black"/>
<path d="M154.632 164.797C154.761 164.781 154.889 164.758 155.014 164.727C155.191 164.67 155.355 164.577 155.493 164.453C155.631 164.329 155.742 164.177 155.817 164.007C155.917 163.75 155.956 163.473 155.931 163.198C155.931 162.886 155.931 162.562 155.931 162.186C155.931 161.454 155.931 160.607 155.931 159.639V155.595C155.962 155.303 155.897 155.008 155.747 154.755C155.586 154.5 155.34 154.31 155.053 154.22C154.736 154.161 154.413 154.142 154.091 154.163H144.926L91.8431 153.965C91.5576 153.966 91.282 154.07 91.0676 154.259C90.8533 154.447 90.7147 154.707 90.6777 154.99C90.6777 155.627 90.6777 156.264 90.6777 156.901C90.6777 158.174 90.6777 159.448 90.6777 160.721C90.6777 161.358 90.6777 161.995 90.6777 162.632C90.6539 162.927 90.6668 163.224 90.7159 163.517C90.7921 163.777 90.9565 164.002 91.1808 164.153C91.4146 164.306 91.692 164.378 91.9705 164.357H94.7409L108.835 164.434L132.698 164.58L148.786 164.707L153.161 164.758H154.301C154.556 164.758 154.683 164.758 154.683 164.758C154.683 164.758 154.556 164.758 154.301 164.758H153.161H148.786H132.698L108.835 164.688L94.7409 164.631H91.9705C91.6257 164.654 91.283 164.562 90.9961 164.37C90.7063 164.169 90.4948 163.875 90.3974 163.536C90.3403 163.212 90.3232 162.883 90.3465 162.555C90.3465 161.918 90.3465 161.282 90.3465 160.645C90.3465 159.371 90.3465 158.098 90.3465 156.824C90.3465 156.187 90.3465 155.551 90.3465 154.882C90.3915 154.519 90.5678 154.184 90.8422 153.941C91.1167 153.698 91.4703 153.564 91.8368 153.564L144.92 153.857L154.085 153.927C154.426 153.906 154.768 153.93 155.104 153.997C155.434 154.105 155.714 154.332 155.887 154.634C156.052 154.914 156.123 155.24 156.091 155.563C156.091 155.863 156.091 156.162 156.091 156.449C156.091 157.601 156.091 158.658 156.091 159.632C156.091 160.607 156.091 161.428 156.091 162.179C156.091 162.542 156.091 162.88 156.091 163.192C156.115 163.477 156.069 163.763 155.957 164.026C155.874 164.202 155.755 164.358 155.606 164.483C155.458 164.608 155.284 164.7 155.097 164.752C154.948 164.803 154.789 164.818 154.632 164.797Z" fill="#E0E0E0"/>
<path d="M125.015 129.364L95.0571 129.229L95.0444 132.037L125.003 132.173L125.015 129.364Z" fill="#EA3A60"/>
<path opacity="0.2" d="M125.015 129.364L95.0571 129.229L95.0444 132.037L125.003 132.173L125.015 129.364Z" fill="white"/>
<path d="M97.7659 159.601C97.7471 159.857 97.6535 160.102 97.4968 160.305C97.34 160.509 97.1269 160.662 96.884 160.745C96.6411 160.829 96.379 160.839 96.1303 160.775C95.8815 160.711 95.6571 160.575 95.4847 160.385C95.3123 160.194 95.1997 159.958 95.1607 159.704C95.1217 159.45 95.1581 159.19 95.2654 158.957C95.3727 158.723 95.5461 158.527 95.7642 158.391C95.9823 158.255 96.2354 158.187 96.4922 158.193C96.847 158.213 97.1797 158.372 97.4181 158.635C97.6566 158.899 97.7815 159.246 97.7659 159.601Z" fill="#EA3A60"/>
<path d="M101.823 159.619C101.835 159.799 101.811 159.979 101.751 160.149C101.691 160.318 101.596 160.474 101.474 160.605C101.351 160.737 101.202 160.842 101.037 160.914C100.872 160.985 100.694 161.022 100.514 161.022C100.334 161.022 100.156 160.985 99.991 160.914C99.8259 160.842 99.6774 160.737 99.5547 160.605C99.4319 160.474 99.3375 160.318 99.2774 160.149C99.2173 159.979 99.1928 159.799 99.2053 159.619C99.1928 159.44 99.2173 159.26 99.2774 159.09C99.3375 158.92 99.4319 158.765 99.5547 158.633C99.6774 158.502 99.8259 158.397 99.991 158.325C100.156 158.253 100.334 158.216 100.514 158.216C100.694 158.216 100.872 158.253 101.037 158.325C101.202 158.397 101.351 158.502 101.474 158.633C101.596 158.765 101.691 158.92 101.751 159.09C101.811 159.26 101.835 159.44 101.823 159.619Z" fill="#EA3A60"/>
<path d="M105.886 159.639C105.867 159.895 105.774 160.14 105.617 160.343C105.46 160.547 105.247 160.7 105.004 160.783C104.761 160.867 104.499 160.877 104.25 160.813C104.002 160.749 103.777 160.613 103.605 160.423C103.432 160.232 103.32 159.996 103.281 159.742C103.242 159.488 103.278 159.228 103.386 158.995C103.493 158.762 103.666 158.565 103.884 158.429C104.102 158.293 104.355 158.225 104.612 158.231C104.966 158.253 105.298 158.412 105.536 158.675C105.774 158.938 105.9 159.284 105.886 159.639Z" fill="#EA3A60"/>
<path d="M109.943 159.658C109.924 159.914 109.831 160.159 109.674 160.362C109.517 160.566 109.304 160.719 109.061 160.802C108.818 160.886 108.556 160.896 108.308 160.832C108.059 160.768 107.834 160.632 107.662 160.442C107.49 160.252 107.377 160.015 107.338 159.761C107.299 159.507 107.335 159.247 107.443 159.014C107.55 158.781 107.723 158.584 107.941 158.448C108.16 158.312 108.413 158.244 108.669 158.25C109.024 158.272 109.355 158.431 109.593 158.694C109.832 158.957 109.957 159.303 109.943 159.658Z" fill="#EA3A60"/>
<path d="M114 159.67C113.982 159.927 113.89 160.173 113.734 160.377C113.577 160.581 113.365 160.735 113.122 160.82C112.879 160.904 112.617 160.915 112.367 160.852C112.118 160.789 111.893 160.653 111.72 160.463C111.547 160.273 111.434 160.036 111.394 159.782C111.355 159.528 111.391 159.268 111.498 159.034C111.605 158.8 111.779 158.603 111.997 158.467C112.216 158.331 112.469 158.263 112.726 158.27C113.079 158.291 113.41 158.449 113.648 158.711C113.886 158.973 114.012 159.317 114 159.67Z" fill="#EA3A60"/>
<path d="M118.063 159.689C118.046 159.945 117.954 160.189 117.8 160.393C117.645 160.597 117.434 160.751 117.193 160.837C116.952 160.922 116.691 160.935 116.443 160.875C116.194 160.814 115.969 160.682 115.795 160.495C115.62 160.307 115.504 160.073 115.461 159.821C115.418 159.569 115.45 159.31 115.552 159.076C115.654 158.841 115.823 158.642 116.037 158.502C116.251 158.362 116.502 158.288 116.758 158.289C117.116 158.302 117.455 158.457 117.7 158.719C117.945 158.982 118.075 159.331 118.063 159.689Z" fill="#EA3A60"/>
<path d="M122.12 159.709C122.133 159.888 122.108 160.068 122.048 160.238C121.988 160.408 121.894 160.563 121.771 160.695C121.648 160.826 121.5 160.931 121.335 161.003C121.169 161.075 120.991 161.112 120.811 161.112C120.631 161.112 120.453 161.075 120.288 161.003C120.123 160.931 119.975 160.826 119.852 160.695C119.729 160.563 119.635 160.408 119.575 160.238C119.515 160.068 119.49 159.888 119.503 159.709C119.49 159.529 119.515 159.349 119.575 159.179C119.635 159.01 119.729 158.854 119.852 158.723C119.975 158.591 120.123 158.486 120.288 158.414C120.453 158.343 120.631 158.306 120.811 158.306C120.991 158.306 121.169 158.343 121.335 158.414C121.5 158.486 121.648 158.591 121.771 158.723C121.894 158.854 121.988 159.01 122.048 159.179C122.108 159.349 122.133 159.529 122.12 159.709Z" fill="#EA3A60"/>
<path d="M126.177 159.728C126.16 159.983 126.068 160.227 125.913 160.431C125.759 160.635 125.548 160.789 125.307 160.875C125.066 160.96 124.805 160.973 124.556 160.913C124.308 160.852 124.083 160.72 123.908 160.533C123.734 160.346 123.618 160.111 123.575 159.859C123.532 159.607 123.563 159.348 123.666 159.114C123.768 158.879 123.937 158.68 124.151 158.54C124.365 158.4 124.616 158.326 124.871 158.327C125.23 158.34 125.569 158.495 125.814 158.757C126.058 159.02 126.189 159.369 126.177 159.728Z" fill="#EA3A60"/>
<path d="M130.234 159.747C130.216 160.004 130.123 160.249 129.967 160.454C129.811 160.658 129.599 160.812 129.356 160.896C129.113 160.981 128.851 160.992 128.601 160.929C128.352 160.865 128.127 160.73 127.954 160.54C127.781 160.35 127.668 160.113 127.628 159.859C127.589 159.605 127.625 159.344 127.732 159.111C127.839 158.877 128.013 158.68 128.231 158.544C128.449 158.408 128.703 158.339 128.96 158.346C129.313 158.368 129.644 158.526 129.882 158.788C130.12 159.049 130.246 159.394 130.234 159.747Z" fill="#EA3A60"/>
<g opacity="0.2">
<path d="M97.7659 159.601C97.7471 159.857 97.6535 160.102 97.4968 160.305C97.34 160.509 97.1269 160.662 96.884 160.745C96.6411 160.829 96.379 160.839 96.1303 160.775C95.8815 160.711 95.6571 160.575 95.4847 160.385C95.3123 160.194 95.1997 159.958 95.1607 159.704C95.1217 159.45 95.1581 159.19 95.2654 158.957C95.3727 158.723 95.5461 158.527 95.7642 158.391C95.9823 158.255 96.2354 158.187 96.4922 158.193C96.847 158.213 97.1797 158.372 97.4181 158.635C97.6566 158.899 97.7815 159.246 97.7659 159.601Z" fill="white"/>
<path d="M101.823 159.62C101.835 159.799 101.811 159.98 101.751 160.149C101.691 160.319 101.596 160.474 101.474 160.606C101.351 160.737 101.202 160.842 101.037 160.914C100.872 160.986 100.694 161.023 100.514 161.023C100.334 161.023 100.156 160.986 99.991 160.914C99.8259 160.842 99.6774 160.737 99.5547 160.606C99.4319 160.474 99.3375 160.319 99.2774 160.149C99.2173 159.98 99.1928 159.799 99.2053 159.62C99.1928 159.44 99.2173 159.26 99.2774 159.091C99.3375 158.921 99.4319 158.765 99.5547 158.634C99.6774 158.502 99.8259 158.397 99.991 158.326C100.156 158.254 100.334 158.217 100.514 158.217C100.694 158.217 100.872 158.254 101.037 158.326C101.202 158.397 101.351 158.502 101.474 158.634C101.596 158.765 101.691 158.921 101.751 159.091C101.811 159.26 101.835 159.44 101.823 159.62Z" fill="white"/>
<path d="M105.886 159.639C105.867 159.895 105.774 160.14 105.617 160.343C105.46 160.547 105.247 160.7 105.004 160.783C104.761 160.867 104.499 160.877 104.25 160.813C104.002 160.749 103.777 160.613 103.605 160.423C103.432 160.232 103.32 159.996 103.281 159.742C103.242 159.488 103.278 159.228 103.386 158.995C103.493 158.762 103.666 158.565 103.884 158.429C104.102 158.293 104.355 158.225 104.612 158.231C104.966 158.253 105.298 158.412 105.536 158.675C105.774 158.938 105.9 159.284 105.886 159.639Z" fill="white"/>
<path d="M109.943 159.658C109.924 159.914 109.83 160.159 109.674 160.362C109.517 160.566 109.304 160.719 109.061 160.802C108.818 160.886 108.556 160.896 108.307 160.832C108.058 160.768 107.834 160.632 107.661 160.442C107.489 160.252 107.376 160.015 107.337 159.761C107.298 159.507 107.335 159.247 107.442 159.014C107.549 158.781 107.723 158.584 107.941 158.448C108.159 158.312 108.412 158.244 108.669 158.25C109.023 158.272 109.355 158.431 109.593 158.694C109.831 158.957 109.957 159.303 109.943 159.658Z" fill="white"/>
<path d="M114 159.67C113.982 159.927 113.89 160.173 113.734 160.377C113.577 160.581 113.365 160.735 113.122 160.82C112.879 160.904 112.617 160.915 112.367 160.852C112.118 160.789 111.893 160.653 111.72 160.463C111.547 160.273 111.434 160.036 111.394 159.782C111.355 159.528 111.391 159.268 111.498 159.034C111.605 158.8 111.779 158.603 111.997 158.467C112.216 158.331 112.469 158.263 112.726 158.27C113.079 158.291 113.41 158.449 113.648 158.711C113.886 158.973 114.012 159.317 114 159.67Z" fill="white"/>
<path d="M118.063 159.69C118.045 159.945 117.954 160.19 117.799 160.393C117.645 160.597 117.434 160.751 117.193 160.837C116.952 160.923 116.691 160.936 116.442 160.875C116.194 160.814 115.968 160.682 115.794 160.495C115.62 160.308 115.504 160.074 115.461 159.822C115.418 159.57 115.449 159.31 115.551 159.076C115.654 158.842 115.822 158.642 116.037 158.502C116.251 158.363 116.501 158.288 116.757 158.289C117.116 158.302 117.455 158.457 117.699 158.72C117.944 158.982 118.075 159.331 118.063 159.69Z" fill="white"/>
<path d="M122.12 159.709C122.132 159.888 122.108 160.068 122.048 160.238C121.988 160.408 121.893 160.563 121.77 160.695C121.648 160.826 121.499 160.931 121.334 161.003C121.169 161.075 120.991 161.112 120.811 161.112C120.631 161.112 120.453 161.075 120.288 161.003C120.123 160.931 119.974 160.826 119.852 160.695C119.729 160.563 119.634 160.408 119.574 160.238C119.514 160.068 119.49 159.888 119.502 159.709C119.49 159.529 119.514 159.349 119.574 159.179C119.634 159.01 119.729 158.854 119.852 158.723C119.974 158.591 120.123 158.486 120.288 158.414C120.453 158.343 120.631 158.306 120.811 158.306C120.991 158.306 121.169 158.343 121.334 158.414C121.499 158.486 121.648 158.591 121.77 158.723C121.893 158.854 121.988 159.01 122.048 159.179C122.108 159.349 122.132 159.529 122.12 159.709Z" fill="white"/>
<path d="M126.177 159.728C126.159 159.983 126.068 160.228 125.913 160.432C125.758 160.635 125.548 160.79 125.306 160.875C125.065 160.961 124.804 160.974 124.556 160.913C124.307 160.852 124.082 160.72 123.908 160.533C123.733 160.346 123.618 160.112 123.574 159.86C123.531 159.608 123.563 159.349 123.665 159.114C123.768 158.88 123.936 158.68 124.15 158.54C124.365 158.401 124.615 158.327 124.871 158.327C125.23 158.34 125.569 158.495 125.813 158.758C126.058 159.02 126.189 159.369 126.177 159.728Z" fill="white"/>
<path d="M130.234 159.747C130.216 160.004 130.123 160.249 129.967 160.454C129.811 160.658 129.599 160.812 129.356 160.896C129.113 160.981 128.851 160.992 128.601 160.929C128.352 160.865 128.127 160.73 127.954 160.54C127.781 160.35 127.668 160.113 127.628 159.859C127.589 159.605 127.625 159.344 127.732 159.111C127.839 158.877 128.013 158.68 128.231 158.544C128.449 158.408 128.703 158.339 128.96 158.346C129.313 158.368 129.644 158.526 129.882 158.788C130.12 159.049 130.246 159.394 130.234 159.747Z" fill="white"/>
</g>
<path d="M124.47 67.8225C124.912 67.6277 125.288 67.3071 125.549 66.9006C125.811 66.4942 125.947 66.0198 125.941 65.5365C125.958 65.2223 125.91 64.908 125.801 64.6129C125.692 64.3177 125.524 64.0478 125.308 63.8196C125.091 63.5913 124.83 63.4096 124.541 63.2854C124.252 63.1612 123.941 63.0972 123.626 63.0972C123.312 63.0972 123 63.1612 122.711 63.2854C122.422 63.4096 122.161 63.5913 121.945 63.8196C121.728 64.0478 121.56 64.3177 121.451 64.6129C121.342 64.908 121.295 65.2223 121.311 65.5365C121.301 66.0246 121.437 66.5047 121.7 66.9161C121.963 67.3275 122.342 67.6517 122.789 67.8479C119.222 68.3828 119.381 72.2544 119.381 72.2544L127.814 72.2926C127.814 72.2926 128.011 68.351 124.47 67.8225Z" fill="#EA3A60"/>
<path opacity="0.1" d="M124.47 67.8225C124.912 67.6277 125.288 67.3071 125.549 66.9006C125.811 66.4942 125.947 66.0198 125.941 65.5365C125.958 65.2223 125.91 64.908 125.801 64.6129C125.692 64.3177 125.524 64.0478 125.308 63.8196C125.091 63.5913 124.83 63.4096 124.541 63.2854C124.252 63.1612 123.941 63.0972 123.626 63.0972C123.312 63.0972 123 63.1612 122.711 63.2854C122.422 63.4096 122.161 63.5913 121.945 63.8196C121.728 64.0478 121.56 64.3177 121.451 64.6129C121.342 64.908 121.295 65.2223 121.311 65.5365C121.301 66.0246 121.437 66.5047 121.7 66.9161C121.963 67.3275 122.342 67.6517 122.789 67.8479C119.222 68.3828 119.381 72.2544 119.381 72.2544L127.814 72.2926C127.814 72.2926 128.011 68.351 124.47 67.8225Z" fill="black"/>
<path d="M138.172 74.7897L108.118 74.6533L108.102 78.2447L138.156 78.381L138.172 74.7897Z" fill="#EA3A60"/>
<path opacity="0.2" d="M138.172 74.7897L108.118 74.6533L108.102 78.2447L138.156 78.381L138.172 74.7897Z" fill="white"/>
<path d="M27.6849 93.4014H27.3855L26.5194 93.4651C26.0507 93.4932 25.5845 93.555 25.1246 93.6498C24.8268 93.6916 24.5313 93.749 24.2394 93.8217L23.2522 94.0955C21.5721 94.6109 19.9868 95.3959 18.5585 96.4197C16.6714 97.7893 15.0956 99.5427 13.9348 101.565C13.2525 102.73 12.7096 103.972 12.3171 105.264C11.9048 106.669 11.6673 108.119 11.6102 109.582C11.5723 110.35 11.585 111.12 11.6484 111.887C11.6484 112.275 11.7567 112.664 11.8077 113.059C11.8505 113.457 11.925 113.85 12.0306 114.237C12.6032 116.792 13.7652 119.178 15.4239 121.204C17.0825 123.231 19.1918 124.842 21.5836 125.909C23.3147 126.655 25.1701 127.072 27.0544 127.138C29.0005 127.245 30.9485 126.965 32.7862 126.316L33.3466 126.106H33.4231L33.4868 126.144L41.5177 130.22L41.2821 130.423C40.4223 127.762 39.5944 125.183 38.7919 122.706V122.61L38.862 122.54C40.8101 120.578 42.2564 118.175 43.078 115.536C43.8222 113.122 44.0394 110.577 43.7149 108.073C43.4263 105.847 42.7105 103.698 41.6069 101.743C40.6556 100.064 39.4284 98.5573 37.9767 97.2857C36.779 96.2792 35.4535 95.4356 34.0345 94.7768C32.9608 94.3138 31.8426 93.9618 30.6973 93.7262L29.4235 93.516L28.5001 93.446L27.9396 93.4078H27.7485C27.812 93.4007 27.8761 93.4007 27.9396 93.4078H28.5064L29.4299 93.446L30.7036 93.6306C31.8632 93.849 32.9967 94.1884 34.0854 94.6431C35.5288 95.2941 36.8783 96.1358 38.0977 97.1456C39.576 98.4116 40.8293 99.9187 41.8043 101.603C42.9392 103.579 43.677 105.757 43.976 108.015C44.3275 110.559 44.1254 113.148 43.3837 115.606C42.5567 118.3 41.0881 120.754 39.104 122.757L39.1422 122.591C39.9446 125.068 40.7789 127.647 41.6451 130.302L41.7661 130.691L41.4031 130.506L33.3721 126.437H33.5122L32.9391 126.647C31.066 127.306 29.0819 127.592 27.0989 127.488C25.1741 127.415 23.2799 126.983 21.5136 126.214C18.1443 124.772 15.3412 122.264 13.5336 119.076C12.7018 117.604 12.0943 116.016 11.7312 114.364C11.6318 113.968 11.5574 113.566 11.5083 113.16C11.4574 112.759 11.3746 112.364 11.3555 111.97C11.1831 109.704 11.4226 107.426 12.0624 105.245C12.4646 103.935 13.0227 102.678 13.7246 101.501C14.9131 99.4607 16.5217 97.6961 18.4439 96.3242C19.8957 95.2977 21.5076 94.5188 23.214 94.0191L24.2139 93.7644C24.5082 93.6961 24.8058 93.643 25.1055 93.6052C25.5702 93.5192 26.0407 93.4681 26.513 93.4524L27.3855 93.4205C27.4847 93.4072 27.5848 93.4008 27.6849 93.4014Z" fill="#EA3A60"/>
<path d="M31.3152 108.251H30.137L27.5895 104.673V102.323C27.5895 102.323 25.768 102.208 25.9846 105.284C26.2011 108.359 25.9846 107.576 25.9846 107.576C25.9846 107.576 22.1188 107.576 21.8003 107.926C21.4819 108.277 21.4628 112.008 21.4182 114.09C21.3938 114.592 21.5378 115.088 21.8275 115.499C22.1171 115.909 22.5357 116.212 23.0167 116.357C23.1516 116.395 23.2908 116.414 23.4307 116.415C24.3987 116.415 29.3218 115.631 29.3218 115.631H31.3534L31.3152 108.251Z" fill="#EA3A60"/>
<path d="M34.6839 107.621L33.9578 115.669H31.9453V107.786L34.6839 107.621Z" fill="#EA3A60"/>
<path d="M58.6873 271.481V266.037L48.9241 265.967L48.8413 274.2L49.4463 274.245C52.1403 274.417 63.1518 274.671 64.9605 274.111C66.973 273.487 58.6873 271.481 58.6873 271.481Z" fill="#EA3A60"/>
<path d="M65.1902 273.602C65.1902 273.691 61.5345 273.767 57.0319 273.767C52.5292 273.767 48.8735 273.691 48.8735 273.602C48.8735 273.512 52.5292 273.436 57.0319 273.436C61.5345 273.436 65.1902 273.512 65.1902 273.602Z" fill="#263238"/>
<path d="M58.8595 272.595C58.7767 272.551 58.8595 272.264 59.057 271.959C59.2544 271.653 59.5219 271.526 59.5856 271.589C59.6493 271.653 59.5155 271.895 59.3244 272.156C59.1334 272.417 58.9423 272.64 58.8595 272.595Z" fill="#263238"/>
<path d="M59.4836 272.952C59.3944 272.952 59.439 272.595 59.6301 272.258C59.8211 271.92 60.0759 271.717 60.1459 271.768C60.216 271.818 60.1013 272.105 59.923 272.404C59.7447 272.704 59.5664 272.984 59.4836 272.952Z" fill="#263238"/>
<path d="M51.8158 273.576C51.7776 273.576 51.6311 273.461 51.421 273.219C51.1644 272.908 50.8786 272.622 50.5676 272.366C50.2617 272.122 49.8972 271.961 49.5104 271.901C49.211 271.863 49.02 271.901 49.0009 271.863C48.9818 271.825 49.1664 271.691 49.5167 271.665C49.979 271.656 50.4299 271.809 50.7905 272.098C51.1283 272.374 51.4131 272.708 51.6311 273.085C51.7776 273.366 51.854 273.55 51.8158 273.576Z" fill="#263238"/>
<path d="M58.8914 271.57C58.936 271.647 58.7704 271.838 58.4902 271.94C58.2099 272.041 57.9616 272.003 57.9488 271.94C57.9361 271.876 58.1335 271.742 58.3755 271.653C58.6175 271.564 58.8404 271.494 58.8914 271.57Z" fill="#263238"/>
<path d="M58.7384 271.042C58.7384 271.137 58.4836 271.214 58.1524 271.22C57.8213 271.227 57.5602 271.15 57.5665 271.061C57.5729 270.972 57.834 270.889 58.1524 270.883C58.4709 270.876 58.7256 270.953 58.7384 271.042Z" fill="#263238"/>
<path d="M82.7293 271.481V266.037L72.9661 265.967L72.8833 274.117L73.4883 274.162C76.1823 274.334 87.2002 274.671 89.0025 274.111C91.015 273.487 82.7293 271.481 82.7293 271.481Z" fill="#EA3A60"/>
<path d="M89.2317 273.614C89.2317 273.703 85.5824 273.78 81.0733 273.78C76.5643 273.78 72.9214 273.703 72.9214 273.614C72.9214 273.525 76.5707 273.449 81.0733 273.449C85.576 273.449 89.2317 273.525 89.2317 273.614Z" fill="#263238"/>
<path d="M82.9012 272.595C82.8248 272.551 82.9012 272.264 83.0987 271.959C83.2961 271.653 83.5636 271.526 83.6273 271.589C83.691 271.653 83.5572 271.895 83.3662 272.156C83.1751 272.417 82.984 272.64 82.9012 272.595Z" fill="#263238"/>
<path d="M83.5254 272.952C83.4426 272.952 83.4809 272.595 83.6783 272.258C83.8757 271.92 84.1241 271.717 84.1942 271.768C84.2642 271.818 84.1432 272.105 83.9649 272.404C83.7866 272.704 83.6146 272.984 83.5254 272.952Z" fill="#263238"/>
<path d="M75.8573 273.576C75.8191 273.576 75.679 273.461 75.4625 273.219C75.2059 272.908 74.9201 272.622 74.6091 272.366C74.3032 272.122 73.9387 271.961 73.5519 271.901C73.2589 271.863 73.0615 271.901 73.0424 271.863C73.0233 271.825 73.2079 271.691 73.5582 271.665C74.0205 271.656 74.4714 271.809 74.832 272.098C75.1715 272.372 75.4567 272.707 75.6726 273.085C75.8191 273.366 75.8955 273.55 75.8573 273.576Z" fill="#263238"/>
<path d="M82.9334 271.57C82.978 271.647 82.8124 271.838 82.5322 271.94C82.2519 272.041 82.0036 272.003 81.9908 271.94C81.9781 271.876 82.1755 271.742 82.4175 271.653C82.6595 271.564 82.8824 271.494 82.9334 271.57Z" fill="#263238"/>
<path d="M82.793 271.042C82.793 271.137 82.5383 271.214 82.2071 271.22C81.8759 271.227 81.6212 271.15 81.6276 271.061C81.6339 270.972 81.8887 270.889 82.2071 270.883C82.5255 270.876 82.793 270.953 82.793 271.042Z" fill="#263238"/>
<path d="M118.7 109.805C118.445 109.544 117.815 109.671 117.815 109.671C117.878 109.305 117.878 108.93 117.815 108.563C117.7 108.207 116.898 108.277 116.898 108.277C116.861 107.976 116.861 107.673 116.898 107.372C116.904 107.306 116.89 107.239 116.857 107.181C116.824 107.123 116.773 107.076 116.713 107.048C116.333 106.893 115.925 106.819 115.516 106.831C115.025 106.481 117.012 103.698 117.751 102.807C118.49 101.915 118.356 101.221 117.7 101.221C117.248 101.221 114.93 103.896 114.216 104.793C113.503 105.691 111.612 108.187 111.548 106.194C111.484 104.201 110.682 102.698 110.179 102.444C109.675 102.189 109.14 102.788 109.414 103.342C109.655 103.971 109.805 104.631 109.86 105.303C109.929 105.838 109.906 106.381 109.79 106.908C109.579 107.888 109.291 108.85 108.93 109.786H108.879C108.879 109.786 94.9828 123.113 93.9765 124.062C93.0786 124.915 75.0169 123.05 71.3931 122.668C70.1617 122.487 68.9182 122.402 67.6737 122.413C66.1007 122.483 65.8204 122.706 64.2537 122.725C60.2971 122.769 56.3497 123.116 52.4462 123.763C50.6786 124.063 49.0275 124.843 47.6731 126.018C46.3187 127.193 45.3129 128.716 44.7655 130.424C41.1162 141.822 32.8496 168.802 31.3912 183.957C30.2891 185.955 29.2942 188.011 28.4106 190.114C27.3853 192.904 27.6336 192.999 27.9775 193.063C28.9074 193.235 29.9646 188.23 30.3594 189.439C30.7543 190.649 28.3533 195.406 29.3277 195.546C30.6015 195.724 31.6141 190.452 31.7351 190.032C31.8561 189.611 32.4866 189.745 32.372 190.14C32.1873 190.7 30.3977 196.641 31.6459 196.832C32.3337 196.934 32.4102 195.68 32.4102 195.68C32.4102 195.68 33.6839 189.993 34.2635 190.108C34.843 190.223 34.2253 193.578 33.9323 194.699C33.6393 195.82 34.0469 196.387 34.6456 196.113C35.0532 195.922 36.0276 192.515 36.2951 191.407C36.5626 190.299 37.2313 187.23 38.1293 189.006C39.0273 190.783 40.3902 191.815 40.9506 191.84C41.0769 191.826 41.1959 191.774 41.2924 191.691C41.3889 191.608 41.4584 191.498 41.4919 191.376C41.5255 191.253 41.5216 191.123 41.4808 191.003C41.4399 190.882 41.3639 190.777 41.2627 190.7C40.7806 190.23 40.3669 189.694 40.0335 189.108C39.7364 188.652 39.5209 188.148 39.3967 187.618C39.14 186.562 38.9907 185.483 38.9508 184.396L38.8489 183.759C40.2755 176.698 44.3834 155.971 50.3126 142.732L52.7455 147.737L53.8027 151.443L47.3193 167.445L74.9723 167.082L70.8454 151.201L75.8575 134.645C81.2773 134.766 95.193 134.97 97.5112 133.919C100.428 132.646 115.516 113.594 115.516 113.594C116.499 112.83 117.441 112.013 118.337 111.148C118.337 111.148 119.254 110.378 118.7 109.805Z" fill="#FFBE9D"/>
<path d="M46.1027 155.62C46.9052 152.882 51.0257 139.345 51.0257 139.345C51.0257 139.345 53.051 150.38 52.516 151.711C52.0239 152.85 51.4425 153.949 50.7773 154.996C46.1027 162.109 46.7141 165.669 46.7141 165.669L74.9593 164.809C75.023 160.861 72.6857 151.679 72.2017 150.214C71.7177 148.75 73.3289 143.955 73.3289 143.955C73.3289 143.955 76.5133 140.714 76.3987 139.045C76.3382 137.547 76.1528 136.056 75.8446 134.588L93.0401 135.225L92.4988 123.572L67.8009 121.101C66.9411 123.527 59.1649 122.336 59.1649 122.336C50.771 122.617 50.2487 124.158 46.7587 126.87C43.2686 129.583 37.4922 152.863 37.4922 152.863L46.1027 155.62Z" fill="#EA3A60"/>
<path d="M62.8018 152.863C62.3124 152.95 61.8138 152.976 61.3179 152.939C60.3945 152.939 59.1271 152.876 57.7323 152.736C56.3376 152.596 55.0766 152.398 54.1786 152.22C53.6835 152.156 53.198 152.032 52.7329 151.851C53.2308 151.851 53.7277 151.898 54.2168 151.991C55.1212 152.105 56.3758 152.264 57.7642 152.405C59.1526 152.545 60.4136 152.64 61.3243 152.704C61.8207 152.71 62.3155 152.763 62.8018 152.863Z" fill="#263238"/>
<path d="M64.7379 150.463C64.2482 150.703 63.7304 150.88 63.1966 150.991C60.6557 151.659 58.0343 151.97 55.4077 151.915C54.8642 151.932 54.3206 151.881 53.79 151.762C54.3265 151.694 54.8672 151.667 55.4077 151.679C56.4076 151.647 57.7832 151.577 59.299 151.399C60.8147 151.221 62.1649 150.966 63.1202 150.762C63.6508 150.621 64.1917 150.52 64.7379 150.463Z" fill="#263238"/>
<path d="M74.2397 139.752C74.2268 140.237 74.1606 140.72 74.0423 141.191C73.8767 142.076 73.622 143.286 73.2972 144.611C72.9724 145.935 72.6603 147.158 72.3801 147.985C72.2674 148.459 72.1007 148.919 71.8833 149.354C71.9188 148.87 72.0085 148.392 72.1508 147.928C72.3928 146.935 72.6667 145.789 72.9724 144.534C73.2781 143.28 73.571 142.133 73.813 141.14C73.8992 140.662 74.0425 140.196 74.2397 139.752Z" fill="#263238"/>
<path d="M46.402 153.997C44.9287 153.769 43.4746 153.431 42.0522 152.984C40.5988 152.644 39.1725 152.197 37.7852 151.647C39.2578 151.878 40.7116 152.217 42.135 152.659C43.5887 152.998 45.0151 153.445 46.402 153.997Z" fill="#263238"/>
<path d="M76.1506 134.448C75.9104 134.489 75.6648 134.489 75.4246 134.448C74.7593 134.38 74.1061 134.223 73.4821 133.983C72.4403 133.592 71.4918 132.987 70.6977 132.207C69.9036 131.427 69.2815 130.49 68.8712 129.456C68.4176 128.318 68.224 127.093 68.3043 125.87C68.3327 124.862 68.6343 123.881 69.1768 123.03C69.5585 122.458 70.1285 122.036 70.7881 121.84C70.9644 121.791 71.1466 121.768 71.3295 121.77C71.4569 121.77 71.5205 121.77 71.5205 121.77C71.5205 121.77 71.2531 121.77 70.8264 121.942C70.2212 122.165 69.7079 122.584 69.3679 123.132C68.5018 124.495 68.2598 126.985 69.1832 129.309C69.613 130.405 70.2859 131.389 71.1512 132.187C71.8601 132.84 72.6767 133.366 73.5649 133.741C74.3984 134.07 75.2655 134.307 76.1506 134.448Z" fill="#263238"/>
<path d="M90.996 134.995C90.8367 133.043 90.7857 131.083 90.8432 129.124C90.7933 127.168 90.8528 125.21 91.0215 123.26C91.1809 125.21 91.232 127.168 91.1743 129.124C91.2279 131.083 91.1683 133.044 90.996 134.995Z" fill="#263238"/>
<path d="M67.6354 121.814C67.7055 120.394 67.8519 118.79 67.8519 118.79C67.8519 118.79 71.3675 118.401 71.5776 114.772C71.7878 111.142 71.5776 102.769 71.5776 102.769L65.2089 99.5083L58.1396 105.067L59.2287 123.215L65.7121 123.629C66.2076 123.643 66.6884 123.46 67.049 123.119C67.4095 122.779 67.6204 122.31 67.6354 121.814Z" fill="#FFBE9D"/>
<path d="M68.266 111.9C68.266 111.9 68.266 111.97 68.2087 112.052C68.1613 112.113 68.1 112.16 68.0301 112.191C67.9602 112.222 67.8838 112.236 67.8075 112.231C67.3999 112.231 67.005 111.76 66.8649 111.212C66.7983 110.946 66.7983 110.669 66.8649 110.403C66.878 110.287 66.9197 110.177 66.9865 110.081C67.0532 109.985 67.1428 109.908 67.247 109.856C67.3327 109.82 67.4288 109.82 67.5145 109.856C67.578 109.887 67.6294 109.939 67.661 110.002C67.7056 110.11 67.661 110.18 67.661 110.174C67.661 110.168 67.661 110.11 67.5973 110.047C67.564 110.001 67.515 109.969 67.4598 109.958C67.4046 109.946 67.3469 109.955 67.298 109.983C67.2198 110.03 67.1549 110.096 67.1093 110.175C67.0636 110.255 67.0387 110.344 67.0368 110.435C66.9832 110.672 66.9832 110.918 67.0368 111.155C67.1642 111.651 67.5081 112.052 67.8138 112.091C67.8736 112.099 67.9345 112.095 67.9925 112.078C68.0506 112.062 68.1047 112.033 68.1514 111.995C68.2278 111.944 68.2533 111.893 68.266 111.9Z" fill="#EB996E"/>
<path d="M73.7621 100.807C73.2717 99.1389 71.4949 98.3111 69.8772 97.8526C67.4125 97.1522 64.7504 96.8465 62.343 97.7316C59.9356 98.6167 57.0442 100.17 57.0442 102.826C55.624 102.711 54.8088 103.953 54.2484 105.494C53.89 106.433 53.6753 107.42 53.6115 108.423C53.4332 111.9 52.4588 116.701 50.2042 119.248C48.9305 120.668 47.1664 121.649 46.4403 123.419C45.8035 124.954 46.1346 126.775 45.5423 128.328C45.0137 129.698 43.8483 130.672 42.9948 131.863C42.1254 133.213 41.6137 134.763 41.5079 136.366C41.4021 137.969 41.7055 139.572 42.3898 141.026C43.079 142.442 44.0494 143.703 45.2417 144.732C46.4341 145.761 47.8235 146.537 49.3253 147.011C52.3002 147.916 55.4725 147.947 58.4645 147.101C60.7099 146.564 62.8046 145.525 64.5912 144.063C66.4192 142.571 67.6747 140.492 68.1449 138.179C68.5971 135.581 67.8711 132.939 67.3297 130.353C65.6356 122.184 66.1197 121.757 68.2595 114.173C68.3105 114.039 68.336 113.899 68.3742 113.766C68.4124 113.632 68.4315 113.568 68.457 113.466C68.5178 113.166 68.5497 112.862 68.5525 112.556C68.24 112.672 67.9007 112.696 67.5747 112.627C67.2486 112.557 66.9493 112.395 66.7119 112.161C66.474 111.911 66.3081 111.602 66.2319 111.265C66.1556 110.929 66.1719 110.578 66.2789 110.251C66.4291 109.892 66.653 109.569 66.9361 109.302C67.2191 109.036 67.555 108.832 67.922 108.703C68.6289 108.41 69.3868 108.257 70.081 107.933C71.5522 107.232 72.5712 105.78 73.2654 104.259C73.8361 103.204 74.0122 101.98 73.7621 100.807Z" fill="#263238"/>
<path d="M68.5207 112.072C68.6553 112.271 68.7664 112.484 68.8519 112.709C69.0429 113.11 69.2977 113.676 69.5779 114.332L69.6288 114.453H69.4951L68.8582 114.511C68.4188 114.511 68.0494 114.593 67.6163 114.587C67.5786 114.579 67.5437 114.561 67.5147 114.535C67.4858 114.509 67.4638 114.477 67.4507 114.441C67.4318 114.383 67.4318 114.32 67.4507 114.262C67.4655 114.176 67.4846 114.091 67.5081 114.008L67.6227 113.555C67.6803 113.254 67.77 112.959 67.8902 112.677C67.8783 112.984 67.8335 113.289 67.7564 113.587L67.6673 114.039C67.6354 114.192 67.5781 114.428 67.6673 114.409C67.9857 114.409 68.4379 114.339 68.8582 114.313L69.4951 114.256L69.4123 114.396C69.1385 113.759 68.9092 113.161 68.7754 112.747C68.6581 112.535 68.5723 112.308 68.5207 112.072Z" fill="#EA3A60"/>
<path d="M46.7143 165.669L74.9596 164.809L87.2512 212.783L84.9903 267.813H70.0557L71.8835 213.955L60.9611 180.556L62.6425 269.946L47.5486 270.169L45.9628 186.147C45.8928 183.81 45.1285 178.544 45.4151 176.226L46.7143 165.669Z" fill="#263238"/>
<path d="M64.7184 181.238C64.2561 181.267 63.792 181.239 63.3364 181.155C62.483 181.053 61.3175 180.875 60.0374 180.62C58.7573 180.366 57.611 180.073 56.783 179.837C56.3404 179.74 55.9123 179.586 55.5093 179.379C55.5093 179.283 57.5855 179.78 60.133 180.296C62.6804 180.811 64.7312 181.142 64.7184 181.238Z" fill="#455A64"/>
<path d="M84.8376 264.795C84.8376 264.884 81.4558 264.961 77.2843 264.961C73.1128 264.961 69.7246 264.884 69.7246 264.795C69.7246 264.706 73.1064 264.629 77.2843 264.629C81.4622 264.629 84.8376 264.699 84.8376 264.795Z" fill="#455A64"/>
<path d="M62.5089 267.622C62.5089 267.718 59.2227 267.788 55.1722 267.788C51.1217 267.788 47.8418 267.718 47.8418 267.622C47.8418 267.527 51.1281 267.457 55.1722 267.457C59.2163 267.457 62.5089 267.533 62.5089 267.622Z" fill="#455A64"/>
<path d="M60.5598 267.393C60.4707 267.393 60.0758 247.863 59.6746 223.774C59.2733 199.685 59.0377 180.143 59.1205 180.143C59.2033 180.143 59.6109 199.666 60.0058 223.768C60.4006 247.87 60.6554 267.393 60.5598 267.393Z" fill="#455A64"/>
<path d="M82.8315 264.795C82.8245 264.708 82.8245 264.621 82.8315 264.534V263.77C82.8315 263.082 82.8825 262.095 82.9207 260.841C83.0098 258.294 83.1372 254.594 83.2964 250.06C83.6403 240.942 84.1244 228.372 84.653 214.497C84.653 214.363 84.653 214.235 84.653 214.121V214.165C81.3094 200.793 78.2843 188.656 76.0871 179.875L73.5396 169.49C73.2466 168.273 73.0237 167.325 72.8645 166.662C72.7881 166.35 72.7371 166.108 72.6925 165.924C72.6677 165.841 72.6528 165.755 72.6479 165.669C72.681 165.749 72.7066 165.832 72.7244 165.917C72.7753 166.096 72.839 166.338 72.9282 166.643C73.1001 167.28 73.3485 168.248 73.6669 169.458C74.3038 171.916 75.2018 175.456 76.3227 179.818C78.539 188.593 81.596 200.698 84.9841 214.089V214.134C84.9841 214.248 84.9841 214.382 84.9841 214.509C84.4173 228.385 83.9015 240.948 83.5257 250.067C83.3283 254.607 83.1627 258.281 83.0481 260.841C82.9844 262.114 82.9334 263.082 82.9016 263.77C82.9016 264.095 82.8634 264.349 82.857 264.534C82.8579 264.622 82.8494 264.709 82.8315 264.795Z" fill="#455A64"/>
<path d="M77.9594 213C76.8867 213.353 75.7816 213.598 74.6604 213.732C73.2848 213.968 72.113 214.133 71.5844 214.159V214.032C71.7563 214.083 71.8455 214.114 71.8455 214.14C71.8455 214.165 71.7372 214.14 71.5589 214.14H71.1768L71.5589 214.025C72.0556 213.879 73.2275 213.637 74.6031 213.388C75.7064 213.149 76.8306 213.019 77.9594 213Z" fill="#455A64"/>
<path d="M77.6983 214.828C76.7049 214.873 75.7095 214.828 74.7242 214.694C73.7293 214.673 72.7383 214.565 71.7627 214.369C73.753 214.207 75.7566 214.361 77.6983 214.828Z" fill="#455A64"/>
<path opacity="0.2" d="M46.5933 166.681C46.9278 167.111 47.3491 167.465 47.8298 167.72C48.3104 167.976 48.8396 168.128 49.3828 168.165C50.5203 168.3 51.671 168.278 52.8028 168.101C60.0949 167.292 67.8202 166.547 74.9595 164.809C65.7185 165.325 55.9553 165.153 46.7143 165.669L46.6187 166.458" fill="black"/>
<g opacity="0.2">
<path d="M56.1147 179.703L61.3243 199.914L60.9613 180.556L56.1147 179.703Z" fill="black"/>
</g>
</svg>
