<svg width="219" height="76" viewBox="0 0 219 76" fill="none" xmlns="http://www.w3.org/2000/svg">
<path fill-rule="evenodd" clip-rule="evenodd" d="M6.09473 17.2253V30.2031H17.028V41.2453H17.0984H29.8778V30.2031H40.7981V17.2973V17.2253H29.8778V6.18311H17.028V17.2253H6.09473Z" fill="white"/>
<path fill-rule="evenodd" clip-rule="evenodd" d="M42.7276 17.2251V30.2029C49.8245 30.2029 55.5774 36.0134 55.5774 43.1809C55.5774 50.3485 49.8243 56.1587 42.7276 56.1587C35.6308 56.1587 29.8776 50.3483 29.8776 43.1809H17.0278V56.1587V69.1368H29.8776H42.7276C47.4085 69.1368 51.7974 67.8727 55.5774 65.6643C59.479 63.3849 62.7323 60.0992 64.9893 56.1587C67.1758 52.3411 68.4275 47.9085 68.4275 43.1809C68.4275 38.4532 67.1758 34.0208 64.9893 30.2029C62.7323 26.2625 59.479 22.9767 55.5774 20.6975C51.7974 18.489 47.4085 17.2251 42.7276 17.2251Z" fill="white"/>
<path d="M90.6441 69.1366C87.3656 69.1366 84.4168 68.4303 81.798 67.0176C79.1789 65.6049 77.12 63.5867 75.6205 60.963C74.1212 58.3395 73.3716 55.2718 73.3716 51.7601C73.3716 48.2889 74.1313 45.2313 75.6507 42.5875C77.1701 39.9437 79.249 37.9154 81.8878 36.5027C84.5267 35.09 87.4853 34.3836 90.764 34.3836C94.0425 34.3836 97.0013 35.09 99.6401 36.5027C102.279 37.9154 104.358 39.9437 105.877 42.5875C107.397 45.2313 108.156 48.2889 108.156 51.7601C108.156 55.2314 107.387 58.289 105.847 60.9328C104.308 63.5765 102.209 65.6047 99.55 67.0176C96.8912 68.4303 93.9226 69.1366 90.6439 69.1366H90.6441ZM90.6441 60.1759C92.6033 60.1759 94.2726 59.4494 95.6519 57.9964C97.0313 56.5433 97.7211 54.4646 97.7211 51.7601C97.7211 49.0559 97.0514 46.977 95.7118 45.5242C94.3724 44.0708 92.723 43.3444 90.764 43.3444C88.7648 43.3444 87.1056 44.0609 85.7861 45.4939C84.4666 46.9267 83.807 49.0155 83.807 51.7604C83.807 54.4649 84.4566 56.5435 85.756 57.9966C87.0553 59.4497 88.6849 60.1761 90.6439 60.1761L90.6441 60.1759ZM123.87 40.4987C125.069 38.6418 126.569 37.1788 128.368 36.1092C130.167 35.0397 132.166 34.5046 134.365 34.5046V45.4635H131.546C128.987 45.4635 127.068 46.0187 125.789 47.1286C124.51 48.2386 123.87 50.1862 123.87 52.9712V68.6525H113.614V34.868H123.87V40.4989V40.4987ZM137.244 51.6997C137.244 48.2284 137.894 45.181 139.193 42.5573C140.492 39.9336 142.262 37.9156 144.501 36.5027C146.74 35.09 149.239 34.3836 151.997 34.3836C154.356 34.3836 156.425 34.8678 158.204 35.8367C159.984 36.8054 161.353 38.0769 162.312 39.6511V34.868H172.568V68.6525H162.312V63.8694C161.313 65.4434 159.924 66.7149 158.144 67.6836C156.365 68.6523 154.296 69.1366 151.937 69.1366C149.218 69.1366 146.739 68.4204 144.5 66.9871C142.261 65.5544 140.492 63.5159 139.193 60.8721C137.893 58.2283 137.244 55.1707 137.244 51.6995L137.244 51.6997ZM162.313 51.7601C162.313 49.1768 161.603 47.1385 160.184 45.6451C158.764 44.1516 157.035 43.4049 154.996 43.4049C152.957 43.4049 151.227 44.1417 149.808 45.6148C148.389 47.088 147.679 49.1164 147.679 51.6997C147.679 54.2828 148.389 56.3315 149.808 57.845C151.227 59.3588 152.957 60.1154 154.996 60.1154C157.035 60.1154 158.764 59.3687 160.184 57.8752C161.603 56.3818 162.313 54.3432 162.313 51.7601ZM200.576 34.5046C204.415 34.5046 207.493 35.7862 209.812 38.3492C212.131 40.9122 213.291 44.4341 213.291 48.9144V68.6523H203.095V50.3071C203.095 48.0468 202.516 46.291 201.356 45.0396C200.197 43.7884 198.637 43.1628 196.678 43.1628C194.719 43.1628 193.159 43.7884 192 45.0396C190.84 46.291 190.261 48.0466 190.261 50.3071V68.6523H180.005V23.8486H190.261V39.4088C191.3 37.9154 192.719 36.7247 194.519 35.8367C196.318 34.9488 198.337 34.5046 200.576 34.5046H200.576Z" fill="white"/>
</svg>
