<svg width="157" height="14" viewBox="0 0 157 14" fill="none" xmlns="http://www.w3.org/2000/svg">
<path d="M8.88 5.192C8.624 4.72267 8.272 4.36533 7.824 4.12C7.376 3.87467 6.85333 3.752 6.256 3.752C5.59467 3.752 5.008 3.90133 4.496 4.2C3.984 4.49867 3.584 4.92533 3.296 5.48C3.008 6.03467 2.864 6.67467 2.864 7.4C2.864 8.14667 3.008 8.79733 3.296 9.352C3.59467 9.90667 4.00533 10.3333 4.528 10.632C5.05067 10.9307 5.65867 11.08 6.352 11.08C7.20533 11.08 7.904 10.856 8.448 10.408C8.992 9.94933 9.34933 9.31467 9.52 8.504H5.68V6.792H11.728V8.744C11.5787 9.52267 11.2587 10.2427 10.768 10.904C10.2773 11.5653 9.64267 12.0987 8.864 12.504C8.096 12.8987 7.232 13.096 6.272 13.096C5.19467 13.096 4.21867 12.856 3.344 12.376C2.48 11.8853 1.79733 11.208 1.296 10.344C0.805333 9.48 0.56 8.49867 0.56 7.4C0.56 6.30133 0.805333 5.32 1.296 4.456C1.79733 3.58133 2.48 2.904 3.344 2.424C4.21867 1.93333 5.18933 1.688 6.256 1.688C7.51467 1.688 8.608 1.99733 9.536 2.616C10.464 3.224 11.104 4.08267 11.456 5.192H8.88ZM14.5213 3.08C14.1266 3.08 13.7959 2.95733 13.5293 2.712C13.2733 2.456 13.1453 2.14133 13.1453 1.768C13.1453 1.39467 13.2733 1.08533 13.5293 0.839999C13.7959 0.583999 14.1266 0.455999 14.5213 0.455999C14.9159 0.455999 15.2413 0.583999 15.4973 0.839999C15.7639 1.08533 15.8973 1.39467 15.8973 1.768C15.8973 2.14133 15.7639 2.456 15.4973 2.712C15.2413 2.95733 14.9159 3.08 14.5213 3.08ZM15.6253 4.136V13H13.3853V4.136H15.6253ZM21.5344 10.936L23.7744 4.136H26.1584L22.8784 13H20.1584L16.8944 4.136H19.2944L21.5344 10.936ZM35.6565 8.376C35.6565 8.696 35.6352 8.984 35.5925 9.24H29.1125C29.1658 9.88 29.3898 10.3813 29.7845 10.744C30.1792 11.1067 30.6645 11.288 31.2405 11.288C32.0725 11.288 32.6645 10.9307 33.0165 10.216H35.4325C35.1765 11.0693 34.6858 11.7733 33.9605 12.328C33.2352 12.872 32.3445 13.144 31.2885 13.144C30.4352 13.144 29.6672 12.9573 28.9845 12.584C28.3125 12.2 27.7845 11.6613 27.4005 10.968C27.0272 10.2747 26.8405 9.47467 26.8405 8.568C26.8405 7.65067 27.0272 6.84533 27.4005 6.152C27.7738 5.45867 28.2965 4.92533 28.9685 4.552C29.6405 4.17867 30.4138 3.992 31.2885 3.992C32.1312 3.992 32.8832 4.17333 33.5445 4.536C34.2165 4.89867 34.7338 5.416 35.0965 6.088C35.4698 6.74933 35.6565 7.512 35.6565 8.376ZM33.3365 7.736C33.3258 7.16 33.1178 6.70133 32.7125 6.36C32.3072 6.008 31.8112 5.832 31.2245 5.832C30.6698 5.832 30.2005 6.00267 29.8165 6.344C29.4432 6.67467 29.2138 7.13867 29.1285 7.736H33.3365ZM47.44 7.272C48.0693 7.38933 48.5867 7.704 48.992 8.216C49.3973 8.728 49.6 9.31467 49.6 9.976C49.6 10.5733 49.4507 11.1013 49.152 11.56C48.864 12.008 48.4427 12.36 47.888 12.616C47.3333 12.872 46.6773 13 45.92 13H41.104V1.832H45.712C46.4693 1.832 47.12 1.95467 47.664 2.2C48.2187 2.44533 48.6347 2.78667 48.912 3.224C49.2 3.66133 49.344 4.15733 49.344 4.712C49.344 5.36267 49.168 5.90667 48.816 6.344C48.4747 6.78133 48.016 7.09067 47.44 7.272ZM43.344 6.44H45.392C45.9253 6.44 46.336 6.32267 46.624 6.088C46.912 5.84267 47.056 5.496 47.056 5.048C47.056 4.6 46.912 4.25333 46.624 4.008C46.336 3.76267 45.9253 3.64 45.392 3.64H43.344V6.44ZM45.6 11.176C46.144 11.176 46.5653 11.048 46.864 10.792C47.1733 10.536 47.328 10.1733 47.328 9.704C47.328 9.224 47.168 8.85067 46.848 8.584C46.528 8.30667 46.096 8.168 45.552 8.168H43.344V11.176H45.6ZM53.6253 1.16V13H51.3853V1.16H53.6253ZM59.7744 13.144C58.921 13.144 58.153 12.9573 57.4704 12.584C56.7877 12.2 56.249 11.6613 55.8544 10.968C55.4704 10.2747 55.2784 9.47467 55.2784 8.568C55.2784 7.66133 55.4757 6.86133 55.8704 6.168C56.2757 5.47467 56.825 4.94133 57.5184 4.568C58.2117 4.184 58.985 3.992 59.8384 3.992C60.6917 3.992 61.465 4.184 62.1584 4.568C62.8517 4.94133 63.3957 5.47467 63.7904 6.168C64.1957 6.86133 64.3984 7.66133 64.3984 8.568C64.3984 9.47467 64.1904 10.2747 63.7744 10.968C63.369 11.6613 62.8144 12.2 62.1104 12.584C61.417 12.9573 60.6384 13.144 59.7744 13.144ZM59.7744 11.192C60.1797 11.192 60.5584 11.096 60.9104 10.904C61.273 10.7013 61.561 10.4027 61.7744 10.008C61.9877 9.61333 62.0944 9.13333 62.0944 8.568C62.0944 7.72533 61.8704 7.08 61.4224 6.632C60.985 6.17333 60.4464 5.944 59.8064 5.944C59.1664 5.944 58.6277 6.17333 58.1904 6.632C57.7637 7.08 57.5504 7.72533 57.5504 8.568C57.5504 9.41067 57.7584 10.0613 58.1744 10.52C58.601 10.968 59.1344 11.192 59.7744 11.192ZM69.9775 13.144C69.1242 13.144 68.3562 12.9573 67.6735 12.584C66.9908 12.2 66.4522 11.6613 66.0575 10.968C65.6735 10.2747 65.4815 9.47467 65.4815 8.568C65.4815 7.66133 65.6788 6.86133 66.0735 6.168C66.4788 5.47467 67.0282 4.94133 67.7215 4.568C68.4148 4.184 69.1882 3.992 70.0415 3.992C70.8948 3.992 71.6682 4.184 72.3615 4.568C73.0548 4.94133 73.5988 5.47467 73.9935 6.168C74.3988 6.86133 74.6015 7.66133 74.6015 8.568C74.6015 9.47467 74.3935 10.2747 73.9775 10.968C73.5722 11.6613 73.0175 12.2 72.3135 12.584C71.6202 12.9573 70.8415 13.144 69.9775 13.144ZM69.9775 11.192C70.3828 11.192 70.7615 11.096 71.1135 10.904C71.4762 10.7013 71.7642 10.4027 71.9775 10.008C72.1908 9.61333 72.2975 9.13333 72.2975 8.568C72.2975 7.72533 72.0735 7.08 71.6255 6.632C71.1882 6.17333 70.6495 5.944 70.0095 5.944C69.3695 5.944 68.8308 6.17333 68.3935 6.632C67.9668 7.08 67.7535 7.72533 67.7535 8.568C67.7535 9.41067 67.9615 10.0613 68.3775 10.52C68.8042 10.968 69.3375 11.192 69.9775 11.192ZM75.6686 8.536C75.6686 7.64 75.8446 6.84533 76.1966 6.152C76.5593 5.45867 77.05 4.92533 77.6686 4.552C78.2873 4.17867 78.9753 3.992 79.7326 3.992C80.3086 3.992 80.858 4.12 81.3806 4.376C81.9033 4.62133 82.3193 4.952 82.6286 5.368V1.16H84.9006V13H82.6286V11.688C82.3513 12.1253 81.962 12.4773 81.4606 12.744C80.9593 13.0107 80.378 13.144 79.7166 13.144C78.97 13.144 78.2873 12.952 77.6686 12.568C77.05 12.184 76.5593 11.6453 76.1966 10.952C75.8446 10.248 75.6686 9.44267 75.6686 8.536ZM82.6446 8.568C82.6446 8.024 82.538 7.56 82.3246 7.176C82.1113 6.78133 81.8233 6.48267 81.4606 6.28C81.098 6.06667 80.7086 5.96 80.2926 5.96C79.8766 5.96 79.4926 6.06133 79.1406 6.264C78.7886 6.46667 78.5006 6.76533 78.2766 7.16C78.0633 7.544 77.9566 8.00267 77.9566 8.536C77.9566 9.06933 78.0633 9.53867 78.2766 9.944C78.5006 10.3387 78.7886 10.6427 79.1406 10.856C79.5033 11.0693 79.8873 11.176 80.2926 11.176C80.7086 11.176 81.098 11.0747 81.4606 10.872C81.8233 10.6587 82.1113 10.36 82.3246 9.976C82.538 9.58133 82.6446 9.112 82.6446 8.568ZM98.6769 5.192C98.4209 4.72267 98.0689 4.36533 97.6209 4.12C97.1729 3.87467 96.6502 3.752 96.0529 3.752C95.3915 3.752 94.8049 3.90133 94.2929 4.2C93.7809 4.49867 93.3809 4.92533 93.0929 5.48C92.8049 6.03467 92.6609 6.67467 92.6609 7.4C92.6609 8.14667 92.8049 8.79733 93.0929 9.352C93.3915 9.90667 93.8022 10.3333 94.3249 10.632C94.8475 10.9307 95.4555 11.08 96.1489 11.08C97.0022 11.08 97.7009 10.856 98.2449 10.408C98.7889 9.94933 99.1462 9.31467 99.3169 8.504H95.4769V6.792H101.525V8.744C101.376 9.52267 101.056 10.2427 100.565 10.904C100.074 11.5653 99.4395 12.0987 98.6609 12.504C97.8929 12.8987 97.0289 13.096 96.0689 13.096C94.9915 13.096 94.0155 12.856 93.1409 12.376C92.2769 11.8853 91.5942 11.208 91.0929 10.344C90.6022 9.48 90.3569 8.49867 90.3569 7.4C90.3569 6.30133 90.6022 5.32 91.0929 4.456C91.5942 3.58133 92.2769 2.904 93.1409 2.424C94.0155 1.93333 94.9862 1.688 96.0529 1.688C97.3115 1.688 98.4049 1.99733 99.3329 2.616C100.261 3.224 100.901 4.08267 101.253 5.192H98.6769ZM104.318 3.08C103.923 3.08 103.593 2.95733 103.326 2.712C103.07 2.456 102.942 2.14133 102.942 1.768C102.942 1.39467 103.07 1.08533 103.326 0.839999C103.593 0.583999 103.923 0.455999 104.318 0.455999C104.713 0.455999 105.038 0.583999 105.294 0.839999C105.561 1.08533 105.694 1.39467 105.694 1.768C105.694 2.14133 105.561 2.456 105.294 2.712C105.038 2.95733 104.713 3.08 104.318 3.08ZM105.422 4.136V13H103.182V4.136H105.422ZM111.331 10.936L113.571 4.136H115.955L112.675 13H109.955L106.691 4.136H109.091L111.331 10.936ZM125.453 8.376C125.453 8.696 125.432 8.984 125.389 9.24H118.909C118.963 9.88 119.187 10.3813 119.581 10.744C119.976 11.1067 120.461 11.288 121.037 11.288C121.869 11.288 122.461 10.9307 122.813 10.216H125.229C124.973 11.0693 124.483 11.7733 123.757 12.328C123.032 12.872 122.141 13.144 121.085 13.144C120.232 13.144 119.464 12.9573 118.781 12.584C118.109 12.2 117.581 11.6613 117.197 10.968C116.824 10.2747 116.637 9.47467 116.637 8.568C116.637 7.65067 116.824 6.84533 117.197 6.152C117.571 5.45867 118.093 4.92533 118.765 4.552C119.437 4.17867 120.211 3.992 121.085 3.992C121.928 3.992 122.68 4.17333 123.341 4.536C124.013 4.89867 124.531 5.416 124.893 6.088C125.267 6.74933 125.453 7.512 125.453 8.376ZM123.133 7.736C123.123 7.16 122.915 6.70133 122.509 6.36C122.104 6.008 121.608 5.832 121.021 5.832C120.467 5.832 119.997 6.00267 119.613 6.344C119.24 6.67467 119.011 7.13867 118.925 7.736H123.133ZM133.141 11.224H136.821V13H130.901V1.832H133.141V11.224ZM139.381 3.08C138.986 3.08 138.655 2.95733 138.389 2.712C138.133 2.456 138.005 2.14133 138.005 1.768C138.005 1.39467 138.133 1.08533 138.389 0.839999C138.655 0.583999 138.986 0.455999 139.381 0.455999C139.775 0.455999 140.101 0.583999 140.357 0.839999C140.623 1.08533 140.757 1.39467 140.757 1.768C140.757 2.14133 140.623 2.456 140.357 2.712C140.101 2.95733 139.775 3.08 139.381 3.08ZM140.485 4.136V13H138.245V4.136H140.485ZM146.762 5.976H145.21V13H142.938V5.976H141.93V4.136H142.938V3.688C142.938 2.6 143.247 1.8 143.866 1.288C144.484 0.775999 145.418 0.536 146.666 0.568V2.456C146.122 2.44533 145.743 2.536 145.53 2.728C145.316 2.92 145.21 3.26667 145.21 3.768V4.136H146.762V5.976ZM156.453 8.376C156.453 8.696 156.432 8.984 156.389 9.24H149.909C149.963 9.88 150.187 10.3813 150.581 10.744C150.976 11.1067 151.461 11.288 152.037 11.288C152.869 11.288 153.461 10.9307 153.813 10.216H156.229C155.973 11.0693 155.483 11.7733 154.757 12.328C154.032 12.872 153.141 13.144 152.085 13.144C151.232 13.144 150.464 12.9573 149.781 12.584C149.109 12.2 148.581 11.6613 148.197 10.968C147.824 10.2747 147.637 9.47467 147.637 8.568C147.637 7.65067 147.824 6.84533 148.197 6.152C148.571 5.45867 149.093 4.92533 149.765 4.552C150.437 4.17867 151.211 3.992 152.085 3.992C152.928 3.992 153.68 4.17333 154.341 4.536C155.013 4.89867 155.531 5.416 155.893 6.088C156.267 6.74933 156.453 7.512 156.453 8.376ZM154.133 7.736C154.123 7.16 153.915 6.70133 153.509 6.36C153.104 6.008 152.608 5.832 152.021 5.832C151.467 5.832 150.997 6.00267 150.613 6.344C150.24 6.67467 150.011 7.13867 149.925 7.736H154.133Z" fill="white"/>
</svg>
