<svg width="24" height="25" viewBox="0 0 24 25" fill="none" xmlns="http://www.w3.org/2000/svg">
<g clip-path="url(#clip0_571_6232)">
<path d="M22.555 14.162L20.655 7.326C20.0981 5.32333 18.8877 3.56428 17.2163 2.32847C15.5449 1.09265 13.5084 0.450982 11.4304 0.505462C9.3525 0.559942 7.35239 1.30744 5.74805 2.62914C4.1437 3.95085 3.02719 5.7709 2.57598 7.8L1.10498 14.415C0.942497 15.1459 0.946254 15.904 1.11597 16.6333C1.2857 17.3626 1.61705 18.0445 2.08556 18.6285C2.55408 19.2126 3.1478 19.684 3.82289 20.008C4.49798 20.3319 5.23721 20.5 5.98598 20.5H7.09998C7.3295 21.6303 7.94271 22.6465 8.83572 23.3764C9.72874 24.1063 10.8466 24.505 12 24.505C13.1533 24.505 14.2712 24.1063 15.1642 23.3764C16.0573 22.6465 16.6705 21.6303 16.9 20.5H17.738C18.5088 20.5001 19.2692 20.3219 19.9597 19.9794C20.6503 19.637 21.2523 19.1395 21.7188 18.5259C22.1853 17.9122 22.5036 17.199 22.6488 16.442C22.794 15.685 22.7622 14.9047 22.556 14.162H22.555ZM12 22.5C11.3817 22.4974 10.7794 22.3039 10.2753 21.9459C9.77121 21.5879 9.39007 21.0829 9.18398 20.5H14.816C14.6099 21.0829 14.2288 21.5879 13.7247 21.9459C13.2206 22.3039 12.6182 22.4974 12 22.5ZM20.126 17.315C19.8473 17.6847 19.4863 17.9843 19.0716 18.19C18.6569 18.3957 18.1999 18.5018 17.737 18.5H5.98598C5.53677 18.4999 5.0933 18.399 4.68832 18.2046C4.28334 18.0102 3.92719 17.7273 3.64614 17.3769C3.3651 17.0265 3.16634 16.6174 3.06454 16.1798C2.96274 15.7423 2.9605 15.2875 3.05798 14.849L4.52798 8.233C4.88233 6.6392 5.75929 5.2096 7.01944 4.17144C8.27959 3.13329 9.85061 2.54617 11.4828 2.50341C13.1149 2.46065 14.7145 2.96471 16.0273 3.93546C17.3401 4.90622 18.2907 6.28794 18.728 7.861L20.628 14.697C20.7535 15.1424 20.7735 15.6109 20.6864 16.0653C20.5992 16.5198 20.4074 16.9477 20.126 17.315Z" fill="#282828"/>
</g>
<defs>
<clipPath id="clip0_571_6232">
<rect width="24" height="24" fill="white" transform="translate(0 0.5)"/>
</clipPath>
</defs>
</svg>
