<svg width="28" height="28" viewBox="0 0 28 28" fill="none" xmlns="http://www.w3.org/2000/svg">
<g clip-path="url(#clip0_652_5718)">
<path d="M13.9997 2.3335C11.1272 2.33554 8.35702 3.39966 6.2219 5.32113V3.30572C6.2219 3.04787 6.11947 2.80058 5.93714 2.61825C5.75481 2.43593 5.50752 2.3335 5.24967 2.3335C4.99182 2.3335 4.74454 2.43593 4.56221 2.61825C4.37988 2.80058 4.27745 3.04787 4.27745 3.30572V6.22238C4.27745 6.99593 4.58474 7.7378 5.13172 8.28478C5.6787 8.83176 6.42057 9.13905 7.19412 9.13905H10.1108C10.3686 9.13905 10.6159 9.03662 10.7982 8.85429C10.9806 8.67197 11.083 8.42468 11.083 8.16683C11.083 7.90898 10.9806 7.66169 10.7982 7.47936C10.6159 7.29704 10.3686 7.19461 10.1108 7.19461H7.19412C7.16133 7.18975 7.12887 7.18293 7.0969 7.17419C8.68115 5.57861 10.7701 4.58232 13.0071 4.35539C15.2441 4.12847 17.4906 4.68497 19.363 5.9299C21.2354 7.17484 22.6177 9.03103 23.2739 11.1816C23.9301 13.3323 23.8196 15.644 22.9612 17.7222C22.1028 19.8004 20.5498 21.5162 18.5671 22.5769C16.5845 23.6375 14.2952 23.9772 12.09 23.5379C9.88488 23.0986 7.90052 21.9076 6.4757 20.1681C5.05088 18.4287 4.27392 16.2487 4.27745 14.0002C4.27745 13.7423 4.17502 13.495 3.99269 13.3127C3.81037 13.1304 3.56308 13.0279 3.30523 13.0279C3.04738 13.0279 2.80009 13.1304 2.61777 13.3127C2.43544 13.495 2.33301 13.7423 2.33301 14.0002C2.33301 16.3076 3.01725 18.5632 4.2992 20.4818C5.58115 22.4004 7.40323 23.8957 9.53503 24.7788C11.6668 25.6618 14.0126 25.8928 16.2757 25.4427C18.5388 24.9925 20.6176 23.8814 22.2493 22.2497C23.8809 20.6181 24.992 18.5393 25.4422 16.2762C25.8923 14.0131 25.6613 11.6673 24.7783 9.53552C23.8952 7.40372 22.3999 5.58163 20.4813 4.29968C18.5628 3.01773 16.3071 2.3335 13.9997 2.3335Z" fill="#282828"/>
<path d="M13.9996 8.16699C13.7417 8.16699 13.4944 8.26942 13.3121 8.45175C13.1298 8.63408 13.0273 8.88137 13.0273 9.13921V14.0003C13.0274 14.2582 13.1299 14.5054 13.3122 14.6877L16.2289 17.6044C16.4122 17.7815 16.6578 17.8794 16.9127 17.8772C17.1676 17.875 17.4115 17.7728 17.5917 17.5925C17.772 17.4123 17.8743 17.1684 17.8765 16.9135C17.8787 16.6586 17.7807 16.413 17.6036 16.2296L14.9718 13.5978V9.13921C14.9718 8.88137 14.8694 8.63408 14.687 8.45175C14.5047 8.26942 14.2574 8.16699 13.9996 8.16699Z" fill="#282828"/>
</g>
<defs>
<clipPath id="clip0_652_5718">
<rect width="23.3333" height="23.3333" fill="white" transform="translate(2.33301 2.3335)"/>
</clipPath>
</defs>
</svg>
