<svg width="25" height="24" viewBox="0 0 25 24" fill="none" xmlns="http://www.w3.org/2000/svg">
<path d="M12.5 14.4875C11.1193 14.4875 10 15.6068 10 16.9875V21.9875H15V16.9875C15 15.6068 13.8807 14.4875 12.5 14.4875Z" fill="#EA3A60"/>
<path d="M16.6667 16.9875V21.9875H20C21.3807 21.9875 22.5 20.8682 22.5 19.4875V11.8867C22.5002 11.4538 22.332 11.0378 22.0308 10.7267L14.9492 3.07087C13.6996 1.71891 11.5907 1.63591 10.2388 2.88544C10.1746 2.94481 10.1127 3.00665 10.0534 3.07087L2.98418 10.7242C2.67395 11.0366 2.49988 11.459 2.5 11.8992V19.4875C2.5 20.8682 3.6193 21.9875 5 21.9875H8.33332V16.9875C8.34891 14.7152 10.1836 12.8596 12.3987 12.8061C14.6879 12.7509 16.6492 14.6381 16.6667 16.9875Z" fill="#EA3A60"/>
<path d="M12.5 14.4875C11.1193 14.4875 10 15.6068 10 16.9875V21.9875H15V16.9875C15 15.6068 13.8807 14.4875 12.5 14.4875Z" fill="#EA3A60"/>
</svg>
