<svg width="25" height="24" viewBox="0 0 25 24" fill="none" xmlns="http://www.w3.org/2000/svg">
<g clip-path="url(#clip0_460_2181)">
<path d="M21.7677 9.55743L15.4468 3.23577C14.6645 2.45576 13.6049 2.01775 12.5002 2.01775C11.3955 2.01775 10.3358 2.45576 9.55351 3.23577L3.23268 9.55743C2.9997 9.78892 2.81499 10.0644 2.68925 10.3678C2.56351 10.6712 2.49924 10.9965 2.50018 11.3249V19.5058C2.50018 20.1688 2.76357 20.8047 3.23241 21.2735C3.70125 21.7424 4.33714 22.0058 5.00018 22.0058H20.0002C20.6632 22.0058 21.2991 21.7424 21.7679 21.2735C22.2368 20.8047 22.5002 20.1688 22.5002 19.5058V11.3249C22.5011 10.9965 22.4368 10.6712 22.3111 10.3678C22.1854 10.0644 22.0007 9.78892 21.7677 9.55743ZM15.0002 20.3391H10.0002V17.0608C10.0002 16.3977 10.2636 15.7618 10.7324 15.293C11.2013 14.8242 11.8371 14.5608 12.5002 14.5608C13.1632 14.5608 13.7991 14.8242 14.2679 15.293C14.7368 15.7618 15.0002 16.3977 15.0002 17.0608V20.3391ZM20.8335 19.5058C20.8335 19.7268 20.7457 19.9387 20.5894 20.095C20.4332 20.2513 20.2212 20.3391 20.0002 20.3391H16.6668V17.0608C16.6668 15.9557 16.2279 14.8959 15.4465 14.1145C14.6651 13.3331 13.6052 12.8941 12.5002 12.8941C11.3951 12.8941 10.3353 13.3331 9.5539 14.1145C8.7725 14.8959 8.33351 15.9557 8.33351 17.0608V20.3391H5.00018C4.77916 20.3391 4.5672 20.2513 4.41092 20.095C4.25464 19.9387 4.16684 19.7268 4.16684 19.5058V11.3249C4.16762 11.1041 4.25534 10.8924 4.41101 10.7358L10.7318 4.4166C11.2016 3.94904 11.8374 3.68655 12.5002 3.68655C13.163 3.68655 13.7988 3.94904 14.2685 4.4166L20.5893 10.7383C20.7444 10.8943 20.8321 11.105 20.8335 11.3249V19.5058Z" fill="#A9A9A9"/>
</g>
<defs>
<clipPath id="clip0_460_2181">
<rect width="20" height="20" fill="white" transform="translate(2.5 2)"/>
</clipPath>
</defs>
</svg>
