<svg width="24" height="24" viewBox="0 0 24 24" fill="none" xmlns="http://www.w3.org/2000/svg">
<g clip-path="url(#clip0_577_6221)">
<path d="M21.9617 6.61833L14.9467 13.6333C14.1645 14.4135 13.1048 14.8517 12 14.8517C10.8952 14.8517 9.83552 14.4135 9.05333 13.6333L2.03833 6.61833C2.02667 6.75 2 6.86917 2 7V17C2.00132 18.1047 2.44073 19.1637 3.22185 19.9448C4.00296 20.7259 5.062 21.1653 6.16667 21.1667H17.8333C18.938 21.1653 19.997 20.7259 20.7782 19.9448C21.5593 19.1637 21.9987 18.1047 22 17V7C22 6.86917 21.9733 6.75 21.9617 6.61833Z" fill="#EA3A60"/>
<path d="M13.7683 12.455L21.38 4.8425C21.0113 4.2311 20.4912 3.72503 19.87 3.37311C19.2487 3.02119 18.5473 2.83529 17.8333 2.83334H6.16666C5.45268 2.83529 4.75125 3.02119 4.13002 3.37311C3.50879 3.72503 2.98873 4.2311 2.62 4.8425L10.2317 12.455C10.7013 12.9228 11.3371 13.1854 12 13.1854C12.6628 13.1854 13.2987 12.9228 13.7683 12.455Z" fill="#EA3A60"/>
</g>
<defs>
<clipPath id="clip0_577_6221">
<rect width="20" height="20" fill="white" transform="translate(2 2)"/>
</clipPath>
</defs>
</svg>
