<svg width="24" height="24" viewBox="0 0 24 24" fill="none" xmlns="http://www.w3.org/2000/svg">
<g clip-path="url(#clip0_1163_1440)">
<path d="M17.8333 2.83333H6.16667C5.062 2.83466 4.00296 3.27407 3.22185 4.05518C2.44073 4.8363 2.00132 5.89534 2 7L2 17C2.00132 18.1047 2.44073 19.1637 3.22185 19.9448C4.00296 20.7259 5.062 21.1653 6.16667 21.1667H17.8333C18.938 21.1653 19.997 20.7259 20.7782 19.9448C21.5593 19.1637 21.9987 18.1047 22 17V7C21.9987 5.89534 21.5593 4.8363 20.7782 4.05518C19.997 3.27407 18.938 2.83466 17.8333 2.83333ZM6.16667 4.5H17.8333C18.3323 4.50098 18.8196 4.65126 19.2325 4.9315C19.6453 5.21174 19.9649 5.60912 20.15 6.0725L13.7683 12.455C13.2987 12.9228 12.6628 13.1854 12 13.1854C11.3372 13.1854 10.7013 12.9228 10.2317 12.455L3.85 6.0725C4.03512 5.60912 4.35468 5.21174 4.76754 4.9315C5.1804 4.65126 5.66768 4.50098 6.16667 4.5ZM17.8333 19.5H6.16667C5.50363 19.5 4.86774 19.2366 4.3989 18.7678C3.93006 18.2989 3.66667 17.663 3.66667 17V8.25L9.05333 13.6333C9.83552 14.4135 10.8952 14.8517 12 14.8517C13.1048 14.8517 14.1645 14.4135 14.9467 13.6333L20.3333 8.25V17C20.3333 17.663 20.0699 18.2989 19.6011 18.7678C19.1323 19.2366 18.4964 19.5 17.8333 19.5Z" fill="#A9A9A9"/>
</g>
<defs>
<clipPath id="clip0_1163_1440">
<rect width="20" height="20" fill="white" transform="translate(2 2)"/>
</clipPath>
</defs>
</svg>
