<svg width="28" height="28" viewBox="0 0 28 28" fill="none" xmlns="http://www.w3.org/2000/svg">
<g clip-path="url(#clip0_652_5723)">
<path d="M20.8051 10.5235V9.13905C20.8051 7.33411 20.0881 5.60309 18.8118 4.3268C17.5355 3.05051 15.8045 2.3335 13.9996 2.3335C12.1946 2.3335 10.4636 3.05051 9.18731 4.3268C7.91102 5.60309 7.19401 7.33411 7.19401 9.13905V10.5235C6.32811 10.9014 5.5911 11.5234 5.07311 12.3136C4.55511 13.1037 4.27859 14.0276 4.27734 14.9724V20.8057C4.27889 22.0945 4.79153 23.33 5.70284 24.2413C6.61414 25.1526 7.84968 25.6653 9.13845 25.6668H18.8607C20.1494 25.6653 21.385 25.1526 22.2963 24.2413C23.2076 23.33 23.7202 22.0945 23.7218 20.8057V14.9724C23.7205 14.0276 23.444 13.1037 22.926 12.3136C22.408 11.5234 21.671 10.9014 20.8051 10.5235ZM9.13845 9.13905C9.13845 7.8498 9.65061 6.61336 10.5622 5.70173C11.4739 4.79009 12.7103 4.27794 13.9996 4.27794C15.2888 4.27794 16.5253 4.79009 17.4369 5.70173C18.3485 6.61336 18.8607 7.8498 18.8607 9.13905V10.1113H9.13845V9.13905ZM21.7773 20.8057C21.7773 21.5793 21.4701 22.3211 20.9231 22.8681C20.3761 23.4151 19.6342 23.7224 18.8607 23.7224H9.13845C8.36491 23.7224 7.62304 23.4151 7.07606 22.8681C6.52908 22.3211 6.22179 21.5793 6.22179 20.8057V14.9724C6.22179 14.1988 6.52908 13.457 7.07606 12.91C7.62304 12.363 8.36491 12.0557 9.13845 12.0557H18.8607C19.6342 12.0557 20.3761 12.363 20.9231 12.91C21.4701 13.457 21.7773 14.1988 21.7773 14.9724V20.8057Z" fill="#282828"/>
<path d="M13.9996 15.9448C13.7417 15.9448 13.4944 16.0473 13.3121 16.2296C13.1298 16.4119 13.0273 16.6592 13.0273 16.917V18.8615C13.0273 19.1193 13.1298 19.3666 13.3121 19.549C13.4944 19.7313 13.7417 19.8337 13.9996 19.8337C14.2574 19.8337 14.5047 19.7313 14.687 19.549C14.8694 19.3666 14.9718 19.1193 14.9718 18.8615V16.917C14.9718 16.6592 14.8694 16.4119 14.687 16.2296C14.5047 16.0473 14.2574 15.9448 13.9996 15.9448Z" fill="#282828"/>
</g>
<defs>
<clipPath id="clip0_652_5723">
<rect width="23.3333" height="23.3333" fill="white" transform="translate(2.33301 2.3335)"/>
</clipPath>
</defs>
</svg>
