<svg width="28" height="28" viewBox="0 0 28 28" fill="none" xmlns="http://www.w3.org/2000/svg">
<g clip-path="url(#clip0_687_2290)">
<path d="M14.972 3.30556C14.972 3.04771 15.0744 2.80042 15.2567 2.6181C15.4391 2.43577 15.6864 2.33334 15.9442 2.33334C18.5218 2.33617 20.9931 3.36138 22.8157 5.18404C24.6384 7.0067 25.6636 9.47794 25.6664 12.0556C25.6664 12.3134 25.564 12.5607 25.3817 12.743C25.1994 12.9254 24.9521 13.0278 24.6942 13.0278C24.4364 13.0278 24.1891 12.9254 24.0067 12.743C23.8244 12.5607 23.722 12.3134 23.722 12.0556C23.7197 9.99348 22.8995 8.01651 21.4414 6.5584C19.9833 5.10029 18.0063 4.2801 15.9442 4.27778C15.6864 4.27778 15.4391 4.17535 15.2567 3.99303C15.0744 3.8107 14.972 3.56341 14.972 3.30556ZM15.9442 8.16667C16.9756 8.16667 17.9648 8.57639 18.6941 9.3057C19.4234 10.035 19.8331 11.0242 19.8331 12.0556C19.8331 12.3134 19.9355 12.5607 20.1179 12.743C20.3002 12.9254 20.5475 13.0278 20.8053 13.0278C21.0632 13.0278 21.3105 12.9254 21.4928 12.743C21.6751 12.5607 21.7775 12.3134 21.7775 12.0556C21.776 10.5089 21.1609 9.02611 20.0673 7.93248C18.9737 6.83885 17.4908 6.22377 15.9442 6.22223C15.6864 6.22223 15.4391 6.32466 15.2567 6.50699C15.0744 6.68931 14.972 6.9366 14.972 7.19445C14.972 7.4523 15.0744 7.69959 15.2567 7.88192C15.4391 8.06424 15.6864 8.16667 15.9442 8.16667ZM24.7846 18.6074C25.348 19.1723 25.6644 19.9377 25.6644 20.7356C25.6644 21.5334 25.348 22.2988 24.7846 22.8638L23.8999 23.8836C15.9374 31.5068 -3.43898 12.1353 4.06657 4.14751L5.18463 3.17528C5.75024 2.62761 6.50873 2.32464 7.29601 2.33192C8.08329 2.33919 8.83605 2.65614 9.39144 3.21417C9.42158 3.24431 11.2231 5.58445 11.2231 5.58445C11.7577 6.14603 12.0552 6.89202 12.054 7.66734C12.0527 8.44266 11.7527 9.18767 11.2163 9.74751L10.0905 11.1631C10.7135 12.6769 11.6296 14.0527 12.786 15.2115C13.9424 16.3702 15.3163 17.289 16.8289 17.9151L18.2532 16.7825C18.8132 16.2465 19.558 15.9469 20.3331 15.9458C21.1082 15.9447 21.8539 16.2423 22.4153 16.7767C22.4153 16.7767 24.7545 18.5772 24.7846 18.6074ZM23.4469 20.021C23.4469 20.021 21.1203 18.2311 21.0902 18.201C20.8899 18.0024 20.6193 17.891 20.3372 17.891C20.0551 17.891 19.7845 18.0024 19.5842 18.201C19.558 18.2282 17.597 19.7906 17.597 19.7906C17.4648 19.8957 17.3076 19.9647 17.1407 19.9906C16.9738 20.0165 16.803 19.9985 16.6452 19.9383C14.6856 19.2088 12.9058 18.0666 11.4261 16.5891C9.94651 15.1117 8.80169 13.3335 8.06921 11.375C8.00427 11.215 7.98309 11.0406 8.00787 10.8698C8.03265 10.6989 8.10248 10.5377 8.21019 10.4028C8.21019 10.4028 9.77255 8.44084 9.7988 8.41556C9.99739 8.21527 10.1088 7.94463 10.1088 7.66258C10.1088 7.38052 9.99739 7.10988 9.7988 6.90959C9.76866 6.88042 7.9788 4.55195 7.9788 4.55195C7.77551 4.36967 7.51019 4.27204 7.23723 4.27909C6.96428 4.28614 6.70435 4.39733 6.51074 4.58987L5.39269 5.56209C-0.0925922 12.1576 16.6987 28.0175 22.4785 22.5556L23.3642 21.5347C23.5718 21.3425 23.6964 21.0771 23.7118 20.7946C23.7273 20.5121 23.6322 20.2347 23.4469 20.021Z" fill="#EA3A60"/>
</g>
<defs>
<clipPath id="clip0_687_2290">
<rect width="23.3333" height="23.3333" fill="white" transform="translate(2.33301 2.33337)"/>
</clipPath>
</defs>
</svg>
