<svg width="28" height="28" viewBox="0 0 28 28" fill="none" xmlns="http://www.w3.org/2000/svg">
<g clip-path="url(#clip0_652_5713)">
<path d="M13.9993 14.0002C15.1531 14.0002 16.2809 13.658 17.2402 13.0171C18.1995 12.3761 18.9471 11.4651 19.3886 10.3992C19.8302 9.33325 19.9457 8.16036 19.7206 7.0288C19.4955 5.89725 18.9399 4.85785 18.1241 4.04204C17.3083 3.22624 16.2689 2.67066 15.1374 2.44558C14.0058 2.2205 12.8329 2.33602 11.767 2.77753C10.7011 3.21905 9.79008 3.96672 9.14911 4.92601C8.50813 5.88529 8.16602 7.01311 8.16602 8.16683C8.16756 9.71345 8.78264 11.1963 9.87627 12.2899C10.9699 13.3835 12.4527 13.9986 13.9993 14.0002ZM13.9993 4.27794C14.7685 4.27794 15.5204 4.50602 16.1599 4.93334C16.7994 5.36066 17.2979 5.96802 17.5922 6.67862C17.8866 7.38922 17.9636 8.17115 17.8135 8.92552C17.6635 9.67989 17.2931 10.3728 16.7492 10.9167C16.2053 11.4606 15.5124 11.8309 14.758 11.981C14.0037 12.1311 13.2217 12.054 12.5111 11.7597C11.8005 11.4654 11.1932 10.9669 10.7659 10.3274C10.3385 9.68786 10.1105 8.93598 10.1105 8.16683C10.1105 7.13543 10.5202 6.14628 11.2495 5.41697C11.9788 4.68766 12.968 4.27794 13.9993 4.27794Z" fill="#282828"/>
<path d="M14 15.9448C11.6801 15.9474 9.45604 16.8701 7.81566 18.5105C6.17527 20.1509 5.25257 22.375 5.25 24.6948C5.25 24.9527 5.35243 25.2 5.53476 25.3823C5.71708 25.5646 5.96437 25.667 6.22222 25.667C6.48007 25.667 6.72736 25.5646 6.90969 25.3823C7.09201 25.2 7.19444 24.9527 7.19444 24.6948C7.19444 22.8899 7.91146 21.1589 9.18775 19.8826C10.464 18.6063 12.1951 17.8893 14 17.8893C15.8049 17.8893 17.536 18.6063 18.8123 19.8826C20.0885 21.1589 20.8056 22.8899 20.8056 24.6948C20.8056 24.9527 20.908 25.2 21.0903 25.3823C21.2726 25.5646 21.5199 25.667 21.7778 25.667C22.0356 25.667 22.2829 25.5646 22.4652 25.3823C22.6476 25.2 22.75 24.9527 22.75 24.6948C22.7474 22.375 21.8247 20.1509 20.1843 18.5105C18.544 16.8701 16.3199 15.9474 14 15.9448Z" fill="#282828"/>
</g>
<defs>
<clipPath id="clip0_652_5713">
<rect width="23.3333" height="23.3333" fill="white" transform="translate(2.33301 2.3335)"/>
</clipPath>
</defs>
</svg>
