<svg width="25" height="24" viewBox="0 0 25 24" fill="none" xmlns="http://www.w3.org/2000/svg">
<g clip-path="url(#clip0_1163_1435)">
<path d="M20 7.83333H17.3883C17.9659 7.30673 18.4236 6.66218 18.7304 5.94331C19.0372 5.22444 19.186 4.44803 19.1667 3.66667H17.5C17.5 6.0675 15.8575 7.25583 14.04 7.66667C14.5857 6.69317 14.9133 5.61266 15 4.5C15 3.83696 14.7366 3.20107 14.2678 2.73223C13.7989 2.26339 13.163 2 12.5 2C11.837 2 11.2011 2.26339 10.7322 2.73223C10.2634 3.20107 10 3.83696 10 4.5C10.0867 5.61266 10.4143 6.69317 10.96 7.66667C9.1425 7.25583 7.5 6.0675 7.5 3.66667H5.83333C5.81399 4.44803 5.96277 5.22444 6.26958 5.94331C6.5764 6.66218 7.03409 7.30673 7.61167 7.83333H5C4.33696 7.83333 3.70107 8.09673 3.23223 8.56557C2.76339 9.03441 2.5 9.67029 2.5 10.3333L2.5 13.6667H4.16667V22H20.8333V13.6667H22.5V10.3333C22.5 9.67029 22.2366 9.03441 21.7678 8.56557C21.2989 8.09673 20.663 7.83333 20 7.83333ZM12.5 3.66667C12.721 3.66667 12.933 3.75446 13.0893 3.91074C13.2455 4.06702 13.3333 4.27899 13.3333 4.5C13.2327 5.38569 12.9489 6.24076 12.5 7.01083C12.0511 6.24076 11.7673 5.38569 11.6667 4.5C11.6667 4.27899 11.7545 4.06702 11.9107 3.91074C12.067 3.75446 12.279 3.66667 12.5 3.66667ZM4.16667 10.3333C4.16667 10.1123 4.25446 9.90036 4.41074 9.74408C4.56702 9.5878 4.77899 9.5 5 9.5H11.6667V12H4.16667V10.3333ZM5.83333 13.6667H11.6667V20.3333H5.83333V13.6667ZM19.1667 20.3333H13.3333V13.6667H19.1667V20.3333ZM20.8333 12H13.3333V9.5H20C20.221 9.5 20.433 9.5878 20.5893 9.74408C20.7455 9.90036 20.8333 10.1123 20.8333 10.3333V12Z" fill="#A9A9A9"/>
</g>
<defs>
<clipPath id="clip0_1163_1435">
<rect width="20" height="20" fill="white" transform="translate(2.5 2)"/>
</clipPath>
</defs>
</svg>
