<svg width="25" height="24" viewBox="0 0 25 24" fill="none" xmlns="http://www.w3.org/2000/svg">
<g clip-path="url(#clip0_460_2184)">
<path d="M4.16667 13.6667H11.6667V22H4.16667V13.6667ZM13.3333 22H20.8333V13.6667H13.3333V22ZM22.5 10.3333V12H13.3333V9.46083C13.0617 9.485 12.785 9.5 12.5 9.5C12.215 9.5 11.9383 9.485 11.6667 9.46083V12H2.5V10.3333C2.5 9.67029 2.76339 9.03441 3.23223 8.56557C3.70107 8.09673 4.33696 7.83333 5 7.83333H7.61167C7.03409 7.30673 6.5764 6.66218 6.26958 5.94331C5.96277 5.22444 5.81399 4.44803 5.83333 3.66667H7.5C7.5 6.0675 9.1425 7.25583 10.96 7.66667C10.4143 6.69317 10.0867 5.61266 10 4.5C10 3.83696 10.2634 3.20107 10.7322 2.73223C11.2011 2.26339 11.837 2 12.5 2C13.163 2 13.7989 2.26339 14.2678 2.73223C14.7366 3.20107 15 3.83696 15 4.5C14.9133 5.61266 14.5857 6.69317 14.04 7.66667C15.8575 7.25583 17.5 6.0675 17.5 3.66667H19.1667C19.186 4.44803 19.0372 5.22444 18.7304 5.94331C18.4236 6.66218 17.9659 7.30673 17.3883 7.83333H20C20.663 7.83333 21.2989 8.09673 21.7678 8.56557C22.2366 9.03441 22.5 9.67029 22.5 10.3333ZM11.6667 4.5C11.7673 5.38569 12.0511 6.24076 12.5 7.01083C12.9489 6.24076 13.2327 5.38569 13.3333 4.5C13.3333 4.27899 13.2455 4.06702 13.0893 3.91074C12.933 3.75446 12.721 3.66667 12.5 3.66667C12.279 3.66667 12.067 3.75446 11.9107 3.91074C11.7545 4.06702 11.6667 4.27899 11.6667 4.5Z" fill="#EA3A60"/>
</g>
<defs>
<clipPath id="clip0_460_2184">
<rect width="20" height="20" fill="white" transform="translate(2.5 2)"/>
</clipPath>
</defs>
</svg>
