<svg width="24" height="24" viewBox="0 0 24 24" fill="none" xmlns="http://www.w3.org/2000/svg">
<g clip-path="url(#clip0_1163_1445)">
<path d="M15.3333 2H15.225C14.8521 2.00354 14.4908 2.13084 14.1981 2.36192C13.9053 2.59299 13.6976 2.91474 13.6075 3.27667C13.511 3.62903 13.3014 3.93994 13.011 4.16155C12.7205 4.38316 12.3653 4.5032 12 4.5032C11.6347 4.5032 11.2795 4.38316 10.989 4.16155C10.6986 3.93994 10.489 3.62903 10.3925 3.27667C10.3024 2.91474 10.0947 2.59299 9.80192 2.36192C9.50916 2.13084 9.14795 2.00354 8.775 2H8.66667C7.562 2.00132 6.50296 2.44073 5.72185 3.22185C4.94073 4.00296 4.50132 5.062 4.5 6.16667V19.5C4.5 20.163 4.76339 20.7989 5.23223 21.2678C5.70107 21.7366 6.33696 22 7 22H8.775C9.14795 21.9965 9.50916 21.8692 9.80192 21.6381C10.0947 21.407 10.3024 21.0853 10.3925 20.7233C10.489 20.371 10.6986 20.0601 10.989 19.8385C11.2795 19.6168 11.6347 19.4968 12 19.4968C12.3653 19.4968 12.7205 19.6168 13.011 19.8385C13.3014 20.0601 13.511 20.371 13.6075 20.7233C13.6976 21.0853 13.9053 21.407 14.1981 21.6381C14.4908 21.8692 14.8521 21.9965 15.225 22H17C17.663 22 18.2989 21.7366 18.7678 21.2678C19.2366 20.7989 19.5 20.163 19.5 19.5V6.16667C19.4987 5.062 19.0593 4.00296 18.2782 3.22185C17.497 2.44073 16.438 2.00132 15.3333 2ZM17 20.3333L15.2142 20.2808C15.0184 19.5737 14.5949 18.9509 14.0091 18.509C13.4233 18.0671 12.7082 17.8308 11.9744 17.8368C11.2407 17.8428 10.5295 18.0907 9.95102 18.5421C9.37255 18.9934 8.95917 19.6231 8.775 20.3333H7C6.77899 20.3333 6.56702 20.2455 6.41074 20.0893C6.25446 19.933 6.16667 19.721 6.16667 19.5V16.1667H7.83333C8.05435 16.1667 8.26631 16.0789 8.42259 15.9226C8.57887 15.7663 8.66667 15.5543 8.66667 15.3333C8.66667 15.1123 8.57887 14.9004 8.42259 14.7441C8.26631 14.5878 8.05435 14.5 7.83333 14.5H6.16667V6.16667C6.16667 5.50363 6.43006 4.86774 6.8989 4.3989C7.36774 3.93006 8.00363 3.66667 8.66667 3.66667L8.78583 3.71917C8.98102 4.42202 9.40083 5.0417 9.98118 5.48363C10.5615 5.92555 11.2705 6.16543 12 6.16667C12.7393 6.16038 13.4563 5.91275 14.0419 5.46147C14.6275 5.01019 15.0497 4.37995 15.2442 3.66667H15.3333C15.9964 3.66667 16.6323 3.93006 17.1011 4.3989C17.5699 4.86774 17.8333 5.50363 17.8333 6.16667V14.5H16.1667C15.9457 14.5 15.7337 14.5878 15.5774 14.7441C15.4211 14.9004 15.3333 15.1123 15.3333 15.3333C15.3333 15.5543 15.4211 15.7663 15.5774 15.9226C15.7337 16.0789 15.9457 16.1667 16.1667 16.1667H17.8333V19.5C17.8333 19.721 17.7455 19.933 17.5893 20.0893C17.433 20.2455 17.221 20.3333 17 20.3333Z" fill="#A9A9A9"/>
<path d="M12.8334 14.5H11.1667C10.9457 14.5 10.7337 14.5878 10.5775 14.7441C10.4212 14.9004 10.3334 15.1123 10.3334 15.3333C10.3334 15.5543 10.4212 15.7663 10.5775 15.9226C10.7337 16.0789 10.9457 16.1667 11.1667 16.1667H12.8334C13.0544 16.1667 13.2663 16.0789 13.4226 15.9226C13.5789 15.7663 13.6667 15.5543 13.6667 15.3333C13.6667 15.1123 13.5789 14.9004 13.4226 14.7441C13.2663 14.5878 13.0544 14.5 12.8334 14.5Z" fill="#282828"/>
</g>
<defs>
<clipPath id="clip0_1163_1445">
<rect width="20" height="20" fill="white" transform="translate(2 2)"/>
</clipPath>
</defs>
</svg>
