<svg width="28" height="28" viewBox="0 0 28 28" fill="none" xmlns="http://www.w3.org/2000/svg">
<g clip-path="url(#clip0_687_2297)">
<path d="M24.5998 8.68979C23.9426 8.36118 23.1677 8.43021 22.5805 8.87257C22.5426 8.90077 22.5066 8.93285 22.4736 8.96591L20.7654 10.6897C20.5602 8.19591 18.4894 6.22327 15.9441 6.22327H7.19412C4.5137 6.22229 2.33301 8.40299 2.33301 11.0834V16.9167C2.33301 19.5972 4.5137 21.7778 7.19412 21.7778H15.9441C18.5001 21.7778 20.5797 19.7877 20.7683 17.2794L22.4755 18.9847C22.5086 19.0167 22.5426 19.0459 22.5795 19.0741C22.9218 19.3308 23.3262 19.461 23.7345 19.461C24.0291 19.461 24.3237 19.394 24.5998 19.2559C25.258 18.9273 25.6663 18.2652 25.6663 17.5312V10.4165C25.6663 9.68049 25.258 9.01841 24.5998 8.68979ZM15.9441 19.8334H7.19412C5.58606 19.8334 4.27745 18.5248 4.27745 16.9167V11.0834C4.27745 9.47535 5.58606 8.16674 7.19412 8.16674H15.9441C17.5522 8.16674 18.8608 9.47535 18.8608 11.0834V16.9167C18.8608 18.5248 17.5522 19.8334 15.9441 19.8334ZM20.8052 14.5669V13.4109L23.7219 10.467L23.7462 17.504L20.8052 14.5659V14.5669Z" fill="#EA3A60"/>
</g>
<defs>
<clipPath id="clip0_687_2297">
<rect width="23.3333" height="23.3333" fill="white" transform="translate(2.33301 2.33337)"/>
</clipPath>
</defs>
</svg>
